<svg xmlns="http://www.w3.org/2000/svg" width="512" height="512" viewBox="0 0 512 512"><rect width="512" height="512" fill="#8e44ad" /><circle cx="164" cy="219" r="3" fill="#ffffff" /><circle cx="356" cy="137" r="3" fill="#ffffff" /><circle cx="381" cy="107" r="1" fill="#ffffff" /><circle cx="495" cy="132" r="1" fill="#ffffff" /><circle cx="423" cy="322" r="2" fill="#ffffff" /><circle cx="166" cy="46" r="1" fill="#ffffff" /><circle cx="443" cy="87" r="1" fill="#ffffff" /><circle cx="272" cy="398" r="2" fill="#ffffff" /><circle cx="270" cy="360" r="3" fill="#ffffff" /><circle cx="326" cy="426" r="2" fill="#ffffff" /><circle cx="408" cy="253" r="2" fill="#ffffff" /><circle cx="360" cy="56" r="3" fill="#ffffff" /><circle cx="448" cy="176" r="3" fill="#ffffff" /><circle cx="218" cy="456" r="1" fill="#ffffff" /><circle cx="364" cy="356" r="2" fill="#ffffff" /><circle cx="30" cy="352" r="3" fill="#ffffff" /><circle cx="401" cy="53" r="2" fill="#ffffff" /><circle cx="39" cy="345" r="3" fill="#ffffff" /><circle cx="413" cy="143" r="3" fill="#ffffff" /><circle cx="278" cy="33" r="3" fill="#ffffff" /><circle cx="397" cy="296" r="1" fill="#ffffff" /><circle cx="228" cy="127" r="3" fill="#ffffff" /><circle cx="156" cy="35" r="3" fill="#ffffff" /><circle cx="442" cy="475" r="3" fill="#ffffff" /><circle cx="227" cy="355" r="3" fill="#ffffff" /><circle cx="282" cy="326" r="2" fill="#ffffff" /><circle cx="122" cy="318" r="3" fill="#ffffff" /><circle cx="55" cy="333" r="1" fill="#ffffff" /><circle cx="90" cy="305" r="2" fill="#ffffff" /><circle cx="298" cy="363" r="1" fill="#ffffff" /><circle cx="63" cy="315" r="3" fill="#ffffff" /><circle cx="226" cy="85" r="3" fill="#ffffff" /><circle cx="438" cy="458" r="2" fill="#ffffff" /><circle cx="392" cy="445" r="3" fill="#ffffff" /><circle cx="462" cy="257" r="2" fill="#ffffff" /><circle cx="342" cy="440" r="2" fill="#ffffff" /><circle cx="111" cy="485" r="1" fill="#ffffff" /><circle cx="182" cy="221" r="1" fill="#ffffff" /><circle cx="362" cy="476" r="1" fill="#ffffff" /><circle cx="157" cy="328" r="1" fill="#ffffff" /><circle cx="28" cy="183" r="2" fill="#ffffff" /><circle cx="355" cy="158" r="2" fill="#ffffff" /><circle cx="249" cy="264" r="3" fill="#ffffff" /><circle cx="45" cy="354" r="1" fill="#ffffff" /><circle cx="302" cy="164" r="1" fill="#ffffff" /><circle cx="258" cy="349" r="3" fill="#ffffff" /><circle cx="275" cy="481" r="3" fill="#ffffff" /><circle cx="434" cy="367" r="3" fill="#ffffff" /><circle cx="53" cy="461" r="2" fill="#ffffff" /><circle cx="257" cy="313" r="2" fill="#ffffff" /><circle cx="283" cy="227" r="98" fill="#10f35f" /></svg>