<svg xmlns="http://www.w3.org/2000/svg" width="512" height="512" viewBox="0 0 512 512"><rect width="512" height="512" fill="#9b59b6" /><circle cx="491" cy="408" r="1" fill="#ffffff" /><circle cx="130" cy="350" r="3" fill="#ffffff" /><circle cx="112" cy="364" r="2" fill="#ffffff" /><circle cx="228" cy="59" r="3" fill="#ffffff" /><circle cx="39" cy="305" r="3" fill="#ffffff" /><circle cx="214" cy="132" r="1" fill="#ffffff" /><circle cx="141" cy="371" r="3" fill="#ffffff" /><circle cx="181" cy="60" r="3" fill="#ffffff" /><circle cx="333" cy="181" r="3" fill="#ffffff" /><circle cx="401" cy="301" r="2" fill="#ffffff" /><circle cx="44" cy="418" r="3" fill="#ffffff" /><circle cx="32" cy="262" r="2" fill="#ffffff" /><circle cx="283" cy="166" r="2" fill="#ffffff" /><circle cx="47" cy="126" r="2" fill="#ffffff" /><circle cx="302" cy="257" r="1" fill="#ffffff" /><circle cx="56" cy="243" r="2" fill="#ffffff" /><circle cx="268" cy="34" r="1" fill="#ffffff" /><circle cx="79" cy="229" r="2" fill="#ffffff" /><circle cx="51" cy="293" r="3" fill="#ffffff" /><circle cx="374" cy="396" r="1" fill="#ffffff" /><circle cx="139" cy="113" r="2" fill="#ffffff" /><circle cx="51" cy="69" r="3" fill="#ffffff" /><circle cx="435" cy="422" r="1" fill="#ffffff" /><circle cx="383" cy="334" r="2" fill="#ffffff" /><circle cx="438" cy="166" r="3" fill="#ffffff" /><circle cx="481" cy="61" r="2" fill="#ffffff" /><circle cx="145" cy="381" r="1" fill="#ffffff" /><circle cx="157" cy="302" r="1" fill="#ffffff" /><circle cx="410" cy="42" r="2" fill="#ffffff" /><circle cx="311" cy="46" r="2" fill="#ffffff" /><circle cx="476" cy="478" r="1" fill="#ffffff" /><circle cx="326" cy="438" r="1" fill="#ffffff" /><circle cx="369" cy="106" r="3" fill="#ffffff" /><circle cx="64" cy="393" r="1" fill="#ffffff" /><circle cx="464" cy="328" r="1" fill="#ffffff" /><circle cx="432" cy="391" r="3" fill="#ffffff" /><circle cx="394" cy="31" r="2" fill="#ffffff" /><circle cx="190" cy="220" r="1" fill="#ffffff" /><circle cx="179" cy="19" r="3" fill="#ffffff" /><circle cx="363" cy="173" r="1" fill="#ffffff" /><circle cx="147" cy="21" r="3" fill="#ffffff" /><circle cx="420" cy="264" r="3" fill="#ffffff" /><circle cx="48" cy="468" r="1" fill="#ffffff" /><circle cx="258" cy="421" r="3" fill="#ffffff" /><circle cx="268" cy="324" r="1" fill="#ffffff" /><circle cx="429" cy="369" r="3" fill="#ffffff" /><circle cx="425" cy="445" r="1" fill="#ffffff" /><circle cx="125" cy="360" r="3" fill="#ffffff" /><circle cx="32" cy="110" r="2" fill="#ffffff" /><circle cx="386" cy="47" r="1" fill="#ffffff" /><circle cx="362" cy="252" r="80" fill="#e601a4" /><ellipse cx="362" cy="252" rx="100" ry="26.666666666666668" fill="none" stroke="#ffffff" stroke-width="4" /></svg>