<svg xmlns="http://www.w3.org/2000/svg" width="512" height="512" viewBox="0 0 512 512"><rect width="512" height="512" fill="#2980b9" /><circle cx="202" cy="273" r="1" fill="#ffffff" /><circle cx="483" cy="430" r="1" fill="#ffffff" /><circle cx="363" cy="299" r="3" fill="#ffffff" /><circle cx="315" cy="481" r="1" fill="#ffffff" /><circle cx="393" cy="496" r="2" fill="#ffffff" /><circle cx="409" cy="488" r="2" fill="#ffffff" /><circle cx="229" cy="101" r="1" fill="#ffffff" /><circle cx="58" cy="111" r="3" fill="#ffffff" /><circle cx="61" cy="146" r="3" fill="#ffffff" /><circle cx="317" cy="35" r="2" fill="#ffffff" /><circle cx="40" cy="179" r="3" fill="#ffffff" /><circle cx="148" cy="310" r="2" fill="#ffffff" /><circle cx="185" cy="110" r="1" fill="#ffffff" /><circle cx="369" cy="275" r="2" fill="#ffffff" /><circle cx="298" cy="239" r="1" fill="#ffffff" /><circle cx="434" cy="402" r="3" fill="#ffffff" /><circle cx="324" cy="464" r="1" fill="#ffffff" /><circle cx="342" cy="436" r="3" fill="#ffffff" /><circle cx="356" cy="390" r="1" fill="#ffffff" /><circle cx="115" cy="93" r="3" fill="#ffffff" /><circle cx="397" cy="450" r="1" fill="#ffffff" /><circle cx="433" cy="267" r="1" fill="#ffffff" /><circle cx="488" cy="333" r="1" fill="#ffffff" /><circle cx="422" cy="146" r="3" fill="#ffffff" /><circle cx="226" cy="386" r="1" fill="#ffffff" /><circle cx="233" cy="160" r="1" fill="#ffffff" /><circle cx="221" cy="337" r="2" fill="#ffffff" /><circle cx="118" cy="136" r="3" fill="#ffffff" /><circle cx="393" cy="172" r="1" fill="#ffffff" /><circle cx="419" cy="215" r="2" fill="#ffffff" /><circle cx="312" cy="399" r="3" fill="#ffffff" /><circle cx="105" cy="149" r="1" fill="#ffffff" /><circle cx="372" cy="33" r="2" fill="#ffffff" /><circle cx="452" cy="309" r="1" fill="#ffffff" /><circle cx="150" cy="324" r="3" fill="#ffffff" /><circle cx="62" cy="180" r="1" fill="#ffffff" /><circle cx="61" cy="212" r="1" fill="#ffffff" /><circle cx="501" cy="280" r="3" fill="#ffffff" /><circle cx="206" cy="244" r="1" fill="#ffffff" /><circle cx="261" cy="418" r="1" fill="#ffffff" /><circle cx="447" cy="109" r="1" fill="#ffffff" /><circle cx="242" cy="278" r="1" fill="#ffffff" /><circle cx="54" cy="262" r="2" fill="#ffffff" /><circle cx="63" cy="452" r="3" fill="#ffffff" /><circle cx="19" cy="105" r="3" fill="#ffffff" /><circle cx="94" cy="328" r="3" fill="#ffffff" /><circle cx="386" cy="425" r="1" fill="#ffffff" /><circle cx="188" cy="353" r="3" fill="#ffffff" /><circle cx="180" cy="323" r="3" fill="#ffffff" /><circle cx="192" cy="290" r="2" fill="#ffffff" /><circle cx="251" cy="224" r="91" fill="#fa4111" /></svg>