<svg xmlns="http://www.w3.org/2000/svg" width="512" height="512" viewBox="0 0 512 512"><rect width="512" height="512" fill="#9b59b6" /><circle cx="26" cy="376" r="1" fill="#ffffff" /><circle cx="318" cy="496" r="2" fill="#ffffff" /><circle cx="131" cy="151" r="1" fill="#ffffff" /><circle cx="10" cy="77" r="1" fill="#ffffff" /><circle cx="433" cy="55" r="1" fill="#ffffff" /><circle cx="400" cy="335" r="1" fill="#ffffff" /><circle cx="136" cy="373" r="1" fill="#ffffff" /><circle cx="295" cy="234" r="3" fill="#ffffff" /><circle cx="414" cy="155" r="1" fill="#ffffff" /><circle cx="287" cy="17" r="2" fill="#ffffff" /><circle cx="398" cy="168" r="1" fill="#ffffff" /><circle cx="156" cy="124" r="2" fill="#ffffff" /><circle cx="373" cy="323" r="1" fill="#ffffff" /><circle cx="462" cy="222" r="1" fill="#ffffff" /><circle cx="479" cy="396" r="2" fill="#ffffff" /><circle cx="172" cy="365" r="2" fill="#ffffff" /><circle cx="281" cy="344" r="3" fill="#ffffff" /><circle cx="138" cy="77" r="1" fill="#ffffff" /><circle cx="477" cy="52" r="1" fill="#ffffff" /><circle cx="275" cy="259" r="1" fill="#ffffff" /><circle cx="201" cy="167" r="3" fill="#ffffff" /><circle cx="206" cy="158" r="2" fill="#ffffff" /><circle cx="310" cy="46" r="2" fill="#ffffff" /><circle cx="144" cy="292" r="3" fill="#ffffff" /><circle cx="141" cy="481" r="2" fill="#ffffff" /><circle cx="403" cy="320" r="1" fill="#ffffff" /><circle cx="297" cy="369" r="2" fill="#ffffff" /><circle cx="141" cy="31" r="1" fill="#ffffff" /><circle cx="131" cy="346" r="3" fill="#ffffff" /><circle cx="95" cy="106" r="2" fill="#ffffff" /><circle cx="193" cy="274" r="2" fill="#ffffff" /><circle cx="230" cy="111" r="2" fill="#ffffff" /><circle cx="36" cy="467" r="2" fill="#ffffff" /><circle cx="282" cy="357" r="1" fill="#ffffff" /><circle cx="394" cy="325" r="1" fill="#ffffff" /><circle cx="359" cy="179" r="2" fill="#ffffff" /><circle cx="214" cy="200" r="3" fill="#ffffff" /><circle cx="470" cy="54" r="2" fill="#ffffff" /><circle cx="20" cy="418" r="1" fill="#ffffff" /><circle cx="50" cy="330" r="2" fill="#ffffff" /><circle cx="58" cy="343" r="2" fill="#ffffff" /><circle cx="202" cy="128" r="2" fill="#ffffff" /><circle cx="359" cy="181" r="2" fill="#ffffff" /><circle cx="59" cy="225" r="2" fill="#ffffff" /><circle cx="48" cy="489" r="2" fill="#ffffff" /><circle cx="314" cy="499" r="3" fill="#ffffff" /><circle cx="441" cy="237" r="3" fill="#ffffff" /><circle cx="56" cy="409" r="3" fill="#ffffff" /><circle cx="36" cy="228" r="3" fill="#ffffff" /><circle cx="24" cy="253" r="3" fill="#ffffff" /><circle cx="207" cy="179" r="98" fill="#63d22a" /><ellipse cx="207" cy="179" rx="118" ry="32.666666666666664" fill="none" stroke="#ffffff" stroke-width="4" /></svg>