<svg xmlns="http://www.w3.org/2000/svg" width="512" height="512" viewBox="0 0 512 512"><rect width="512" height="512" fill="#34495e" /><circle cx="341" cy="131" r="3" fill="#ffffff" /><circle cx="151" cy="211" r="1" fill="#ffffff" /><circle cx="319" cy="33" r="1" fill="#ffffff" /><circle cx="419" cy="75" r="3" fill="#ffffff" /><circle cx="126" cy="207" r="3" fill="#ffffff" /><circle cx="456" cy="181" r="3" fill="#ffffff" /><circle cx="12" cy="304" r="3" fill="#ffffff" /><circle cx="372" cy="474" r="3" fill="#ffffff" /><circle cx="122" cy="120" r="1" fill="#ffffff" /><circle cx="496" cy="139" r="3" fill="#ffffff" /><circle cx="474" cy="427" r="3" fill="#ffffff" /><circle cx="422" cy="112" r="2" fill="#ffffff" /><circle cx="276" cy="24" r="1" fill="#ffffff" /><circle cx="484" cy="187" r="3" fill="#ffffff" /><circle cx="160" cy="67" r="1" fill="#ffffff" /><circle cx="270" cy="160" r="1" fill="#ffffff" /><circle cx="317" cy="61" r="3" fill="#ffffff" /><circle cx="486" cy="352" r="1" fill="#ffffff" /><circle cx="485" cy="258" r="3" fill="#ffffff" /><circle cx="303" cy="197" r="3" fill="#ffffff" /><circle cx="354" cy="224" r="3" fill="#ffffff" /><circle cx="98" cy="324" r="2" fill="#ffffff" /><circle cx="59" cy="74" r="2" fill="#ffffff" /><circle cx="280" cy="478" r="3" fill="#ffffff" /><circle cx="313" cy="282" r="3" fill="#ffffff" /><circle cx="208" cy="355" r="1" fill="#ffffff" /><circle cx="47" cy="374" r="2" fill="#ffffff" /><circle cx="53" cy="194" r="3" fill="#ffffff" /><circle cx="320" cy="245" r="1" fill="#ffffff" /><circle cx="185" cy="74" r="3" fill="#ffffff" /><circle cx="430" cy="142" r="1" fill="#ffffff" /><circle cx="221" cy="282" r="2" fill="#ffffff" /><circle cx="180" cy="373" r="3" fill="#ffffff" /><circle cx="73" cy="239" r="3" fill="#ffffff" /><circle cx="428" cy="272" r="1" fill="#ffffff" /><circle cx="445" cy="395" r="1" fill="#ffffff" /><circle cx="214" cy="397" r="2" fill="#ffffff" /><circle cx="309" cy="49" r="2" fill="#ffffff" /><circle cx="210" cy="226" r="3" fill="#ffffff" /><circle cx="407" cy="350" r="2" fill="#ffffff" /><circle cx="243" cy="40" r="1" fill="#ffffff" /><circle cx="210" cy="483" r="3" fill="#ffffff" /><circle cx="26" cy="52" r="1" fill="#ffffff" /><circle cx="221" cy="429" r="3" fill="#ffffff" /><circle cx="473" cy="343" r="2" fill="#ffffff" /><circle cx="90" cy="414" r="1" fill="#ffffff" /><circle cx="400" cy="276" r="2" fill="#ffffff" /><circle cx="278" cy="124" r="3" fill="#ffffff" /><circle cx="390" cy="463" r="2" fill="#ffffff" /><circle cx="16" cy="228" r="2" fill="#ffffff" /><circle cx="215" cy="158" r="86" fill="#9856c5" /><ellipse cx="215" cy="158" rx="106" ry="28.666666666666668" fill="none" stroke="#ffffff" stroke-width="4" /></svg>