<svg xmlns="http://www.w3.org/2000/svg" width="512" height="512" viewBox="0 0 512 512"><rect width="512" height="512" fill="#8e44ad" /><circle cx="481" cy="439" r="2" fill="#ffffff" /><circle cx="371" cy="253" r="3" fill="#ffffff" /><circle cx="164" cy="302" r="1" fill="#ffffff" /><circle cx="260" cy="241" r="3" fill="#ffffff" /><circle cx="72" cy="273" r="3" fill="#ffffff" /><circle cx="272" cy="142" r="2" fill="#ffffff" /><circle cx="391" cy="437" r="3" fill="#ffffff" /><circle cx="109" cy="314" r="2" fill="#ffffff" /><circle cx="305" cy="365" r="2" fill="#ffffff" /><circle cx="13" cy="43" r="3" fill="#ffffff" /><circle cx="103" cy="329" r="1" fill="#ffffff" /><circle cx="123" cy="409" r="1" fill="#ffffff" /><circle cx="471" cy="111" r="1" fill="#ffffff" /><circle cx="15" cy="278" r="1" fill="#ffffff" /><circle cx="258" cy="157" r="2" fill="#ffffff" /><circle cx="197" cy="268" r="2" fill="#ffffff" /><circle cx="145" cy="96" r="2" fill="#ffffff" /><circle cx="270" cy="359" r="3" fill="#ffffff" /><circle cx="290" cy="389" r="3" fill="#ffffff" /><circle cx="125" cy="217" r="3" fill="#ffffff" /><circle cx="480" cy="457" r="2" fill="#ffffff" /><circle cx="294" cy="359" r="3" fill="#ffffff" /><circle cx="267" cy="239" r="2" fill="#ffffff" /><circle cx="227" cy="100" r="3" fill="#ffffff" /><circle cx="461" cy="81" r="2" fill="#ffffff" /><circle cx="441" cy="486" r="3" fill="#ffffff" /><circle cx="211" cy="40" r="3" fill="#ffffff" /><circle cx="394" cy="133" r="3" fill="#ffffff" /><circle cx="212" cy="17" r="1" fill="#ffffff" /><circle cx="378" cy="454" r="3" fill="#ffffff" /><circle cx="309" cy="288" r="1" fill="#ffffff" /><circle cx="410" cy="389" r="2" fill="#ffffff" /><circle cx="251" cy="196" r="1" fill="#ffffff" /><circle cx="47" cy="399" r="3" fill="#ffffff" /><circle cx="470" cy="448" r="2" fill="#ffffff" /><circle cx="428" cy="76" r="1" fill="#ffffff" /><circle cx="456" cy="158" r="3" fill="#ffffff" /><circle cx="219" cy="244" r="3" fill="#ffffff" /><circle cx="89" cy="206" r="1" fill="#ffffff" /><circle cx="457" cy="464" r="2" fill="#ffffff" /><circle cx="193" cy="229" r="3" fill="#ffffff" /><circle cx="495" cy="253" r="2" fill="#ffffff" /><circle cx="111" cy="48" r="1" fill="#ffffff" /><circle cx="487" cy="107" r="3" fill="#ffffff" /><circle cx="261" cy="100" r="3" fill="#ffffff" /><circle cx="474" cy="316" r="1" fill="#ffffff" /><circle cx="185" cy="446" r="2" fill="#ffffff" /><circle cx="404" cy="291" r="2" fill="#ffffff" /><circle cx="282" cy="431" r="1" fill="#ffffff" /><circle cx="141" cy="195" r="1" fill="#ffffff" /><circle cx="263" cy="257" r="98" fill="#b2a47d" /></svg>