<svg xmlns="http://www.w3.org/2000/svg" width="512" height="512" viewBox="0 0 512 512"><rect width="512" height="512" fill="#8e44ad" /><circle cx="165" cy="222" r="2" fill="#ffffff" /><circle cx="239" cy="140" r="1" fill="#ffffff" /><circle cx="404" cy="57" r="1" fill="#ffffff" /><circle cx="85" cy="450" r="3" fill="#ffffff" /><circle cx="31" cy="156" r="1" fill="#ffffff" /><circle cx="53" cy="194" r="3" fill="#ffffff" /><circle cx="34" cy="233" r="2" fill="#ffffff" /><circle cx="418" cy="466" r="2" fill="#ffffff" /><circle cx="399" cy="92" r="2" fill="#ffffff" /><circle cx="15" cy="140" r="2" fill="#ffffff" /><circle cx="460" cy="126" r="3" fill="#ffffff" /><circle cx="418" cy="168" r="1" fill="#ffffff" /><circle cx="171" cy="204" r="2" fill="#ffffff" /><circle cx="325" cy="359" r="1" fill="#ffffff" /><circle cx="494" cy="220" r="1" fill="#ffffff" /><circle cx="279" cy="492" r="1" fill="#ffffff" /><circle cx="141" cy="491" r="3" fill="#ffffff" /><circle cx="194" cy="327" r="2" fill="#ffffff" /><circle cx="386" cy="117" r="3" fill="#ffffff" /><circle cx="266" cy="212" r="3" fill="#ffffff" /><circle cx="389" cy="282" r="2" fill="#ffffff" /><circle cx="32" cy="69" r="2" fill="#ffffff" /><circle cx="298" cy="36" r="3" fill="#ffffff" /><circle cx="320" cy="27" r="3" fill="#ffffff" /><circle cx="179" cy="44" r="3" fill="#ffffff" /><circle cx="179" cy="44" r="1" fill="#ffffff" /><circle cx="118" cy="125" r="3" fill="#ffffff" /><circle cx="359" cy="462" r="3" fill="#ffffff" /><circle cx="72" cy="20" r="3" fill="#ffffff" /><circle cx="234" cy="148" r="2" fill="#ffffff" /><circle cx="420" cy="65" r="3" fill="#ffffff" /><circle cx="42" cy="299" r="3" fill="#ffffff" /><circle cx="259" cy="52" r="2" fill="#ffffff" /><circle cx="408" cy="105" r="1" fill="#ffffff" /><circle cx="170" cy="147" r="3" fill="#ffffff" /><circle cx="23" cy="418" r="1" fill="#ffffff" /><circle cx="137" cy="295" r="2" fill="#ffffff" /><circle cx="26" cy="470" r="1" fill="#ffffff" /><circle cx="332" cy="123" r="1" fill="#ffffff" /><circle cx="451" cy="173" r="2" fill="#ffffff" /><circle cx="431" cy="360" r="3" fill="#ffffff" /><circle cx="185" cy="496" r="2" fill="#ffffff" /><circle cx="265" cy="406" r="2" fill="#ffffff" /><circle cx="476" cy="369" r="2" fill="#ffffff" /><circle cx="295" cy="366" r="1" fill="#ffffff" /><circle cx="194" cy="185" r="3" fill="#ffffff" /><circle cx="266" cy="87" r="1" fill="#ffffff" /><circle cx="479" cy="215" r="3" fill="#ffffff" /><circle cx="467" cy="295" r="3" fill="#ffffff" /><circle cx="256" cy="409" r="2" fill="#ffffff" /><circle cx="314" cy="181" r="100" fill="#42c16a" /><ellipse cx="314" cy="181" rx="120" ry="33.333333333333336" fill="none" stroke="#ffffff" stroke-width="4" /></svg>