<svg xmlns="http://www.w3.org/2000/svg" width="512" height="512" viewBox="0 0 512 512"><rect width="512" height="512" fill="#8e44ad" /><circle cx="135" cy="481" r="3" fill="#ffffff" /><circle cx="197" cy="348" r="1" fill="#ffffff" /><circle cx="113" cy="414" r="1" fill="#ffffff" /><circle cx="502" cy="493" r="2" fill="#ffffff" /><circle cx="182" cy="403" r="3" fill="#ffffff" /><circle cx="282" cy="131" r="1" fill="#ffffff" /><circle cx="463" cy="244" r="3" fill="#ffffff" /><circle cx="22" cy="43" r="3" fill="#ffffff" /><circle cx="406" cy="142" r="1" fill="#ffffff" /><circle cx="145" cy="276" r="2" fill="#ffffff" /><circle cx="215" cy="223" r="1" fill="#ffffff" /><circle cx="185" cy="314" r="3" fill="#ffffff" /><circle cx="454" cy="260" r="3" fill="#ffffff" /><circle cx="367" cy="448" r="1" fill="#ffffff" /><circle cx="417" cy="170" r="3" fill="#ffffff" /><circle cx="455" cy="72" r="1" fill="#ffffff" /><circle cx="431" cy="362" r="2" fill="#ffffff" /><circle cx="196" cy="70" r="1" fill="#ffffff" /><circle cx="465" cy="254" r="1" fill="#ffffff" /><circle cx="245" cy="230" r="3" fill="#ffffff" /><circle cx="273" cy="105" r="2" fill="#ffffff" /><circle cx="50" cy="20" r="1" fill="#ffffff" /><circle cx="290" cy="258" r="3" fill="#ffffff" /><circle cx="436" cy="411" r="2" fill="#ffffff" /><circle cx="196" cy="274" r="1" fill="#ffffff" /><circle cx="112" cy="397" r="1" fill="#ffffff" /><circle cx="205" cy="365" r="2" fill="#ffffff" /><circle cx="245" cy="27" r="3" fill="#ffffff" /><circle cx="91" cy="344" r="2" fill="#ffffff" /><circle cx="80" cy="416" r="2" fill="#ffffff" /><circle cx="370" cy="54" r="1" fill="#ffffff" /><circle cx="205" cy="501" r="1" fill="#ffffff" /><circle cx="119" cy="108" r="1" fill="#ffffff" /><circle cx="112" cy="493" r="3" fill="#ffffff" /><circle cx="94" cy="112" r="3" fill="#ffffff" /><circle cx="378" cy="385" r="2" fill="#ffffff" /><circle cx="173" cy="123" r="1" fill="#ffffff" /><circle cx="144" cy="455" r="1" fill="#ffffff" /><circle cx="332" cy="394" r="3" fill="#ffffff" /><circle cx="297" cy="232" r="1" fill="#ffffff" /><circle cx="71" cy="449" r="3" fill="#ffffff" /><circle cx="433" cy="340" r="2" fill="#ffffff" /><circle cx="317" cy="76" r="2" fill="#ffffff" /><circle cx="191" cy="229" r="1" fill="#ffffff" /><circle cx="47" cy="45" r="2" fill="#ffffff" /><circle cx="381" cy="317" r="1" fill="#ffffff" /><circle cx="213" cy="215" r="2" fill="#ffffff" /><circle cx="417" cy="411" r="2" fill="#ffffff" /><circle cx="228" cy="250" r="1" fill="#ffffff" /><circle cx="351" cy="348" r="1" fill="#ffffff" /><circle cx="205" cy="290" r="75" fill="#d71134" /></svg>