<svg xmlns="http://www.w3.org/2000/svg" width="512" height="512" viewBox="0 0 512 512"><rect width="512" height="512" fill="#8e44ad" /><circle cx="383" cy="10" r="1" fill="#ffffff" /><circle cx="368" cy="444" r="1" fill="#ffffff" /><circle cx="365" cy="426" r="1" fill="#ffffff" /><circle cx="147" cy="96" r="1" fill="#ffffff" /><circle cx="145" cy="200" r="3" fill="#ffffff" /><circle cx="92" cy="268" r="3" fill="#ffffff" /><circle cx="96" cy="53" r="1" fill="#ffffff" /><circle cx="407" cy="488" r="1" fill="#ffffff" /><circle cx="107" cy="400" r="2" fill="#ffffff" /><circle cx="405" cy="354" r="1" fill="#ffffff" /><circle cx="238" cy="390" r="2" fill="#ffffff" /><circle cx="345" cy="241" r="2" fill="#ffffff" /><circle cx="315" cy="176" r="1" fill="#ffffff" /><circle cx="160" cy="288" r="1" fill="#ffffff" /><circle cx="424" cy="184" r="1" fill="#ffffff" /><circle cx="458" cy="215" r="2" fill="#ffffff" /><circle cx="360" cy="183" r="3" fill="#ffffff" /><circle cx="39" cy="139" r="2" fill="#ffffff" /><circle cx="166" cy="24" r="2" fill="#ffffff" /><circle cx="416" cy="175" r="2" fill="#ffffff" /><circle cx="471" cy="424" r="1" fill="#ffffff" /><circle cx="187" cy="422" r="1" fill="#ffffff" /><circle cx="238" cy="325" r="3" fill="#ffffff" /><circle cx="287" cy="68" r="3" fill="#ffffff" /><circle cx="114" cy="243" r="3" fill="#ffffff" /><circle cx="486" cy="248" r="1" fill="#ffffff" /><circle cx="149" cy="327" r="3" fill="#ffffff" /><circle cx="71" cy="303" r="1" fill="#ffffff" /><circle cx="124" cy="211" r="1" fill="#ffffff" /><circle cx="398" cy="355" r="2" fill="#ffffff" /><circle cx="423" cy="94" r="2" fill="#ffffff" /><circle cx="398" cy="300" r="1" fill="#ffffff" /><circle cx="481" cy="85" r="1" fill="#ffffff" /><circle cx="138" cy="204" r="1" fill="#ffffff" /><circle cx="10" cy="30" r="1" fill="#ffffff" /><circle cx="59" cy="122" r="1" fill="#ffffff" /><circle cx="286" cy="22" r="2" fill="#ffffff" /><circle cx="197" cy="242" r="3" fill="#ffffff" /><circle cx="229" cy="79" r="1" fill="#ffffff" /><circle cx="366" cy="165" r="1" fill="#ffffff" /><circle cx="16" cy="369" r="3" fill="#ffffff" /><circle cx="178" cy="60" r="3" fill="#ffffff" /><circle cx="103" cy="99" r="1" fill="#ffffff" /><circle cx="477" cy="279" r="2" fill="#ffffff" /><circle cx="324" cy="210" r="2" fill="#ffffff" /><circle cx="306" cy="479" r="3" fill="#ffffff" /><circle cx="353" cy="428" r="2" fill="#ffffff" /><circle cx="136" cy="479" r="1" fill="#ffffff" /><circle cx="418" cy="175" r="3" fill="#ffffff" /><circle cx="483" cy="67" r="3" fill="#ffffff" /><circle cx="193" cy="295" r="62" fill="#2ab888" /></svg>