<svg xmlns="http://www.w3.org/2000/svg" width="512" height="512" viewBox="0 0 512 512"><rect width="512" height="512" fill="#9b59b6" /><circle cx="460" cy="422" r="2" fill="#ffffff" /><circle cx="374" cy="328" r="1" fill="#ffffff" /><circle cx="310" cy="366" r="3" fill="#ffffff" /><circle cx="395" cy="106" r="1" fill="#ffffff" /><circle cx="267" cy="274" r="2" fill="#ffffff" /><circle cx="271" cy="21" r="1" fill="#ffffff" /><circle cx="373" cy="336" r="3" fill="#ffffff" /><circle cx="91" cy="190" r="3" fill="#ffffff" /><circle cx="301" cy="225" r="1" fill="#ffffff" /><circle cx="357" cy="123" r="2" fill="#ffffff" /><circle cx="479" cy="366" r="3" fill="#ffffff" /><circle cx="456" cy="469" r="1" fill="#ffffff" /><circle cx="81" cy="304" r="2" fill="#ffffff" /><circle cx="48" cy="133" r="2" fill="#ffffff" /><circle cx="366" cy="480" r="2" fill="#ffffff" /><circle cx="187" cy="270" r="2" fill="#ffffff" /><circle cx="194" cy="137" r="3" fill="#ffffff" /><circle cx="285" cy="217" r="3" fill="#ffffff" /><circle cx="291" cy="296" r="3" fill="#ffffff" /><circle cx="186" cy="60" r="3" fill="#ffffff" /><circle cx="244" cy="269" r="3" fill="#ffffff" /><circle cx="291" cy="116" r="3" fill="#ffffff" /><circle cx="194" cy="195" r="2" fill="#ffffff" /><circle cx="325" cy="162" r="2" fill="#ffffff" /><circle cx="358" cy="329" r="1" fill="#ffffff" /><circle cx="295" cy="461" r="1" fill="#ffffff" /><circle cx="129" cy="187" r="1" fill="#ffffff" /><circle cx="102" cy="216" r="3" fill="#ffffff" /><circle cx="431" cy="43" r="1" fill="#ffffff" /><circle cx="301" cy="41" r="2" fill="#ffffff" /><circle cx="265" cy="63" r="3" fill="#ffffff" /><circle cx="242" cy="238" r="3" fill="#ffffff" /><circle cx="308" cy="142" r="2" fill="#ffffff" /><circle cx="487" cy="153" r="3" fill="#ffffff" /><circle cx="60" cy="235" r="1" fill="#ffffff" /><circle cx="215" cy="405" r="2" fill="#ffffff" /><circle cx="40" cy="326" r="2" fill="#ffffff" /><circle cx="412" cy="262" r="3" fill="#ffffff" /><circle cx="486" cy="81" r="2" fill="#ffffff" /><circle cx="47" cy="259" r="2" fill="#ffffff" /><circle cx="143" cy="439" r="1" fill="#ffffff" /><circle cx="365" cy="448" r="1" fill="#ffffff" /><circle cx="237" cy="332" r="3" fill="#ffffff" /><circle cx="172" cy="30" r="1" fill="#ffffff" /><circle cx="393" cy="176" r="1" fill="#ffffff" /><circle cx="54" cy="448" r="3" fill="#ffffff" /><circle cx="188" cy="251" r="2" fill="#ffffff" /><circle cx="322" cy="300" r="3" fill="#ffffff" /><circle cx="105" cy="334" r="3" fill="#ffffff" /><circle cx="271" cy="199" r="3" fill="#ffffff" /><circle cx="331" cy="187" r="92" fill="#a54f21" /><ellipse cx="331" cy="187" rx="112" ry="30.666666666666668" fill="none" stroke="#ffffff" stroke-width="4" /></svg>