<svg xmlns="http://www.w3.org/2000/svg" width="512" height="512" viewBox="0 0 512 512"><rect width="512" height="512" fill="#0C0C0C" /><path d="M 216.68478315582274,263.3697845623411 A 40,40 0 0 1 293.8982638176059,268.7953741489316 M 288.7262605613951,278.999823252966 A 40,40 0 0 1 252.67305912656295,216.13859680813215 M 258.94850943981675,216.10881936964876 A 40,40 0 1 1 236.12472804547951,290.7127291455721" fill="none" stroke="#00FF41" stroke-width="3" opacity="0.5" /><path d="M 209.96867156711778,294.48528033812573 A 60,60 0 1 1 272.0600058042784,313.8106928999" fill="none" stroke="#00FF41" stroke-width="3" opacity="0.55" /><path d="M 248.2294298222559,335.62171964428273 A 80,80 0 0 1 183.5283133575754,222.1199965288931 M 192.991633925606,206.70551953174518 A 80,80 0 1 1 332.4210028857457,279.66073367283536" fill="none" stroke="#00FF41" stroke-width="3" opacity="0.6" /><path d="M 194.89083295681004,335.15598337009976 A 100,100 0 1 1 305.1926279580098,343.06368562486216" fill="none" stroke="#00FF41" stroke-width="3" opacity="0.65" /><path d="M 363.1096351837878,201.89338256002432 A 120,120 0 0 1 375.23322848933077,242.45610011809595 M 375.981910506913,258.0835429227931 A 120,120 0 1 1 271.107646992748,136.95480269098417" fill="none" stroke="#00FF41" stroke-width="3" opacity="0.7" /><path d="M 388.046159479404,209.48320984053396 A 140,140 0 0 1 125.695980833021,204.80563909050562 M 138.42502638526105,179.99917382361272 A 140,140 0 0 1 372.4943468114149,333.64706794838935 M 359.02063039589046,350.7984689371792 A 140,140 0 1 1 378.3651213439352,187.97958337025557" fill="none" stroke="#00FF41" stroke-width="3" opacity="0.75" /><path d="M 338.0181507941603,393.37912119498503 A 160,160 0 1 1 415.4463012592481,269.2995118235631" fill="none" stroke="#00FF41" stroke-width="3" opacity="0.8" /><path d="M 312.8439886337462,426.7886441078754 A 180,180 0 0 1 253.25540380205643,435.9790743161833 M 203.9721903221077,428.3168796726572 A 180,180 0 0 1 170.66233267614052,97.5150400330609 M 198.07538936983508,85.57482731901433 A 180,180 0 1 1 432.59562115391543,290.8423103318765" fill="none" stroke="#00FF41" stroke-width="3" opacity="0.8500000000000001" /></svg>