<svg xmlns="http://www.w3.org/2000/svg" width="512" height="512" viewBox="0 0 512 512"><rect width="512" height="512" fill="#1A1A1A" /><path d="M 283.21176288296624,226.68242914562632 A 40,40 0 1 1 262.08978271152284,216.46628595076808" fill="none" stroke="#00FF41" stroke-width="3" opacity="0.5" /><path d="M 256.8652541421529,315.99376080284924 A 60,60 0 0 1 200.70408879095075,279.2886711420154 M 198.5385982305465,273.268100841999 A 60,60 0 1 1 312.0999038036782,277.2791163636568" fill="none" stroke="#00FF41" stroke-width="3" opacity="0.55" /><path d="M 335.97302690362795,253.92274992559823 A 80,80 0 0 1 224.61137417490684,182.4149867920628 M 232.17703274476122,179.62941514460022 A 80,80 0 1 1 257.06011169972913,176.0070242884783" fill="none" stroke="#00FF41" stroke-width="3" opacity="0.6" /><path d="M 354.9340941443646,241.43823445340527 A 100,100 0 0 1 278.15255817676297,158.48454396237932 M 300.93778522549354,166.6658214397904 A 100,100 0 0 1 164.362104078495,296.0311882296719 M 158.980466053222,280.2324169811843 A 100,100 0 1 1 342.4764961009204,205.7823176350451" fill="none" stroke="#00FF41" stroke-width="3" opacity="0.65" /><path d="M 211.41972115648684,144.5881571006268 A 120,120 0 0 1 212.24749139043166,144.26049046836815 M 240.16233874171272,137.04972263223704 A 120,120 0 0 1 375.9679271513468,253.22575145144899 M 373.04304791689714,282.4749869560482 A 120,120 0 0 1 375.9746727254313,258.46534063075535 M 374.1228393181808,277.14225227858293 A 120,120 0 1 1 140.7361275718156,289.3802293709799" fill="none" stroke="#00FF41" stroke-width="3" opacity="0.7" /><path d="M 128.0940094697399,199.07849627361367 A 140,140 0 0 1 118.20337944591981,231.25951973233256 M 121.89282657874332,215.80962755881723 A 140,140 0 1 1 124.90647368374684,206.86256663225237" fill="none" stroke="#00FF41" stroke-width="3" opacity="0.75" /><path d="M 133.82360848884167,152.69012942940952 A 160,160 0 1 1 96.0032366726989,257.01770564879683" fill="none" stroke="#00FF41" stroke-width="3" opacity="0.8" /><path d="M 179.8559207496125,419.1014383600301 A 180,180 0 1 1 356.4166582979285,405.3870634836801" fill="none" stroke="#00FF41" stroke-width="3" opacity="0.8500000000000001" /></svg>