<svg xmlns="http://www.w3.org/2000/svg" width="512" height="512" viewBox="0 0 512 512"><rect width="512" height="512" fill="#0C0C0C" /><g fill="#00FF41" font-family="monospace" font-size="14"><text x="18.285714285714285" y="0" opacity="1.0">^</text><text x="18.285714285714285" y="20" opacity="0.9666666666666667">@</text><text x="18.285714285714285" y="40" opacity="0.9333333333333333">*</text><text x="18.285714285714285" y="60" opacity="0.9">8</text><text x="18.285714285714285" y="80" opacity="0.8666666666666667">E</text><text x="18.285714285714285" y="100" opacity="0.8333333333333334">6</text><text x="18.285714285714285" y="120" opacity="0.8">3</text><text x="18.285714285714285" y="140" opacity="0.7666666666666666">^</text><text x="18.285714285714285" y="160" opacity="0.7333333333333334">)</text><text x="18.285714285714285" y="180" opacity="0.7">$</text><text x="18.285714285714285" y="200" opacity="0.6666666666666667">2</text><text x="18.285714285714285" y="220" opacity="0.6333333333333333">)</text><text x="18.285714285714285" y="240" opacity="0.6">(</text><text x="18.285714285714285" y="260" opacity="0.5666666666666667">B</text><text x="18.285714285714285" y="280" opacity="0.5333333333333333">2</text><text x="18.285714285714285" y="300" opacity="0.5">&amp;</text><text x="18.285714285714285" y="320" opacity="0.4666666666666667">(</text><text x="18.285714285714285" y="340" opacity="0.43333333333333335">D</text><text x="18.285714285714285" y="360" opacity="0.4">%</text><text x="18.285714285714285" y="380" opacity="0.3666666666666667">6</text><text x="18.285714285714285" y="400" opacity="0.33333333333333337">F</text><text x="18.285714285714285" y="420" opacity="0.30000000000000004">B</text><text x="18.285714285714285" y="440" opacity="0.2666666666666667">5</text><text x="18.285714285714285" y="460" opacity="0.23333333333333328">7</text><text x="18.285714285714285" y="480" opacity="0.19999999999999996">1</text><text x="18.285714285714285" y="500" opacity="0.16666666666666663">)</text><text x="18.285714285714285" y="8" opacity="0.1333333333333333">$</text><text x="18.285714285714285" y="28" opacity="0.09999999999999998">E</text><text x="18.285714285714285" y="48" opacity="0.06666666666666665">%</text><text x="18.285714285714285" y="68" opacity="0.033333333333333326">@</text><text x="54.857142857142854" y="0" opacity="1.0">@</text><text x="54.857142857142854" y="20" opacity="0.9615384615384616">%</text><text x="54.857142857142854" y="40" opacity="0.9230769230769231">F</text><text x="54.857142857142854" y="60" opacity="0.8846153846153846">2</text><text x="54.857142857142854" y="80" opacity="0.8461538461538461">$</text><text x="54.857142857142854" y="100" opacity="0.8076923076923077">D</text><text x="54.857142857142854" y="120" opacity="0.7692307692307692">#</text><text x="54.857142857142854" y="140" opacity="0.7307692307692308">%</text><text x="54.857142857142854" y="160" opacity="0.6923076923076923">C</text><text x="54.857142857142854" y="180" opacity="0.6538461538461539">A</text><text x="54.857142857142854" y="200" opacity="0.6153846153846154">0</text><text x="54.857142857142854" y="220" opacity="0.5769230769230769">&amp;</text><text x="54.857142857142854" y="240" opacity="0.5384615384615384">E</text><text x="54.857142857142854" y="260" opacity="0.5">@</text><text x="54.857142857142854" y="280" opacity="0.46153846153846156">(</text><text x="54.857142857142854" y="300" opacity="0.42307692307692313">#</text><text x="54.857142857142854" y="320" opacity="0.3846153846153846">B</text><text x="54.857142857142854" y="340" opacity="0.34615384615384615">$</text><text x="54.857142857142854" y="360" opacity="0.3076923076923077">^</text><text x="54.857142857142854" y="380" opacity="0.2692307692307693">F</text><text x="54.857142857142854" y="400" opacity="0.23076923076923073">@</text><text x="54.857142857142854" y="420" opacity="0.1923076923076923">E</text><text x="54.857142857142854" y="440" opacity="0.15384615384615385">C</text><text x="54.857142857142854" y="460" opacity="0.11538461538461542">A</text><text x="54.857142857142854" y="480" opacity="0.07692307692307687">(</text><text x="54.857142857142854" y="500" opacity="0.038461538461538436">*</text><text x="91.42857142857142" y="0" opacity="1.0">0</text><text x="91.42857142857142" y="20" opacity="0.9333333333333333">&amp;</text><text x="91.42857142857142" y="40" opacity="0.8666666666666667">A</text><text x="91.42857142857142" y="60" opacity="0.8">A</text><text x="91.42857142857142" y="80" opacity="0.7333333333333334">%</text><text x="91.42857142857142" y="100" opacity="0.6666666666666667">*</text><text x="91.42857142857142" y="120" opacity="0.6">$</text><text x="91.42857142857142" y="140" opacity="0.5333333333333333">B</text><text x="91.42857142857142" y="160" opacity="0.4666666666666667">)</text><text x="91.42857142857142" y="180" opacity="0.4">&amp;</text><text x="91.42857142857142" y="200" opacity="0.33333333333333337">9</text><text x="91.42857142857142" y="220" opacity="0.2666666666666667">C</text><text x="91.42857142857142" y="240" opacity="0.19999999999999996">C</text><text x="91.42857142857142" y="260" opacity="0.1333333333333333">7</text><text x="91.42857142857142" y="280" opacity="0.06666666666666665">A</text><text x="128.0" y="0" opacity="1.0">7</text><text x="128.0" y="20" opacity="0.9230769230769231">$</text><text x="128.0" y="40" opacity="0.8461538461538461">*</text><text x="128.0" y="60" opacity="0.7692307692307692">@</text><text x="128.0" y="80" opacity="0.6923076923076923">@</text><text x="128.0" y="100" opacity="0.6153846153846154">)</text><text x="128.0" y="120" opacity="0.5384615384615384">)</text><text x="128.0" y="140" opacity="0.46153846153846156">*</text><text x="128.0" y="160" opacity="0.3846153846153846">D</text><text x="128.0" y="180" opacity="0.3076923076923077">%</text><text x="128.0" y="200" opacity="0.23076923076923073">1</text><text x="128.0" y="220" opacity="0.15384615384615385">@</text><text x="128.0" y="240" opacity="0.07692307692307687">C</text><text x="164.57142857142856" y="0" opacity="1.0">0</text><text x="164.57142857142856" y="20" opacity="0.9655172413793104">8</text><text x="164.57142857142856" y="40" opacity="0.9310344827586207">C</text><text x="164.57142857142856" y="60" opacity="0.896551724137931">%</text><text x="164.57142857142856" y="80" opacity="0.8620689655172413">B</text><text x="164.57142857142856" y="100" opacity="0.8275862068965517">%</text><text x="164.57142857142856" y="120" opacity="0.7931034482758621">(</text><text x="164.57142857142856" y="140" opacity="0.7586206896551724">7</text><text x="164.57142857142856" y="160" opacity="0.7241379310344828">7</text><text x="164.57142857142856" y="180" opacity="0.6896551724137931">%</text><text x="164.57142857142856" y="200" opacity="0.6551724137931034">9</text><text x="164.57142857142856" y="220" opacity="0.6206896551724138">7</text><text x="164.57142857142856" y="240" opacity="0.5862068965517242">5</text><text x="164.57142857142856" y="260" opacity="0.5517241379310345">8</text><text x="164.57142857142856" y="280" opacity="0.5172413793103448">%</text><text x="164.57142857142856" y="300" opacity="0.48275862068965514">(</text><text x="164.57142857142856" y="320" opacity="0.4482758620689655">%</text><text x="164.57142857142856" y="340" opacity="0.4137931034482759">$</text><text x="164.57142857142856" y="360" opacity="0.3793103448275862">A</text><text x="164.57142857142856" y="380" opacity="0.3448275862068966">D</text><text x="164.57142857142856" y="400" opacity="0.31034482758620685">D</text><text x="164.57142857142856" y="420" opacity="0.27586206896551724">#</text><text x="164.57142857142856" y="440" opacity="0.24137931034482762">C</text><text x="164.57142857142856" y="460" opacity="0.2068965517241379">1</text><text x="164.57142857142856" y="480" opacity="0.1724137931034483">&amp;</text><text x="164.57142857142856" y="500" opacity="0.13793103448275867">9</text><text x="164.57142857142856" y="8" opacity="0.10344827586206895">C</text><text x="164.57142857142856" y="28" opacity="0.06896551724137934">$</text><text x="164.57142857142856" y="48" opacity="0.03448275862068961">(</text><text x="201.1428571428571" y="0" opacity="1.0">7</text><text x="201.1428571428571" y="20" opacity="0.9333333333333333">$</text><text x="201.1428571428571" y="40" opacity="0.8666666666666667">6</text><text x="201.1428571428571" y="60" opacity="0.8">4</text><text x="201.1428571428571" y="80" opacity="0.7333333333333334">6</text><text x="201.1428571428571" y="100" opacity="0.6666666666666667">%</text><text x="201.1428571428571" y="120" opacity="0.6">%</text><text x="201.1428571428571" y="140" opacity="0.5333333333333333">2</text><text x="201.1428571428571" y="160" opacity="0.4666666666666667">4</text><text x="201.1428571428571" y="180" opacity="0.4">%</text><text x="201.1428571428571" y="200" opacity="0.33333333333333337">E</text><text x="201.1428571428571" y="220" opacity="0.2666666666666667">F</text><text x="201.1428571428571" y="240" opacity="0.19999999999999996">)</text><text x="201.1428571428571" y="260" opacity="0.1333333333333333">$</text><text x="201.1428571428571" y="280" opacity="0.06666666666666665">3</text><text x="237.7142857142857" y="0" opacity="1.0">^</text><text x="237.7142857142857" y="20" opacity="0.96">C</text><text x="237.7142857142857" y="40" opacity="0.92">(</text><text x="237.7142857142857" y="60" opacity="0.88">E</text><text x="237.7142857142857" y="80" opacity="0.84">0</text><text x="237.7142857142857" y="100" opacity="0.8">C</text><text x="237.7142857142857" y="120" opacity="0.76">8</text><text x="237.7142857142857" y="140" opacity="0.72">A</text><text x="237.7142857142857" y="160" opacity="0.6799999999999999">*</text><text x="237.7142857142857" y="180" opacity="0.64">)</text><text x="237.7142857142857" y="200" opacity="0.6">4</text><text x="237.7142857142857" y="220" opacity="0.56">&amp;</text><text x="237.7142857142857" y="240" opacity="0.52">*</text><text x="237.7142857142857" y="260" opacity="0.48">9</text><text x="237.7142857142857" y="280" opacity="0.43999999999999995">0</text><text x="237.7142857142857" y="300" opacity="0.4">A</text><text x="237.7142857142857" y="320" opacity="0.36">$</text><text x="237.7142857142857" y="340" opacity="0.31999999999999995">2</text><text x="237.7142857142857" y="360" opacity="0.28">0</text><text x="237.7142857142857" y="380" opacity="0.24">)</text><text x="237.7142857142857" y="400" opacity="0.19999999999999996">^</text><text x="237.7142857142857" y="420" opacity="0.16000000000000003">*</text><text x="237.7142857142857" y="440" opacity="0.12">C</text><text x="237.7142857142857" y="460" opacity="0.07999999999999996">B</text><text x="237.7142857142857" y="480" opacity="0.040000000000000036">@</text><text x="274.2857142857143" y="0" opacity="1.0">8</text><text x="274.2857142857143" y="20" opacity="0.9642857142857143">7</text><text x="274.2857142857143" y="40" opacity="0.9285714285714286">)</text><text x="274.2857142857143" y="60" opacity="0.8928571428571429">6</text><text x="274.2857142857143" y="80" opacity="0.8571428571428572">%</text><text x="274.2857142857143" y="100" opacity="0.8214285714285714">4</text><text x="274.2857142857143" y="120" opacity="0.7857142857142857">^</text><text x="274.2857142857143" y="140" opacity="0.75">B</text><text x="274.2857142857143" y="160" opacity="0.7142857142857143">B</text><text x="274.2857142857143" y="180" opacity="0.6785714285714286">1</text><text x="274.2857142857143" y="200" opacity="0.6428571428571428">@</text><text x="274.2857142857143" y="220" opacity="0.6071428571428572">B</text><text x="274.2857142857143" y="240" opacity="0.5714285714285714">F</text><text x="274.2857142857143" y="260" opacity="0.5357142857142857">$</text><text x="274.2857142857143" y="280" opacity="0.5">B</text><text x="274.2857142857143" y="300" opacity="0.4642857142857143">6</text><text x="274.2857142857143" y="320" opacity="0.4285714285714286">$</text><text x="274.2857142857143" y="340" opacity="0.3928571428571429">1</text><text x="274.2857142857143" y="360" opacity="0.3571428571428571">&amp;</text><text x="274.2857142857143" y="380" opacity="0.3214285714285714">E</text><text x="274.2857142857143" y="400" opacity="0.2857142857142857">1</text><text x="274.2857142857143" y="420" opacity="0.25">A</text><text x="274.2857142857143" y="440" opacity="0.2142857142857143">(</text><text x="274.2857142857143" y="460" opacity="0.1785714285714286">F</text><text x="274.2857142857143" y="480" opacity="0.1428571428571429">2</text><text x="274.2857142857143" y="500" opacity="0.1071428571428571">1</text><text x="274.2857142857143" y="8" opacity="0.0714285714285714">5</text><text x="274.2857142857143" y="28" opacity="0.0357142857142857">9</text><text x="310.85714285714283" y="0" opacity="1.0">3</text><text x="310.85714285714283" y="20" opacity="0.962962962962963">)</text><text x="310.85714285714283" y="40" opacity="0.9259259259259259">A</text><text x="310.85714285714283" y="60" opacity="0.8888888888888888">7</text><text x="310.85714285714283" y="80" opacity="0.8518518518518519">4</text><text x="310.85714285714283" y="100" opacity="0.8148148148148149">C</text><text x="310.85714285714283" y="120" opacity="0.7777777777777778">6</text><text x="310.85714285714283" y="140" opacity="0.7407407407407407">9</text><text x="310.85714285714283" y="160" opacity="0.7037037037037037">&amp;</text><text x="310.85714285714283" y="180" opacity="0.6666666666666667">F</text><text x="310.85714285714283" y="200" opacity="0.6296296296296297">4</text><text x="310.85714285714283" y="220" opacity="0.5925925925925926">@</text><text x="310.85714285714283" y="240" opacity="0.5555555555555556">2</text><text x="310.85714285714283" y="260" opacity="0.5185185185185186">1</text><text x="310.85714285714283" y="280" opacity="0.4814814814814815">*</text><text x="310.85714285714283" y="300" opacity="0.4444444444444444">D</text><text x="310.85714285714283" y="320" opacity="0.40740740740740744">^</text><text x="310.85714285714283" y="340" opacity="0.37037037037037035">@</text><text x="310.85714285714283" y="360" opacity="0.33333333333333337">7</text><text x="310.85714285714283" y="380" opacity="0.2962962962962963">#</text><text x="310.85714285714283" y="400" opacity="0.2592592592592593">^</text><text x="310.85714285714283" y="420" opacity="0.2222222222222222">@</text><text x="310.85714285714283" y="440" opacity="0.18518518518518523">F</text><text x="310.85714285714283" y="460" opacity="0.14814814814814814">1</text><text x="310.85714285714283" y="480" opacity="0.11111111111111116">8</text><text x="310.85714285714283" y="500" opacity="0.07407407407407407">@</text><text x="310.85714285714283" y="8" opacity="0.03703703703703709">F</text><text x="347.4285714285714" y="0" opacity="1.0">B</text><text x="347.4285714285714" y="20" opacity="0.9411764705882353">(</text><text x="347.4285714285714" y="40" opacity="0.8823529411764706">8</text><text x="347.4285714285714" y="60" opacity="0.8235294117647058">(</text><text x="347.4285714285714" y="80" opacity="0.7647058823529411">8</text><text x="347.4285714285714" y="100" opacity="0.7058823529411764">8</text><text x="347.4285714285714" y="120" opacity="0.6470588235294117">3</text><text x="347.4285714285714" y="140" opacity="0.5882352941176471">B</text><text x="347.4285714285714" y="160" opacity="0.5294117647058824">D</text><text x="347.4285714285714" y="180" opacity="0.47058823529411764">0</text><text x="347.4285714285714" y="200" opacity="0.4117647058823529">2</text><text x="347.4285714285714" y="220" opacity="0.3529411764705882">0</text><text x="347.4285714285714" y="240" opacity="0.2941176470588235">4</text><text x="347.4285714285714" y="260" opacity="0.23529411764705888">3</text><text x="347.4285714285714" y="280" opacity="0.17647058823529416">8</text><text x="347.4285714285714" y="300" opacity="0.11764705882352944">5</text><text x="347.4285714285714" y="320" opacity="0.05882352941176472">@</text><text x="383.99999999999994" y="0" opacity="1.0">F</text><text x="383.99999999999994" y="20" opacity="0.9583333333333334">C</text><text x="383.99999999999994" y="40" opacity="0.9166666666666666">F</text><text x="383.99999999999994" y="60" opacity="0.875">@</text><text x="383.99999999999994" y="80" opacity="0.8333333333333334">2</text><text x="383.99999999999994" y="100" opacity="0.7916666666666666">$</text><text x="383.99999999999994" y="120" opacity="0.75">(</text><text x="383.99999999999994" y="140" opacity="0.7083333333333333">1</text><text x="383.99999999999994" y="160" opacity="0.6666666666666667">@</text><text x="383.99999999999994" y="180" opacity="0.625">%</text><text x="383.99999999999994" y="200" opacity="0.5833333333333333">7</text><text x="383.99999999999994" y="220" opacity="0.5416666666666667">6</text><text x="383.99999999999994" y="240" opacity="0.5">4</text><text x="383.99999999999994" y="260" opacity="0.45833333333333337">1</text><text x="383.99999999999994" y="280" opacity="0.41666666666666663">2</text><text x="383.99999999999994" y="300" opacity="0.375">E</text><text x="383.99999999999994" y="320" opacity="0.33333333333333337">C</text><text x="383.99999999999994" y="340" opacity="0.29166666666666663">6</text><text x="383.99999999999994" y="360" opacity="0.25">^</text><text x="383.99999999999994" y="380" opacity="0.20833333333333337">1</text><text x="383.99999999999994" y="400" opacity="0.16666666666666663">B</text><text x="383.99999999999994" y="420" opacity="0.125">)</text><text x="383.99999999999994" y="440" opacity="0.08333333333333337">)</text><text x="383.99999999999994" y="460" opacity="0.04166666666666663">8</text><text x="420.57142857142856" y="0" opacity="1.0">^</text><text x="420.57142857142856" y="20" opacity="0.9583333333333334">6</text><text x="420.57142857142856" y="40" opacity="0.9166666666666666">1</text><text x="420.57142857142856" y="60" opacity="0.875">(</text><text x="420.57142857142856" y="80" opacity="0.8333333333333334">#</text><text x="420.57142857142856" y="100" opacity="0.7916666666666666">8</text><text x="420.57142857142856" y="120" opacity="0.75">#</text><text x="420.57142857142856" y="140" opacity="0.7083333333333333">F</text><text x="420.57142857142856" y="160" opacity="0.6666666666666667">6</text><text x="420.57142857142856" y="180" opacity="0.625">F</text><text x="420.57142857142856" y="200" opacity="0.5833333333333333">B</text><text x="420.57142857142856" y="220" opacity="0.5416666666666667">5</text><text x="420.57142857142856" y="240" opacity="0.5">A</text><text x="420.57142857142856" y="260" opacity="0.45833333333333337">%</text><text x="420.57142857142856" y="280" opacity="0.41666666666666663">0</text><text x="420.57142857142856" y="300" opacity="0.375">E</text><text x="420.57142857142856" y="320" opacity="0.33333333333333337">#</text><text x="420.57142857142856" y="340" opacity="0.29166666666666663">$</text><text x="420.57142857142856" y="360" opacity="0.25">4</text><text x="420.57142857142856" y="380" opacity="0.20833333333333337">9</text><text x="420.57142857142856" y="400" opacity="0.16666666666666663">5</text><text x="420.57142857142856" y="420" opacity="0.125">&amp;</text><text x="420.57142857142856" y="440" opacity="0.08333333333333337">5</text><text x="420.57142857142856" y="460" opacity="0.04166666666666663">6</text><text x="457.1428571428571" y="0" opacity="1.0">5</text><text x="457.1428571428571" y="20" opacity="0.9583333333333334">7</text><text x="457.1428571428571" y="40" opacity="0.9166666666666666">6</text><text x="457.1428571428571" y="60" opacity="0.875">)</text><text x="457.1428571428571" y="80" opacity="0.8333333333333334">1</text><text x="457.1428571428571" y="100" opacity="0.7916666666666666">^</text><text x="457.1428571428571" y="120" opacity="0.75">B</text><text x="457.1428571428571" y="140" opacity="0.7083333333333333">C</text><text x="457.1428571428571" y="160" opacity="0.6666666666666667">$</text><text x="457.1428571428571" y="180" opacity="0.625">(</text><text x="457.1428571428571" y="200" opacity="0.5833333333333333">9</text><text x="457.1428571428571" y="220" opacity="0.5416666666666667">)</text><text x="457.1428571428571" y="240" opacity="0.5">F</text><text x="457.1428571428571" y="260" opacity="0.45833333333333337">A</text><text x="457.1428571428571" y="280" opacity="0.41666666666666663">F</text><text x="457.1428571428571" y="300" opacity="0.375">$</text><text x="457.1428571428571" y="320" opacity="0.33333333333333337">D</text><text x="457.1428571428571" y="340" opacity="0.29166666666666663">)</text><text x="457.1428571428571" y="360" opacity="0.25">$</text><text x="457.1428571428571" y="380" opacity="0.20833333333333337">B</text><text x="457.1428571428571" y="400" opacity="0.16666666666666663">E</text><text x="457.1428571428571" y="420" opacity="0.125">&amp;</text><text x="457.1428571428571" y="440" opacity="0.08333333333333337">*</text><text x="457.1428571428571" y="460" opacity="0.04166666666666663">9</text><text x="493.71428571428567" y="0" opacity="1.0">&amp;</text><text x="493.71428571428567" y="20" opacity="0.95">6</text><text x="493.71428571428567" y="40" opacity="0.9">2</text><text x="493.71428571428567" y="60" opacity="0.85">7</text><text x="493.71428571428567" y="80" opacity="0.8">6</text><text x="493.71428571428567" y="100" opacity="0.75">)</text><text x="493.71428571428567" y="120" opacity="0.7">0</text><text x="493.71428571428567" y="140" opacity="0.65">E</text><text x="493.71428571428567" y="160" opacity="0.6">6</text><text x="493.71428571428567" y="180" opacity="0.55">3</text><text x="493.71428571428567" y="200" opacity="0.5">6</text><text x="493.71428571428567" y="220" opacity="0.44999999999999996">$</text><text x="493.71428571428567" y="240" opacity="0.4">)</text><text x="493.71428571428567" y="260" opacity="0.35">9</text><text x="493.71428571428567" y="280" opacity="0.30000000000000004">6</text><text x="493.71428571428567" y="300" opacity="0.25">@</text><text x="493.71428571428567" y="320" opacity="0.19999999999999996">D</text><text x="493.71428571428567" y="340" opacity="0.15000000000000002">9</text><text x="493.71428571428567" y="360" opacity="0.09999999999999998">$</text><text x="493.71428571428567" y="380" opacity="0.050000000000000044">#</text></g></svg>