<svg xmlns="http://www.w3.org/2000/svg" width="512" height="512" viewBox="0 0 512 512"><rect width="512" height="512" fill="#232323" /><g fill="#4CAF50" font-family="monospace" font-size="14"><text x="25.6" y="0" opacity="1.0">C</text><text x="25.6" y="20" opacity="0.9444444444444444">A</text><text x="25.6" y="40" opacity="0.8888888888888888">2</text><text x="25.6" y="60" opacity="0.8333333333333334">0</text><text x="25.6" y="80" opacity="0.7777777777777778">1</text><text x="25.6" y="100" opacity="0.7222222222222222">1</text><text x="25.6" y="120" opacity="0.6666666666666667">C</text><text x="25.6" y="140" opacity="0.6111111111111112">$</text><text x="25.6" y="160" opacity="0.5555555555555556">5</text><text x="25.6" y="180" opacity="0.5">7</text><text x="25.6" y="200" opacity="0.4444444444444444">7</text><text x="25.6" y="220" opacity="0.38888888888888884">A</text><text x="25.6" y="240" opacity="0.33333333333333337">F</text><text x="25.6" y="260" opacity="0.2777777777777778">C</text><text x="25.6" y="280" opacity="0.2222222222222222">1</text><text x="25.6" y="300" opacity="0.16666666666666663">3</text><text x="25.6" y="320" opacity="0.11111111111111116">1</text><text x="25.6" y="340" opacity="0.05555555555555558">(</text><text x="76.80000000000001" y="0" opacity="1.0">&amp;</text><text x="76.80000000000001" y="20" opacity="0.9642857142857143">C</text><text x="76.80000000000001" y="40" opacity="0.9285714285714286">6</text><text x="76.80000000000001" y="60" opacity="0.8928571428571429">#</text><text x="76.80000000000001" y="80" opacity="0.8571428571428572">8</text><text x="76.80000000000001" y="100" opacity="0.8214285714285714">0</text><text x="76.80000000000001" y="120" opacity="0.7857142857142857">9</text><text x="76.80000000000001" y="140" opacity="0.75">0</text><text x="76.80000000000001" y="160" opacity="0.7142857142857143">C</text><text x="76.80000000000001" y="180" opacity="0.6785714285714286">9</text><text x="76.80000000000001" y="200" opacity="0.6428571428571428">B</text><text x="76.80000000000001" y="220" opacity="0.6071428571428572">$</text><text x="76.80000000000001" y="240" opacity="0.5714285714285714">*</text><text x="76.80000000000001" y="260" opacity="0.5357142857142857">)</text><text x="76.80000000000001" y="280" opacity="0.5">8</text><text x="76.80000000000001" y="300" opacity="0.4642857142857143">D</text><text x="76.80000000000001" y="320" opacity="0.4285714285714286">3</text><text x="76.80000000000001" y="340" opacity="0.3928571428571429">^</text><text x="76.80000000000001" y="360" opacity="0.3571428571428571">^</text><text x="76.80000000000001" y="380" opacity="0.3214285714285714">^</text><text x="76.80000000000001" y="400" opacity="0.2857142857142857">&amp;</text><text x="76.80000000000001" y="420" opacity="0.25">4</text><text x="76.80000000000001" y="440" opacity="0.2142857142857143">6</text><text x="76.80000000000001" y="460" opacity="0.1785714285714286">3</text><text x="76.80000000000001" y="480" opacity="0.1428571428571429">D</text><text x="76.80000000000001" y="500" opacity="0.1071428571428571">8</text><text x="76.80000000000001" y="8" opacity="0.0714285714285714">F</text><text x="76.80000000000001" y="28" opacity="0.0357142857142857">0</text><text x="128.0" y="0" opacity="1.0">E</text><text x="128.0" y="20" opacity="0.9444444444444444">%</text><text x="128.0" y="40" opacity="0.8888888888888888">F</text><text x="128.0" y="60" opacity="0.8333333333333334">0</text><text x="128.0" y="80" opacity="0.7777777777777778">A</text><text x="128.0" y="100" opacity="0.7222222222222222">#</text><text x="128.0" y="120" opacity="0.6666666666666667">9</text><text x="128.0" y="140" opacity="0.6111111111111112">@</text><text x="128.0" y="160" opacity="0.5555555555555556">0</text><text x="128.0" y="180" opacity="0.5">@</text><text x="128.0" y="200" opacity="0.4444444444444444">8</text><text x="128.0" y="220" opacity="0.38888888888888884">E</text><text x="128.0" y="240" opacity="0.33333333333333337">0</text><text x="128.0" y="260" opacity="0.2777777777777778">*</text><text x="128.0" y="280" opacity="0.2222222222222222">6</text><text x="128.0" y="300" opacity="0.16666666666666663">B</text><text x="128.0" y="320" opacity="0.11111111111111116">C</text><text x="128.0" y="340" opacity="0.05555555555555558">&amp;</text><text x="179.20000000000002" y="0" opacity="1.0">)</text><text x="179.20000000000002" y="20" opacity="0.9615384615384616">(</text><text x="179.20000000000002" y="40" opacity="0.9230769230769231">1</text><text x="179.20000000000002" y="60" opacity="0.8846153846153846">4</text><text x="179.20000000000002" y="80" opacity="0.8461538461538461">(</text><text x="179.20000000000002" y="100" opacity="0.8076923076923077">(</text><text x="179.20000000000002" y="120" opacity="0.7692307692307692">#</text><text x="179.20000000000002" y="140" opacity="0.7307692307692308">@</text><text x="179.20000000000002" y="160" opacity="0.6923076923076923">6</text><text x="179.20000000000002" y="180" opacity="0.6538461538461539">C</text><text x="179.20000000000002" y="200" opacity="0.6153846153846154">F</text><text x="179.20000000000002" y="220" opacity="0.5769230769230769">#</text><text x="179.20000000000002" y="240" opacity="0.5384615384615384">5</text><text x="179.20000000000002" y="260" opacity="0.5">%</text><text x="179.20000000000002" y="280" opacity="0.46153846153846156">%</text><text x="179.20000000000002" y="300" opacity="0.42307692307692313">0</text><text x="179.20000000000002" y="320" opacity="0.3846153846153846">8</text><text x="179.20000000000002" y="340" opacity="0.34615384615384615">6</text><text x="179.20000000000002" y="360" opacity="0.3076923076923077">@</text><text x="179.20000000000002" y="380" opacity="0.2692307692307693">C</text><text x="179.20000000000002" y="400" opacity="0.23076923076923073">&amp;</text><text x="179.20000000000002" y="420" opacity="0.1923076923076923">*</text><text x="179.20000000000002" y="440" opacity="0.15384615384615385">)</text><text x="179.20000000000002" y="460" opacity="0.11538461538461542">E</text><text x="179.20000000000002" y="480" opacity="0.07692307692307687">^</text><text x="179.20000000000002" y="500" opacity="0.038461538461538436">C</text><text x="230.4" y="0" opacity="1.0">^</text><text x="230.4" y="20" opacity="0.9583333333333334">(</text><text x="230.4" y="40" opacity="0.9166666666666666">C</text><text x="230.4" y="60" opacity="0.875">@</text><text x="230.4" y="80" opacity="0.8333333333333334">B</text><text x="230.4" y="100" opacity="0.7916666666666666">%</text><text x="230.4" y="120" opacity="0.75">E</text><text x="230.4" y="140" opacity="0.7083333333333333">6</text><text x="230.4" y="160" opacity="0.6666666666666667">A</text><text x="230.4" y="180" opacity="0.625">C</text><text x="230.4" y="200" opacity="0.5833333333333333">F</text><text x="230.4" y="220" opacity="0.5416666666666667">#</text><text x="230.4" y="240" opacity="0.5">@</text><text x="230.4" y="260" opacity="0.45833333333333337">)</text><text x="230.4" y="280" opacity="0.41666666666666663">9</text><text x="230.4" y="300" opacity="0.375">)</text><text x="230.4" y="320" opacity="0.33333333333333337">&amp;</text><text x="230.4" y="340" opacity="0.29166666666666663">D</text><text x="230.4" y="360" opacity="0.25">2</text><text x="230.4" y="380" opacity="0.20833333333333337">&amp;</text><text x="230.4" y="400" opacity="0.16666666666666663">2</text><text x="230.4" y="420" opacity="0.125">D</text><text x="230.4" y="440" opacity="0.08333333333333337">A</text><text x="230.4" y="460" opacity="0.04166666666666663">3</text><text x="281.6" y="0" opacity="1.0">1</text><text x="281.6" y="20" opacity="0.9642857142857143">E</text><text x="281.6" y="40" opacity="0.9285714285714286">5</text><text x="281.6" y="60" opacity="0.8928571428571429">8</text><text x="281.6" y="80" opacity="0.8571428571428572">5</text><text x="281.6" y="100" opacity="0.8214285714285714">B</text><text x="281.6" y="120" opacity="0.7857142857142857">F</text><text x="281.6" y="140" opacity="0.75">^</text><text x="281.6" y="160" opacity="0.7142857142857143">D</text><text x="281.6" y="180" opacity="0.6785714285714286">9</text><text x="281.6" y="200" opacity="0.6428571428571428">C</text><text x="281.6" y="220" opacity="0.6071428571428572">)</text><text x="281.6" y="240" opacity="0.5714285714285714">7</text><text x="281.6" y="260" opacity="0.5357142857142857">(</text><text x="281.6" y="280" opacity="0.5">)</text><text x="281.6" y="300" opacity="0.4642857142857143">(</text><text x="281.6" y="320" opacity="0.4285714285714286">D</text><text x="281.6" y="340" opacity="0.3928571428571429">9</text><text x="281.6" y="360" opacity="0.3571428571428571">1</text><text x="281.6" y="380" opacity="0.3214285714285714">^</text><text x="281.6" y="400" opacity="0.2857142857142857">D</text><text x="281.6" y="420" opacity="0.25">5</text><text x="281.6" y="440" opacity="0.2142857142857143">E</text><text x="281.6" y="460" opacity="0.1785714285714286">6</text><text x="281.6" y="480" opacity="0.1428571428571429">@</text><text x="281.6" y="500" opacity="0.1071428571428571">(</text><text x="281.6" y="8" opacity="0.0714285714285714">6</text><text x="281.6" y="28" opacity="0.0357142857142857">B</text><text x="332.80000000000007" y="0" opacity="1.0">1</text><text x="332.80000000000007" y="20" opacity="0.9">D</text><text x="332.80000000000007" y="40" opacity="0.8">)</text><text x="332.80000000000007" y="60" opacity="0.7">(</text><text x="332.80000000000007" y="80" opacity="0.6">*</text><text x="332.80000000000007" y="100" opacity="0.5">&amp;</text><text x="332.80000000000007" y="120" opacity="0.4">@</text><text x="332.80000000000007" y="140" opacity="0.30000000000000004">#</text><text x="332.80000000000007" y="160" opacity="0.19999999999999996">F</text><text x="332.80000000000007" y="180" opacity="0.09999999999999998">B</text><text x="384.00000000000006" y="0" opacity="1.0">^</text><text x="384.00000000000006" y="20" opacity="0.9444444444444444">A</text><text x="384.00000000000006" y="40" opacity="0.8888888888888888">2</text><text x="384.00000000000006" y="60" opacity="0.8333333333333334">0</text><text x="384.00000000000006" y="80" opacity="0.7777777777777778">9</text><text x="384.00000000000006" y="100" opacity="0.7222222222222222">A</text><text x="384.00000000000006" y="120" opacity="0.6666666666666667">E</text><text x="384.00000000000006" y="140" opacity="0.6111111111111112">#</text><text x="384.00000000000006" y="160" opacity="0.5555555555555556">^</text><text x="384.00000000000006" y="180" opacity="0.5">$</text><text x="384.00000000000006" y="200" opacity="0.4444444444444444">3</text><text x="384.00000000000006" y="220" opacity="0.38888888888888884">F</text><text x="384.00000000000006" y="240" opacity="0.33333333333333337">&amp;</text><text x="384.00000000000006" y="260" opacity="0.2777777777777778">C</text><text x="384.00000000000006" y="280" opacity="0.2222222222222222">1</text><text x="384.00000000000006" y="300" opacity="0.16666666666666663">F</text><text x="384.00000000000006" y="320" opacity="0.11111111111111116">C</text><text x="384.00000000000006" y="340" opacity="0.05555555555555558">5</text><text x="435.20000000000005" y="0" opacity="1.0">&amp;</text><text x="435.20000000000005" y="20" opacity="0.9545454545454546">B</text><text x="435.20000000000005" y="40" opacity="0.9090909090909091">8</text><text x="435.20000000000005" y="60" opacity="0.8636363636363636">5</text><text x="435.20000000000005" y="80" opacity="0.8181818181818181">&amp;</text><text x="435.20000000000005" y="100" opacity="0.7727272727272727">9</text><text x="435.20000000000005" y="120" opacity="0.7272727272727273">C</text><text x="435.20000000000005" y="140" opacity="0.6818181818181819">#</text><text x="435.20000000000005" y="160" opacity="0.6363636363636364">8</text><text x="435.20000000000005" y="180" opacity="0.5909090909090908">&amp;</text><text x="435.20000000000005" y="200" opacity="0.5454545454545454">E</text><text x="435.20000000000005" y="220" opacity="0.5">5</text><text x="435.20000000000005" y="240" opacity="0.4545454545454546">&amp;</text><text x="435.20000000000005" y="260" opacity="0.40909090909090906">*</text><text x="435.20000000000005" y="280" opacity="0.36363636363636365">E</text><text x="435.20000000000005" y="300" opacity="0.31818181818181823">^</text><text x="435.20000000000005" y="320" opacity="0.2727272727272727">F</text><text x="435.20000000000005" y="340" opacity="0.2272727272727273">1</text><text x="435.20000000000005" y="360" opacity="0.18181818181818177">@</text><text x="435.20000000000005" y="380" opacity="0.13636363636363635">*</text><text x="435.20000000000005" y="400" opacity="0.09090909090909094">6</text><text x="435.20000000000005" y="420" opacity="0.045454545454545414">4</text><text x="486.40000000000003" y="0" opacity="1.0">#</text><text x="486.40000000000003" y="20" opacity="0.9">3</text><text x="486.40000000000003" y="40" opacity="0.8">9</text><text x="486.40000000000003" y="60" opacity="0.7">A</text><text x="486.40000000000003" y="80" opacity="0.6">0</text><text x="486.40000000000003" y="100" opacity="0.5">5</text><text x="486.40000000000003" y="120" opacity="0.4">@</text><text x="486.40000000000003" y="140" opacity="0.30000000000000004">9</text><text x="486.40000000000003" y="160" opacity="0.19999999999999996">0</text><text x="486.40000000000003" y="180" opacity="0.09999999999999998">2</text></g></svg>