<svg xmlns="http://www.w3.org/2000/svg" width="512" height="512" viewBox="0 0 512 512"><rect width="512" height="512" fill="#1A1A1A" /><g fill="#FF5252" font-family="monospace" font-size="14"><text x="19.692307692307693" y="0" opacity="1.0">8</text><text x="19.692307692307693" y="20" opacity="0.9666666666666667">F</text><text x="19.692307692307693" y="40" opacity="0.9333333333333333">1</text><text x="19.692307692307693" y="60" opacity="0.9">)</text><text x="19.692307692307693" y="80" opacity="0.8666666666666667">%</text><text x="19.692307692307693" y="100" opacity="0.8333333333333334">C</text><text x="19.692307692307693" y="120" opacity="0.8">(</text><text x="19.692307692307693" y="140" opacity="0.7666666666666666">4</text><text x="19.692307692307693" y="160" opacity="0.7333333333333334">B</text><text x="19.692307692307693" y="180" opacity="0.7">1</text><text x="19.692307692307693" y="200" opacity="0.6666666666666667">B</text><text x="19.692307692307693" y="220" opacity="0.6333333333333333">B</text><text x="19.692307692307693" y="240" opacity="0.6">)</text><text x="19.692307692307693" y="260" opacity="0.5666666666666667">)</text><text x="19.692307692307693" y="280" opacity="0.5333333333333333">B</text><text x="19.692307692307693" y="300" opacity="0.5">D</text><text x="19.692307692307693" y="320" opacity="0.4666666666666667">E</text><text x="19.692307692307693" y="340" opacity="0.43333333333333335">*</text><text x="19.692307692307693" y="360" opacity="0.4">D</text><text x="19.692307692307693" y="380" opacity="0.3666666666666667">A</text><text x="19.692307692307693" y="400" opacity="0.33333333333333337">^</text><text x="19.692307692307693" y="420" opacity="0.30000000000000004">0</text><text x="19.692307692307693" y="440" opacity="0.2666666666666667">5</text><text x="19.692307692307693" y="460" opacity="0.23333333333333328">9</text><text x="19.692307692307693" y="480" opacity="0.19999999999999996">F</text><text x="19.692307692307693" y="500" opacity="0.16666666666666663">^</text><text x="19.692307692307693" y="8" opacity="0.1333333333333333">#</text><text x="19.692307692307693" y="28" opacity="0.09999999999999998">F</text><text x="19.692307692307693" y="48" opacity="0.06666666666666665">A</text><text x="19.692307692307693" y="68" opacity="0.033333333333333326">D</text><text x="59.07692307692308" y="0" opacity="1.0">6</text><text x="59.07692307692308" y="20" opacity="0.9">B</text><text x="59.07692307692308" y="40" opacity="0.8">B</text><text x="59.07692307692308" y="60" opacity="0.7">0</text><text x="59.07692307692308" y="80" opacity="0.6">E</text><text x="59.07692307692308" y="100" opacity="0.5">3</text><text x="59.07692307692308" y="120" opacity="0.4">6</text><text x="59.07692307692308" y="140" opacity="0.30000000000000004">&amp;</text><text x="59.07692307692308" y="160" opacity="0.19999999999999996">E</text><text x="59.07692307692308" y="180" opacity="0.09999999999999998">)</text><text x="98.46153846153847" y="0" opacity="1.0">@</text><text x="98.46153846153847" y="20" opacity="0.9615384615384616">2</text><text x="98.46153846153847" y="40" opacity="0.9230769230769231">)</text><text x="98.46153846153847" y="60" opacity="0.8846153846153846">5</text><text x="98.46153846153847" y="80" opacity="0.8461538461538461">%</text><text x="98.46153846153847" y="100" opacity="0.8076923076923077">E</text><text x="98.46153846153847" y="120" opacity="0.7692307692307692">4</text><text x="98.46153846153847" y="140" opacity="0.7307692307692308">6</text><text x="98.46153846153847" y="160" opacity="0.6923076923076923">)</text><text x="98.46153846153847" y="180" opacity="0.6538461538461539">D</text><text x="98.46153846153847" y="200" opacity="0.6153846153846154">D</text><text x="98.46153846153847" y="220" opacity="0.5769230769230769">0</text><text x="98.46153846153847" y="240" opacity="0.5384615384615384">F</text><text x="98.46153846153847" y="260" opacity="0.5">4</text><text x="98.46153846153847" y="280" opacity="0.46153846153846156">^</text><text x="98.46153846153847" y="300" opacity="0.42307692307692313">4</text><text x="98.46153846153847" y="320" opacity="0.3846153846153846">6</text><text x="98.46153846153847" y="340" opacity="0.34615384615384615">6</text><text x="98.46153846153847" y="360" opacity="0.3076923076923077">E</text><text x="98.46153846153847" y="380" opacity="0.2692307692307693">7</text><text x="98.46153846153847" y="400" opacity="0.23076923076923073">@</text><text x="98.46153846153847" y="420" opacity="0.1923076923076923">B</text><text x="98.46153846153847" y="440" opacity="0.15384615384615385">&amp;</text><text x="98.46153846153847" y="460" opacity="0.11538461538461542">@</text><text x="98.46153846153847" y="480" opacity="0.07692307692307687">@</text><text x="98.46153846153847" y="500" opacity="0.038461538461538436">F</text><text x="137.84615384615387" y="0" opacity="1.0">@</text><text x="137.84615384615387" y="20" opacity="0.96">@</text><text x="137.84615384615387" y="40" opacity="0.92">*</text><text x="137.84615384615387" y="60" opacity="0.88">4</text><text x="137.84615384615387" y="80" opacity="0.84">&amp;</text><text x="137.84615384615387" y="100" opacity="0.8">F</text><text x="137.84615384615387" y="120" opacity="0.76">2</text><text x="137.84615384615387" y="140" opacity="0.72">1</text><text x="137.84615384615387" y="160" opacity="0.6799999999999999">*</text><text x="137.84615384615387" y="180" opacity="0.64">0</text><text x="137.84615384615387" y="200" opacity="0.6">2</text><text x="137.84615384615387" y="220" opacity="0.56">D</text><text x="137.84615384615387" y="240" opacity="0.52">)</text><text x="137.84615384615387" y="260" opacity="0.48">C</text><text x="137.84615384615387" y="280" opacity="0.43999999999999995">(</text><text x="137.84615384615387" y="300" opacity="0.4">%</text><text x="137.84615384615387" y="320" opacity="0.36">A</text><text x="137.84615384615387" y="340" opacity="0.31999999999999995">*</text><text x="137.84615384615387" y="360" opacity="0.28">8</text><text x="137.84615384615387" y="380" opacity="0.24">5</text><text x="137.84615384615387" y="400" opacity="0.19999999999999996">*</text><text x="137.84615384615387" y="420" opacity="0.16000000000000003">#</text><text x="137.84615384615387" y="440" opacity="0.12">A</text><text x="137.84615384615387" y="460" opacity="0.07999999999999996">5</text><text x="137.84615384615387" y="480" opacity="0.040000000000000036">4</text><text x="177.23076923076923" y="0" opacity="1.0">4</text><text x="177.23076923076923" y="20" opacity="0.95">%</text><text x="177.23076923076923" y="40" opacity="0.9">(</text><text x="177.23076923076923" y="60" opacity="0.85">%</text><text x="177.23076923076923" y="80" opacity="0.8">5</text><text x="177.23076923076923" y="100" opacity="0.75">#</text><text x="177.23076923076923" y="120" opacity="0.7">0</text><text x="177.23076923076923" y="140" opacity="0.65">4</text><text x="177.23076923076923" y="160" opacity="0.6">(</text><text x="177.23076923076923" y="180" opacity="0.55">(</text><text x="177.23076923076923" y="200" opacity="0.5">3</text><text x="177.23076923076923" y="220" opacity="0.44999999999999996">B</text><text x="177.23076923076923" y="240" opacity="0.4">%</text><text x="177.23076923076923" y="260" opacity="0.35">C</text><text x="177.23076923076923" y="280" opacity="0.30000000000000004">8</text><text x="177.23076923076923" y="300" opacity="0.25">4</text><text x="177.23076923076923" y="320" opacity="0.19999999999999996">A</text><text x="177.23076923076923" y="340" opacity="0.15000000000000002">&amp;</text><text x="177.23076923076923" y="360" opacity="0.09999999999999998">^</text><text x="177.23076923076923" y="380" opacity="0.050000000000000044">A</text><text x="216.61538461538464" y="0" opacity="1.0">1</text><text x="216.61538461538464" y="20" opacity="0.9090909090909091">8</text><text x="216.61538461538464" y="40" opacity="0.8181818181818181">#</text><text x="216.61538461538464" y="60" opacity="0.7272727272727273">&amp;</text><text x="216.61538461538464" y="80" opacity="0.6363636363636364">A</text><text x="216.61538461538464" y="100" opacity="0.5454545454545454">D</text><text x="216.61538461538464" y="120" opacity="0.4545454545454546">D</text><text x="216.61538461538464" y="140" opacity="0.36363636363636365">C</text><text x="216.61538461538464" y="160" opacity="0.2727272727272727">0</text><text x="216.61538461538464" y="180" opacity="0.18181818181818177">E</text><text x="216.61538461538464" y="200" opacity="0.09090909090909094">C</text><text x="256.0" y="0" opacity="1.0">E</text><text x="256.0" y="20" opacity="0.9583333333333334">C</text><text x="256.0" y="40" opacity="0.9166666666666666">E</text><text x="256.0" y="60" opacity="0.875">3</text><text x="256.0" y="80" opacity="0.8333333333333334">7</text><text x="256.0" y="100" opacity="0.7916666666666666">7</text><text x="256.0" y="120" opacity="0.75">3</text><text x="256.0" y="140" opacity="0.7083333333333333">&amp;</text><text x="256.0" y="160" opacity="0.6666666666666667">8</text><text x="256.0" y="180" opacity="0.625">C</text><text x="256.0" y="200" opacity="0.5833333333333333">E</text><text x="256.0" y="220" opacity="0.5416666666666667">^</text><text x="256.0" y="240" opacity="0.5">6</text><text x="256.0" y="260" opacity="0.45833333333333337">6</text><text x="256.0" y="280" opacity="0.41666666666666663">&amp;</text><text x="256.0" y="300" opacity="0.375">)</text><text x="256.0" y="320" opacity="0.33333333333333337">*</text><text x="256.0" y="340" opacity="0.29166666666666663">6</text><text x="256.0" y="360" opacity="0.25">5</text><text x="256.0" y="380" opacity="0.20833333333333337">D</text><text x="256.0" y="400" opacity="0.16666666666666663">5</text><text x="256.0" y="420" opacity="0.125">E</text><text x="256.0" y="440" opacity="0.08333333333333337">8</text><text x="256.0" y="460" opacity="0.04166666666666663">3</text><text x="295.3846153846154" y="0" opacity="1.0">2</text><text x="295.3846153846154" y="20" opacity="0.9473684210526316">B</text><text x="295.3846153846154" y="40" opacity="0.8947368421052632">&amp;</text><text x="295.3846153846154" y="60" opacity="0.8421052631578947">F</text><text x="295.3846153846154" y="80" opacity="0.7894736842105263">#</text><text x="295.3846153846154" y="100" opacity="0.736842105263158">A</text><text x="295.3846153846154" y="120" opacity="0.6842105263157895">8</text><text x="295.3846153846154" y="140" opacity="0.631578947368421">$</text><text x="295.3846153846154" y="160" opacity="0.5789473684210527">C</text><text x="295.3846153846154" y="180" opacity="0.5263157894736843">9</text><text x="295.3846153846154" y="200" opacity="0.4736842105263158">D</text><text x="295.3846153846154" y="220" opacity="0.42105263157894735">5</text><text x="295.3846153846154" y="240" opacity="0.368421052631579">E</text><text x="295.3846153846154" y="260" opacity="0.3157894736842105">B</text><text x="295.3846153846154" y="280" opacity="0.26315789473684215">@</text><text x="295.3846153846154" y="300" opacity="0.21052631578947367">6</text><text x="295.3846153846154" y="320" opacity="0.1578947368421053">(</text><text x="295.3846153846154" y="340" opacity="0.10526315789473684">@</text><text x="295.3846153846154" y="360" opacity="0.052631578947368474">^</text><text x="334.7692307692308" y="0" opacity="1.0">%</text><text x="334.7692307692308" y="20" opacity="0.9230769230769231">7</text><text x="334.7692307692308" y="40" opacity="0.8461538461538461">$</text><text x="334.7692307692308" y="60" opacity="0.7692307692307692">A</text><text x="334.7692307692308" y="80" opacity="0.6923076923076923">*</text><text x="334.7692307692308" y="100" opacity="0.6153846153846154">6</text><text x="334.7692307692308" y="120" opacity="0.5384615384615384">3</text><text x="334.7692307692308" y="140" opacity="0.46153846153846156">1</text><text x="334.7692307692308" y="160" opacity="0.3846153846153846">$</text><text x="334.7692307692308" y="180" opacity="0.3076923076923077">F</text><text x="334.7692307692308" y="200" opacity="0.23076923076923073">E</text><text x="334.7692307692308" y="220" opacity="0.15384615384615385">$</text><text x="334.7692307692308" y="240" opacity="0.07692307692307687">6</text><text x="374.15384615384613" y="0" opacity="1.0">B</text><text x="374.15384615384613" y="20" opacity="0.9583333333333334">C</text><text x="374.15384615384613" y="40" opacity="0.9166666666666666">5</text><text x="374.15384615384613" y="60" opacity="0.875">A</text><text x="374.15384615384613" y="80" opacity="0.8333333333333334">$</text><text x="374.15384615384613" y="100" opacity="0.7916666666666666">E</text><text x="374.15384615384613" y="120" opacity="0.75">D</text><text x="374.15384615384613" y="140" opacity="0.7083333333333333">B</text><text x="374.15384615384613" y="160" opacity="0.6666666666666667">9</text><text x="374.15384615384613" y="180" opacity="0.625">(</text><text x="374.15384615384613" y="200" opacity="0.5833333333333333">5</text><text x="374.15384615384613" y="220" opacity="0.5416666666666667">9</text><text x="374.15384615384613" y="240" opacity="0.5">E</text><text x="374.15384615384613" y="260" opacity="0.45833333333333337">C</text><text x="374.15384615384613" y="280" opacity="0.41666666666666663">@</text><text x="374.15384615384613" y="300" opacity="0.375">&amp;</text><text x="374.15384615384613" y="320" opacity="0.33333333333333337">)</text><text x="374.15384615384613" y="340" opacity="0.29166666666666663">(</text><text x="374.15384615384613" y="360" opacity="0.25">3</text><text x="374.15384615384613" y="380" opacity="0.20833333333333337">E</text><text x="374.15384615384613" y="400" opacity="0.16666666666666663">9</text><text x="374.15384615384613" y="420" opacity="0.125">A</text><text x="374.15384615384613" y="440" opacity="0.08333333333333337">0</text><text x="374.15384615384613" y="460" opacity="0.04166666666666663">2</text><text x="413.53846153846155" y="0" opacity="1.0">@</text><text x="413.53846153846155" y="20" opacity="0.9333333333333333">E</text><text x="413.53846153846155" y="40" opacity="0.8666666666666667">A</text><text x="413.53846153846155" y="60" opacity="0.8">6</text><text x="413.53846153846155" y="80" opacity="0.7333333333333334">@</text><text x="413.53846153846155" y="100" opacity="0.6666666666666667">*</text><text x="413.53846153846155" y="120" opacity="0.6">C</text><text x="413.53846153846155" y="140" opacity="0.5333333333333333">1</text><text x="413.53846153846155" y="160" opacity="0.4666666666666667">@</text><text x="413.53846153846155" y="180" opacity="0.4">3</text><text x="413.53846153846155" y="200" opacity="0.33333333333333337">^</text><text x="413.53846153846155" y="220" opacity="0.2666666666666667">%</text><text x="413.53846153846155" y="240" opacity="0.19999999999999996">&amp;</text><text x="413.53846153846155" y="260" opacity="0.1333333333333333">(</text><text x="413.53846153846155" y="280" opacity="0.06666666666666665">0</text><text x="452.92307692307696" y="0" opacity="1.0">^</text><text x="452.92307692307696" y="20" opacity="0.9545454545454546">C</text><text x="452.92307692307696" y="40" opacity="0.9090909090909091">E</text><text x="452.92307692307696" y="60" opacity="0.8636363636363636">9</text><text x="452.92307692307696" y="80" opacity="0.8181818181818181">*</text><text x="452.92307692307696" y="100" opacity="0.7727272727272727">F</text><text x="452.92307692307696" y="120" opacity="0.7272727272727273">9</text><text x="452.92307692307696" y="140" opacity="0.6818181818181819">^</text><text x="452.92307692307696" y="160" opacity="0.6363636363636364">6</text><text x="452.92307692307696" y="180" opacity="0.5909090909090908">2</text><text x="452.92307692307696" y="200" opacity="0.5454545454545454">9</text><text x="452.92307692307696" y="220" opacity="0.5">5</text><text x="452.92307692307696" y="240" opacity="0.4545454545454546">#</text><text x="452.92307692307696" y="260" opacity="0.40909090909090906">1</text><text x="452.92307692307696" y="280" opacity="0.36363636363636365">5</text><text x="452.92307692307696" y="300" opacity="0.31818181818181823">7</text><text x="452.92307692307696" y="320" opacity="0.2727272727272727">@</text><text x="452.92307692307696" y="340" opacity="0.2272727272727273">2</text><text x="452.92307692307696" y="360" opacity="0.18181818181818177">^</text><text x="452.92307692307696" y="380" opacity="0.13636363636363635">F</text><text x="452.92307692307696" y="400" opacity="0.09090909090909094">9</text><text x="452.92307692307696" y="420" opacity="0.045454545454545414">@</text><text x="492.3076923076923" y="0" opacity="1.0">#</text><text x="492.3076923076923" y="20" opacity="0.9545454545454546">&amp;</text><text x="492.3076923076923" y="40" opacity="0.9090909090909091">)</text><text x="492.3076923076923" y="60" opacity="0.8636363636363636">1</text><text x="492.3076923076923" y="80" opacity="0.8181818181818181">6</text><text x="492.3076923076923" y="100" opacity="0.7727272727272727">%</text><text x="492.3076923076923" y="120" opacity="0.7272727272727273">4</text><text x="492.3076923076923" y="140" opacity="0.6818181818181819">$</text><text x="492.3076923076923" y="160" opacity="0.6363636363636364">5</text><text x="492.3076923076923" y="180" opacity="0.5909090909090908">3</text><text x="492.3076923076923" y="200" opacity="0.5454545454545454">@</text><text x="492.3076923076923" y="220" opacity="0.5">*</text><text x="492.3076923076923" y="240" opacity="0.4545454545454546">6</text><text x="492.3076923076923" y="260" opacity="0.40909090909090906">2</text><text x="492.3076923076923" y="280" opacity="0.36363636363636365">5</text><text x="492.3076923076923" y="300" opacity="0.31818181818181823">%</text><text x="492.3076923076923" y="320" opacity="0.2727272727272727">A</text><text x="492.3076923076923" y="340" opacity="0.2272727272727273">1</text><text x="492.3076923076923" y="360" opacity="0.18181818181818177">$</text><text x="492.3076923076923" y="380" opacity="0.13636363636363635">E</text><text x="492.3076923076923" y="400" opacity="0.09090909090909094">0</text><text x="492.3076923076923" y="420" opacity="0.045454545454545414">5</text></g></svg>