<svg xmlns="http://www.w3.org/2000/svg" width="512" height="512" viewBox="0 0 512 512"><rect width="512" height="512" fill="#232323" /><g fill="#2196F3" font-family="monospace" font-size="14"><text x="21.333333333333332" y="0" opacity="1.0">#</text><text x="21.333333333333332" y="20" opacity="0.96">6</text><text x="21.333333333333332" y="40" opacity="0.92">7</text><text x="21.333333333333332" y="60" opacity="0.88">3</text><text x="21.333333333333332" y="80" opacity="0.84">E</text><text x="21.333333333333332" y="100" opacity="0.8">0</text><text x="21.333333333333332" y="120" opacity="0.76">8</text><text x="21.333333333333332" y="140" opacity="0.72">6</text><text x="21.333333333333332" y="160" opacity="0.6799999999999999">A</text><text x="21.333333333333332" y="180" opacity="0.64">C</text><text x="21.333333333333332" y="200" opacity="0.6">E</text><text x="21.333333333333332" y="220" opacity="0.56">B</text><text x="21.333333333333332" y="240" opacity="0.52">3</text><text x="21.333333333333332" y="260" opacity="0.48">3</text><text x="21.333333333333332" y="280" opacity="0.43999999999999995">F</text><text x="21.333333333333332" y="300" opacity="0.4">4</text><text x="21.333333333333332" y="320" opacity="0.36">$</text><text x="21.333333333333332" y="340" opacity="0.31999999999999995">*</text><text x="21.333333333333332" y="360" opacity="0.28">@</text><text x="21.333333333333332" y="380" opacity="0.24">A</text><text x="21.333333333333332" y="400" opacity="0.19999999999999996">$</text><text x="21.333333333333332" y="420" opacity="0.16000000000000003">2</text><text x="21.333333333333332" y="440" opacity="0.12">^</text><text x="21.333333333333332" y="460" opacity="0.07999999999999996">5</text><text x="21.333333333333332" y="480" opacity="0.040000000000000036">$</text><text x="64.0" y="0" opacity="1.0">E</text><text x="64.0" y="20" opacity="0.9523809523809523">B</text><text x="64.0" y="40" opacity="0.9047619047619048">@</text><text x="64.0" y="60" opacity="0.8571428571428572">C</text><text x="64.0" y="80" opacity="0.8095238095238095">1</text><text x="64.0" y="100" opacity="0.7619047619047619">^</text><text x="64.0" y="120" opacity="0.7142857142857143">3</text><text x="64.0" y="140" opacity="0.6666666666666667">2</text><text x="64.0" y="160" opacity="0.6190476190476191">4</text><text x="64.0" y="180" opacity="0.5714285714285714">9</text><text x="64.0" y="200" opacity="0.5238095238095238">1</text><text x="64.0" y="220" opacity="0.47619047619047616">*</text><text x="64.0" y="240" opacity="0.4285714285714286">6</text><text x="64.0" y="260" opacity="0.38095238095238093">A</text><text x="64.0" y="280" opacity="0.33333333333333337">@</text><text x="64.0" y="300" opacity="0.2857142857142857">&amp;</text><text x="64.0" y="320" opacity="0.23809523809523814">$</text><text x="64.0" y="340" opacity="0.19047619047619047">$</text><text x="64.0" y="360" opacity="0.1428571428571429">B</text><text x="64.0" y="380" opacity="0.09523809523809523">5</text><text x="64.0" y="400" opacity="0.04761904761904767">A</text><text x="106.66666666666666" y="0" opacity="1.0">7</text><text x="106.66666666666666" y="20" opacity="0.9642857142857143">%</text><text x="106.66666666666666" y="40" opacity="0.9285714285714286">5</text><text x="106.66666666666666" y="60" opacity="0.8928571428571429">E</text><text x="106.66666666666666" y="80" opacity="0.8571428571428572">&amp;</text><text x="106.66666666666666" y="100" opacity="0.8214285714285714">@</text><text x="106.66666666666666" y="120" opacity="0.7857142857142857">3</text><text x="106.66666666666666" y="140" opacity="0.75">%</text><text x="106.66666666666666" y="160" opacity="0.7142857142857143">#</text><text x="106.66666666666666" y="180" opacity="0.6785714285714286">9</text><text x="106.66666666666666" y="200" opacity="0.6428571428571428">A</text><text x="106.66666666666666" y="220" opacity="0.6071428571428572">(</text><text x="106.66666666666666" y="240" opacity="0.5714285714285714">E</text><text x="106.66666666666666" y="260" opacity="0.5357142857142857">9</text><text x="106.66666666666666" y="280" opacity="0.5">B</text><text x="106.66666666666666" y="300" opacity="0.4642857142857143">B</text><text x="106.66666666666666" y="320" opacity="0.4285714285714286">(</text><text x="106.66666666666666" y="340" opacity="0.3928571428571429">$</text><text x="106.66666666666666" y="360" opacity="0.3571428571428571">F</text><text x="106.66666666666666" y="380" opacity="0.3214285714285714">9</text><text x="106.66666666666666" y="400" opacity="0.2857142857142857">E</text><text x="106.66666666666666" y="420" opacity="0.25">)</text><text x="106.66666666666666" y="440" opacity="0.2142857142857143">F</text><text x="106.66666666666666" y="460" opacity="0.1785714285714286">*</text><text x="106.66666666666666" y="480" opacity="0.1428571428571429">@</text><text x="106.66666666666666" y="500" opacity="0.1071428571428571">9</text><text x="106.66666666666666" y="8" opacity="0.0714285714285714">A</text><text x="106.66666666666666" y="28" opacity="0.0357142857142857">2</text><text x="149.33333333333334" y="0" opacity="1.0">#</text><text x="149.33333333333334" y="20" opacity="0.9523809523809523">5</text><text x="149.33333333333334" y="40" opacity="0.9047619047619048">2</text><text x="149.33333333333334" y="60" opacity="0.8571428571428572">B</text><text x="149.33333333333334" y="80" opacity="0.8095238095238095">D</text><text x="149.33333333333334" y="100" opacity="0.7619047619047619">6</text><text x="149.33333333333334" y="120" opacity="0.7142857142857143">8</text><text x="149.33333333333334" y="140" opacity="0.6666666666666667">%</text><text x="149.33333333333334" y="160" opacity="0.6190476190476191">1</text><text x="149.33333333333334" y="180" opacity="0.5714285714285714">5</text><text x="149.33333333333334" y="200" opacity="0.5238095238095238">3</text><text x="149.33333333333334" y="220" opacity="0.47619047619047616">1</text><text x="149.33333333333334" y="240" opacity="0.4285714285714286">*</text><text x="149.33333333333334" y="260" opacity="0.38095238095238093">C</text><text x="149.33333333333334" y="280" opacity="0.33333333333333337">1</text><text x="149.33333333333334" y="300" opacity="0.2857142857142857">9</text><text x="149.33333333333334" y="320" opacity="0.23809523809523814">(</text><text x="149.33333333333334" y="340" opacity="0.19047619047619047">1</text><text x="149.33333333333334" y="360" opacity="0.1428571428571429">(</text><text x="149.33333333333334" y="380" opacity="0.09523809523809523">D</text><text x="149.33333333333334" y="400" opacity="0.04761904761904767">B</text><text x="192.0" y="0" opacity="1.0">4</text><text x="192.0" y="20" opacity="0.962962962962963">A</text><text x="192.0" y="40" opacity="0.9259259259259259">C</text><text x="192.0" y="60" opacity="0.8888888888888888">2</text><text x="192.0" y="80" opacity="0.8518518518518519">8</text><text x="192.0" y="100" opacity="0.8148148148148149">^</text><text x="192.0" y="120" opacity="0.7777777777777778">#</text><text x="192.0" y="140" opacity="0.7407407407407407">3</text><text x="192.0" y="160" opacity="0.7037037037037037">F</text><text x="192.0" y="180" opacity="0.6666666666666667">6</text><text x="192.0" y="200" opacity="0.6296296296296297">8</text><text x="192.0" y="220" opacity="0.5925925925925926">)</text><text x="192.0" y="240" opacity="0.5555555555555556">&amp;</text><text x="192.0" y="260" opacity="0.5185185185185186">%</text><text x="192.0" y="280" opacity="0.4814814814814815">$</text><text x="192.0" y="300" opacity="0.4444444444444444">%</text><text x="192.0" y="320" opacity="0.40740740740740744">@</text><text x="192.0" y="340" opacity="0.37037037037037035">#</text><text x="192.0" y="360" opacity="0.33333333333333337">^</text><text x="192.0" y="380" opacity="0.2962962962962963">(</text><text x="192.0" y="400" opacity="0.2592592592592593">&amp;</text><text x="192.0" y="420" opacity="0.2222222222222222">9</text><text x="192.0" y="440" opacity="0.18518518518518523">B</text><text x="192.0" y="460" opacity="0.14814814814814814">%</text><text x="192.0" y="480" opacity="0.11111111111111116">F</text><text x="192.0" y="500" opacity="0.07407407407407407">2</text><text x="192.0" y="8" opacity="0.03703703703703709">)</text><text x="234.66666666666666" y="0" opacity="1.0">4</text><text x="234.66666666666666" y="20" opacity="0.9090909090909091">$</text><text x="234.66666666666666" y="40" opacity="0.8181818181818181">3</text><text x="234.66666666666666" y="60" opacity="0.7272727272727273">6</text><text x="234.66666666666666" y="80" opacity="0.6363636363636364">C</text><text x="234.66666666666666" y="100" opacity="0.5454545454545454">E</text><text x="234.66666666666666" y="120" opacity="0.4545454545454546">4</text><text x="234.66666666666666" y="140" opacity="0.36363636363636365">7</text><text x="234.66666666666666" y="160" opacity="0.2727272727272727">F</text><text x="234.66666666666666" y="180" opacity="0.18181818181818177">6</text><text x="234.66666666666666" y="200" opacity="0.09090909090909094">@</text><text x="277.3333333333333" y="0" opacity="1.0">C</text><text x="277.3333333333333" y="20" opacity="0.9666666666666667">C</text><text x="277.3333333333333" y="40" opacity="0.9333333333333333">)</text><text x="277.3333333333333" y="60" opacity="0.9">E</text><text x="277.3333333333333" y="80" opacity="0.8666666666666667">0</text><text x="277.3333333333333" y="100" opacity="0.8333333333333334">)</text><text x="277.3333333333333" y="120" opacity="0.8">E</text><text x="277.3333333333333" y="140" opacity="0.7666666666666666">7</text><text x="277.3333333333333" y="160" opacity="0.7333333333333334">@</text><text x="277.3333333333333" y="180" opacity="0.7">2</text><text x="277.3333333333333" y="200" opacity="0.6666666666666667">C</text><text x="277.3333333333333" y="220" opacity="0.6333333333333333">2</text><text x="277.3333333333333" y="240" opacity="0.6">$</text><text x="277.3333333333333" y="260" opacity="0.5666666666666667">F</text><text x="277.3333333333333" y="280" opacity="0.5333333333333333">D</text><text x="277.3333333333333" y="300" opacity="0.5">&amp;</text><text x="277.3333333333333" y="320" opacity="0.4666666666666667">9</text><text x="277.3333333333333" y="340" opacity="0.43333333333333335">A</text><text x="277.3333333333333" y="360" opacity="0.4">9</text><text x="277.3333333333333" y="380" opacity="0.3666666666666667">@</text><text x="277.3333333333333" y="400" opacity="0.33333333333333337">A</text><text x="277.3333333333333" y="420" opacity="0.30000000000000004">1</text><text x="277.3333333333333" y="440" opacity="0.2666666666666667">5</text><text x="277.3333333333333" y="460" opacity="0.23333333333333328">4</text><text x="277.3333333333333" y="480" opacity="0.19999999999999996">$</text><text x="277.3333333333333" y="500" opacity="0.16666666666666663">*</text><text x="277.3333333333333" y="8" opacity="0.1333333333333333">D</text><text x="277.3333333333333" y="28" opacity="0.09999999999999998">0</text><text x="277.3333333333333" y="48" opacity="0.06666666666666665">7</text><text x="277.3333333333333" y="68" opacity="0.033333333333333326">D</text><text x="319.99999999999994" y="0" opacity="1.0">E</text><text x="319.99999999999994" y="20" opacity="0.9090909090909091">$</text><text x="319.99999999999994" y="40" opacity="0.8181818181818181">C</text><text x="319.99999999999994" y="60" opacity="0.7272727272727273">1</text><text x="319.99999999999994" y="80" opacity="0.6363636363636364">E</text><text x="319.99999999999994" y="100" opacity="0.5454545454545454">&amp;</text><text x="319.99999999999994" y="120" opacity="0.4545454545454546">2</text><text x="319.99999999999994" y="140" opacity="0.36363636363636365">B</text><text x="319.99999999999994" y="160" opacity="0.2727272727272727">@</text><text x="319.99999999999994" y="180" opacity="0.18181818181818177">2</text><text x="319.99999999999994" y="200" opacity="0.09090909090909094">^</text><text x="362.66666666666663" y="0" opacity="1.0">2</text><text x="362.66666666666663" y="20" opacity="0.962962962962963">9</text><text x="362.66666666666663" y="40" opacity="0.9259259259259259">5</text><text x="362.66666666666663" y="60" opacity="0.8888888888888888">D</text><text x="362.66666666666663" y="80" opacity="0.8518518518518519">A</text><text x="362.66666666666663" y="100" opacity="0.8148148148148149">7</text><text x="362.66666666666663" y="120" opacity="0.7777777777777778">B</text><text x="362.66666666666663" y="140" opacity="0.7407407407407407">1</text><text x="362.66666666666663" y="160" opacity="0.7037037037037037">&amp;</text><text x="362.66666666666663" y="180" opacity="0.6666666666666667">8</text><text x="362.66666666666663" y="200" opacity="0.6296296296296297">D</text><text x="362.66666666666663" y="220" opacity="0.5925925925925926">^</text><text x="362.66666666666663" y="240" opacity="0.5555555555555556">4</text><text x="362.66666666666663" y="260" opacity="0.5185185185185186">1</text><text x="362.66666666666663" y="280" opacity="0.4814814814814815">0</text><text x="362.66666666666663" y="300" opacity="0.4444444444444444">9</text><text x="362.66666666666663" y="320" opacity="0.40740740740740744">2</text><text x="362.66666666666663" y="340" opacity="0.37037037037037035">3</text><text x="362.66666666666663" y="360" opacity="0.33333333333333337">@</text><text x="362.66666666666663" y="380" opacity="0.2962962962962963">&amp;</text><text x="362.66666666666663" y="400" opacity="0.2592592592592593">)</text><text x="362.66666666666663" y="420" opacity="0.2222222222222222">7</text><text x="362.66666666666663" y="440" opacity="0.18518518518518523">D</text><text x="362.66666666666663" y="460" opacity="0.14814814814814814">9</text><text x="362.66666666666663" y="480" opacity="0.11111111111111116">5</text><text x="362.66666666666663" y="500" opacity="0.07407407407407407">F</text><text x="362.66666666666663" y="8" opacity="0.03703703703703709">F</text><text x="405.3333333333333" y="0" opacity="1.0">7</text><text x="405.3333333333333" y="20" opacity="0.9090909090909091">A</text><text x="405.3333333333333" y="40" opacity="0.8181818181818181">C</text><text x="405.3333333333333" y="60" opacity="0.7272727272727273">4</text><text x="405.3333333333333" y="80" opacity="0.6363636363636364">#</text><text x="405.3333333333333" y="100" opacity="0.5454545454545454">@</text><text x="405.3333333333333" y="120" opacity="0.4545454545454546">6</text><text x="405.3333333333333" y="140" opacity="0.36363636363636365">8</text><text x="405.3333333333333" y="160" opacity="0.2727272727272727">2</text><text x="405.3333333333333" y="180" opacity="0.18181818181818177">6</text><text x="405.3333333333333" y="200" opacity="0.09090909090909094">F</text><text x="447.99999999999994" y="0" opacity="1.0">B</text><text x="447.99999999999994" y="20" opacity="0.9523809523809523">^</text><text x="447.99999999999994" y="40" opacity="0.9047619047619048">1</text><text x="447.99999999999994" y="60" opacity="0.8571428571428572">7</text><text x="447.99999999999994" y="80" opacity="0.8095238095238095">7</text><text x="447.99999999999994" y="100" opacity="0.7619047619047619">6</text><text x="447.99999999999994" y="120" opacity="0.7142857142857143">7</text><text x="447.99999999999994" y="140" opacity="0.6666666666666667">@</text><text x="447.99999999999994" y="160" opacity="0.6190476190476191">^</text><text x="447.99999999999994" y="180" opacity="0.5714285714285714">6</text><text x="447.99999999999994" y="200" opacity="0.5238095238095238">1</text><text x="447.99999999999994" y="220" opacity="0.47619047619047616">$</text><text x="447.99999999999994" y="240" opacity="0.4285714285714286">7</text><text x="447.99999999999994" y="260" opacity="0.38095238095238093">D</text><text x="447.99999999999994" y="280" opacity="0.33333333333333337">C</text><text x="447.99999999999994" y="300" opacity="0.2857142857142857">D</text><text x="447.99999999999994" y="320" opacity="0.23809523809523814">A</text><text x="447.99999999999994" y="340" opacity="0.19047619047619047">4</text><text x="447.99999999999994" y="360" opacity="0.1428571428571429">#</text><text x="447.99999999999994" y="380" opacity="0.09523809523809523">6</text><text x="447.99999999999994" y="400" opacity="0.04761904761904767">C</text><text x="490.66666666666663" y="0" opacity="1.0">B</text><text x="490.66666666666663" y="20" opacity="0.9565217391304348">%</text><text x="490.66666666666663" y="40" opacity="0.9130434782608696">2</text><text x="490.66666666666663" y="60" opacity="0.8695652173913043">@</text><text x="490.66666666666663" y="80" opacity="0.8260869565217391">)</text><text x="490.66666666666663" y="100" opacity="0.782608695652174">9</text><text x="490.66666666666663" y="120" opacity="0.7391304347826086">8</text><text x="490.66666666666663" y="140" opacity="0.6956521739130435">1</text><text x="490.66666666666663" y="160" opacity="0.6521739130434783">B</text><text x="490.66666666666663" y="180" opacity="0.6086956521739131">5</text><text x="490.66666666666663" y="200" opacity="0.5652173913043479">*</text><text x="490.66666666666663" y="220" opacity="0.5217391304347826">A</text><text x="490.66666666666663" y="240" opacity="0.4782608695652174">5</text><text x="490.66666666666663" y="260" opacity="0.4347826086956522">8</text><text x="490.66666666666663" y="280" opacity="0.3913043478260869">(</text><text x="490.66666666666663" y="300" opacity="0.34782608695652173">1</text><text x="490.66666666666663" y="320" opacity="0.30434782608695654">F</text><text x="490.66666666666663" y="340" opacity="0.26086956521739135">C</text><text x="490.66666666666663" y="360" opacity="0.21739130434782605">&amp;</text><text x="490.66666666666663" y="380" opacity="0.17391304347826086">$</text><text x="490.66666666666663" y="400" opacity="0.13043478260869568">7</text><text x="490.66666666666663" y="420" opacity="0.08695652173913049">$</text><text x="490.66666666666663" y="440" opacity="0.04347826086956519">8</text></g></svg>