<svg xmlns="http://www.w3.org/2000/svg" width="512" height="512" viewBox="0 0 512 512"><rect width="512" height="512" fill="#232323" /><path d="M 220.69630087927155,274.80555312648573 A 40,40 0 0 1 294.5371329438382,266.71864657822715 M 290.9085183855327,275.5293457168161 A 40,40 0 0 1 294.3965200405567,267.211924401062 M 290.1073756382057,276.89705546421146 A 40,40 0 1 1 227.0313695593681,283.58293766795146" fill="none" stroke="#FF5252" stroke-width="3" opacity="0.5" /><path d="M 281.24872976281233,201.57113224249034 A 60,60 0 1 1 209.8405844429926,217.6684417817968" fill="none" stroke="#FF5252" stroke-width="3" opacity="0.55" /><path d="M 176.00011374000945,256.1349014031714 A 80,80 0 0 1 295.0215480409225,325.83780343402833 M 277.5162675332388,333.05225649802924 A 80,80 0 1 1 252.8063348283324,335.9362277241757" fill="none" stroke="#FF5252" stroke-width="3" opacity="0.6" /><path d="M 316.7124011405324,176.53929054085233 A 100,100 0 1 1 235.91245520155587,158.03832104352998" fill="none" stroke="#FF5252" stroke-width="3" opacity="0.65" /><path d="M 178.69574186765644,347.78263275047186 A 120,120 0 1 1 322.56807883960374,355.8433316731984" fill="none" stroke="#FF5252" stroke-width="3" opacity="0.7" /><path d="M 117.93318073029604,232.81480177469038 A 140,140 0 0 1 368.0631022695153,339.91579773637477 M 353.40079388838683,356.5638371876888 A 140,140 0 0 1 266.88509281740545,395.57619694760444 M 248.2108017506919,395.78314773474295 A 140,140 0 0 1 185.05851263115812,376.69509256757897 M 153.38319589267576,351.23545303509104 A 140,140 0 1 1 141.88028720584884,337.0968011192824" fill="none" stroke="#FF5252" stroke-width="3" opacity="0.75" /><path d="M 401.16985651270215,188.72658206927895 A 160,160 0 0 1 114.20955029572522,181.86857365017505 M 128.5873730821462,159.22178704950278 A 160,160 0 1 1 365.8117668407963,139.63258246698695" fill="none" stroke="#FF5252" stroke-width="3" opacity="0.8" /><path d="M 95.67334379551323,174.17480027345908 A 180,180 0 0 1 143.06126245908612,396.1600569444254 M 117.7107127579967,371.22184269529237 A 180,180 0 0 1 403.14092230313014,152.31996824950227 M 415.07773408416546,171.7724836015715 A 180,180 0 0 1 171.4500200235832,97.09342088513921 M 195.8843240463336,86.33531450347783 A 180,180 0 1 1 113.3486674031922,365.77521263179096" fill="none" stroke="#FF5252" stroke-width="3" opacity="0.8500000000000001" /></svg>