<svg xmlns="http://www.w3.org/2000/svg" width="512" height="512" viewBox="0 0 512 512"><rect width="512" height="512" fill="#1A1A1A" /><path d="M 283.30964876122636,226.77358926350263 A 40,40 0 0 1 290.3932680590156,276.423102414195 M 284.06820441264625,284.4986999887698 A 40,40 0 0 1 295.9998537199647,256.10817754584997 M 295.0433677034471,264.6957137932101 A 40,40 0 1 1 280.34843579196,224.26431544011064" fill="none" stroke="#00FF41" stroke-width="3" opacity="0.5" /><path d="M 196.00015649840637,256.13703935300236 A 60,60 0 0 1 217.99724712270174,302.4304940071393 M 207.96903525138367,291.9586766346758 A 60,60 0 1 1 196.14413907815316,260.15643035602994" fill="none" stroke="#00FF41" stroke-width="3" opacity="0.55" /><path d="M 178.57016897281258,235.88480009790595 A 80,80 0 0 1 331.60832606739297,282.14155751455496 M 325.72472377212114,295.2232443189164 A 80,80 0 0 1 331.38094004042773,282.79018250444443 M 320.42287976691904,303.43092411641476 A 80,80 0 0 1 244.0180102686125,335.09761009080444 M 227.53235998244213,330.7635838616016 A 80,80 0 1 1 197.62000033690938,310.6971264266921" fill="none" stroke="#00FF41" stroke-width="3" opacity="0.6" /><path d="M 339.6945509639337,201.2713773337433 A 100,100 0 1 1 312.64337050377156,173.58926903629322" fill="none" stroke="#00FF41" stroke-width="3" opacity="0.65" /><path d="M 199.64838511524093,150.05428040793817 A 120,120 0 0 1 332.0010929250863,163.13540031749238 M 346.9692342315842,177.74018640886516 A 120,120 0 0 1 335.28471798502403,346.0773750396581 M 312.26855805784095,361.9898550526954 A 120,120 0 0 1 338.1379167135708,168.5165007675476 M 349.9075994206121,181.29148126848008 A 120,120 0 1 1 137.70117379400403,235.8657575686702" fill="none" stroke="#00FF41" stroke-width="3" opacity="0.7" /><path d="M 198.33041527379626,128.4295528050983 A 140,140 0 0 1 393.7464159123801,230.9815087726378 M 395.83901080797733,249.28799163838406 A 140,140 0 1 1 156.15571228392662,157.86173931401703" fill="none" stroke="#00FF41" stroke-width="3" opacity="0.75" /><path d="M 121.76161510548386,343.06351716368766 A 160,160 0 0 1 202.86577975554601,105.08030400569362 M 238.72114568801413,96.93573250517525 A 160,160 0 1 1 127.90927892291506,351.8789193407624" fill="none" stroke="#00FF41" stroke-width="3" opacity="0.8" /><path d="M 314.69970063602216,426.15976359069555 A 180,180 0 0 1 175.25791001495287,416.87484236152824 M 158.98555257893128,407.61859052103307 A 180,180 0 1 1 366.25684847133516,398.27939894857946" fill="none" stroke="#00FF41" stroke-width="3" opacity="0.8500000000000001" /></svg>