<svg xmlns="http://www.w3.org/2000/svg" width="512" height="512" viewBox="0 0 512 512"><rect width="512" height="512" fill="#1A1A1A" /><path d="M 223.85639783627894,232.19267255779374 A 40,40 0 0 1 226.90137139517205,228.5542387003332 M 233.82858740722693,222.70693069659958 A 40,40 0 0 1 280.51889552812634,287.60417317508603 M 274.88130367426237,291.26324391714815 A 40,40 0 1 1 218.87011228970414,270.87855633523696" fill="none" stroke="#4CAF50" stroke-width="3" opacity="0.5" /><path d="M 211.01155132347336,216.30063620560745 A 60,60 0 1 1 201.6382706449625,230.60704070948694" fill="none" stroke="#4CAF50" stroke-width="3" opacity="0.55" /><path d="M 209.6944126167583,321.2364359625276 A 80,80 0 0 1 323.9309839106886,298.2537740909113 M 315.0802047107755,309.9400538684646 A 80,80 0 1 1 296.0781260426454,325.2368674400411" fill="none" stroke="#4CAF50" stroke-width="3" opacity="0.6" /><path d="M 189.31642961280446,330.52047665183 A 100,100 0 1 1 243.74911511213446,355.24674211007766" fill="none" stroke="#4CAF50" stroke-width="3" opacity="0.65" /><path d="M 348.2637321382746,179.27058105317934 A 120,120 0 0 1 369.155248042705,216.05141003246928 M 373.18575311518816,230.16399282346103 A 120,120 0 0 1 309.6626743067623,363.33274144568543 M 290.77939740281545,370.8494384674868 A 120,120 0 0 1 200.91063445148606,362.6075128847034 M 180.26760071077535,349.08385304604366 A 120,120 0 1 1 348.2214172182187,179.21972775339196" fill="none" stroke="#4CAF50" stroke-width="3" opacity="0.7" /><path d="M 254.15760790056274,116.01212341294718 A 140,140 0 0 1 258.165961027059,395.983244043097 M 217.56912142506124,390.6219431294851 A 140,140 0 1 1 157.08684736181357,156.92332143650134" fill="none" stroke="#4CAF50" stroke-width="3" opacity="0.75" /><path d="M 375.1601706067187,362.774780453896 A 160,160 0 1 1 399.6991710085813,185.6398674571564" fill="none" stroke="#4CAF50" stroke-width="3" opacity="0.8" /><path d="M 355.43357535296497,105.95679258118267 A 180,180 0 0 1 392.94190938064355,372.82000451627977 M 376.020972958076,390.14531691489185 A 180,180 0 0 1 408.9086242401275,161.0318335809757 M 428.76208817137547,205.47019799498614 A 180,180 0 1 1 198.73742236530396,85.3512461146276" fill="none" stroke="#4CAF50" stroke-width="3" opacity="0.8500000000000001" /></svg>