<svg xmlns="http://www.w3.org/2000/svg" width="512" height="512" viewBox="0 0 512 512"><rect width="512" height="512" fill="#8e44ad" /><rect x="176" y="176" width="20" height="20" fill="#f1c40f" /><rect x="196" y="176" width="20" height="20" fill="#2ecc71" /><rect x="236" y="176" width="20" height="20" fill="#2ecc71" /><rect x="256" y="176" width="20" height="20" fill="#e74c3c" /><rect x="296" y="176" width="20" height="20" fill="#ffffff" /><rect x="316" y="176" width="20" height="20" fill="#2ecc71" /><rect x="196" y="196" width="20" height="20" fill="#ffffff" /><rect x="216" y="196" width="20" height="20" fill="#f1c40f" /><rect x="236" y="196" width="20" height="20" fill="#3498db" /><rect x="276" y="196" width="20" height="20" fill="#3498db" /><rect x="296" y="196" width="20" height="20" fill="#e74c3c" /><rect x="276" y="216" width="20" height="20" fill="#3498db" /><rect x="296" y="216" width="20" height="20" fill="#f1c40f" /><rect x="176" y="236" width="20" height="20" fill="#3498db" /><rect x="196" y="236" width="20" height="20" fill="#ffffff" /><rect x="216" y="236" width="20" height="20" fill="#2ecc71" /><rect x="236" y="236" width="20" height="20" fill="#e74c3c" /><rect x="256" y="236" width="20" height="20" fill="#2ecc71" /><rect x="276" y="236" width="20" height="20" fill="#f1c40f" /><rect x="316" y="236" width="20" height="20" fill="#ffffff" /><rect x="196" y="256" width="20" height="20" fill="#2ecc71" /><rect x="236" y="256" width="20" height="20" fill="#2ecc71" /><rect x="256" y="256" width="20" height="20" fill="#e74c3c" /><rect x="276" y="256" width="20" height="20" fill="#ffffff" /><rect x="296" y="256" width="20" height="20" fill="#ffffff" /><rect x="316" y="256" width="20" height="20" fill="#f1c40f" /><rect x="176" y="276" width="20" height="20" fill="#f1c40f" /><rect x="196" y="276" width="20" height="20" fill="#f1c40f" /><rect x="216" y="276" width="20" height="20" fill="#f1c40f" /><rect x="256" y="276" width="20" height="20" fill="#f1c40f" /><rect x="176" y="296" width="20" height="20" fill="#3498db" /><rect x="236" y="296" width="20" height="20" fill="#ffffff" /><rect x="256" y="296" width="20" height="20" fill="#f1c40f" /><rect x="296" y="296" width="20" height="20" fill="#ffffff" /><rect x="196" y="316" width="20" height="20" fill="#2ecc71" /><rect x="276" y="316" width="20" height="20" fill="#3498db" /></svg>