<svg xmlns="http://www.w3.org/2000/svg" width="512" height="512" viewBox="0 0 512 512"><rect width="512" height="512" fill="#1abc9c" /><g stroke="#ffffff" stroke-width="2" opacity="0.7"><line x1="408" y1="211" x2="305" y2="368" /><line x1="480" y1="404" x2="364" y2="423" /><line x1="358" y1="180" x2="143" y2="59" /><line x1="402" y1="39" x2="8" y2="494" /><line x1="412" y1="143" x2="167" y2="440" /><line x1="159" y1="418" x2="395" y2="201" /><line x1="414" y1="420" x2="6" y2="317" /><line x1="239" y1="243" x2="460" y2="87" /><line x1="393" y1="475" x2="32" y2="509" /><line x1="294" y1="322" x2="218" y2="395" /><line x1="172" y1="288" x2="166" y2="492" /><line x1="115" y1="34" x2="492" y2="380" /><line x1="159" y1="179" x2="465" y2="466" /><line x1="101" y1="137" x2="304" y2="281" /><line x1="415" y1="310" x2="412" y2="496" /><line x1="499" y1="87" x2="22" y2="59" /><line x1="79" y1="286" x2="478" y2="478" /><line x1="6" y1="364" x2="373" y2="198" /><line x1="154" y1="344" x2="116" y2="212" /><line x1="117" y1="372" x2="265" y2="321" /></g></svg>