<svg xmlns="http://www.w3.org/2000/svg" width="512" height="512" viewBox="0 0 512 512"><rect width="512" height="512" fill="#dee051" /><path d="M 256,256 C 378.4,256.0 363.4161055753816,314.68168592515445 338.6662527978254,384.74506067560816 C 317.65971131946696,317.65971131946696 280.5502471156435,339.67272773467374 232.7875327476367,362.49967776504286 C 256.0,415.20000000000005 179.67545425421088,395.7111438529473 88.5472740232286,363.52015886775985 C 143.99428586005087,368.00571413994913 104.00733861040919,300.5958617330038 62.5418697479038,213.83423379845937 C 191.99999999999994,145.1487483155919 252.97963708276353,128.03564008737362 329.3734554331324,113.81583759854922 C 299.99999999999994,179.78976446696936 331.15076594075276,210.21394995723915 365.87750425577394,250.81019667787115 C 169.6,256.00000000000006 180.17686665267178,214.5776334645969 197.64735096624088,165.1211336407472 C 324.4000000000001,374.4722752377112 259.2280128677965,392.7619096566195 177.5821195058399,407.9593235665506 Z" fill="#e59c19" opacity="0.7788070822601003" /><path d="M 256,256 C 372.8,256.0 358.50164322879556,311.9969029089709 334.8841366567484,378.8547637819529 C 305.8791841486987,318.5465185974424 269.78670384382,334.8030887536954 223.89844701233525,350.7073930365531 C 161.50681505700612,324.65331746776087 140.16027497260006,270.94650813990927 119.96917453318741,202.97534042714113 C 169.45012998276658,342.54987001723345 138.55112528986166,290.4604386118666 106.50962662338023,223.4173624806277 C 344.8,255.99999999999997 333.9293314958651,298.5729878280532 315.97355595136355,349.40327931367653 C 314.79999999999995,154.15541251494994 356.42875084809685,194.81318767012868 402.836301141807,249.0645355604278 C 413.6,255.99999999999997 394.3070117539228,331.55746488402235 362.43955425602354,421.7697840071556 C 171.86223258500547,317.12966623841726 152.85503935916444,269.3085346451247 134.87666225557783,208.78626202416677 Z" fill="#84e09f" opacity="0.6762968060069001" /></svg>