<svg xmlns="http://www.w3.org/2000/svg" width="512" height="512" viewBox="0 0 512 512"><rect width="512" height="512" fill="#ab51e0" /><path d="M 0,256 L 0,256.0 L 20,293.28168136181927 L 40,313.1188496747081 L 60,306.2294734194974 L 80,275.8371683128888 L 100,236.1628316871112 L 120,205.77052658050258 L 140,198.8811503252919 L 160,218.7183186381807 L 180,256.0 L 200,293.28168136181927 L 220,313.1188496747081 L 240,306.2294734194975 L 260,275.83716831288876 L 280,236.16283168711126 L 300,205.77052658050255 L 320,198.8811503252919 L 340,218.71831863818073 L 360,255.99999999999997 L 380,293.2816813618193 L 400,313.1188496747081 L 420,306.2294734194974 L 440,275.8371683128888 L 460,236.16283168711126 L 480,205.7705265805026 L 500,198.8811503252919 L 512,256 L 512,512 L 0,512 Z" fill="#8819e5" opacity="0.7410834546515157" transform="rotate(118 256 256)" /><path d="M 0,256 L 0,256.0 L 20,281.9935308927508 L 40,304.851858336177 L 60,321.8179306876173 L 80,330.84538922892784 L 100,330.84538922892784 L 120,321.8179306876174 L 140,304.851858336177 L 160,281.9935308927508 L 180,256.0 L 200,230.0064691072492 L 220,207.14814166382303 L 240,190.18206931238268 L 260,181.15461077107219 L 280,181.15461077107219 L 300,190.18206931238268 L 320,207.148141663823 L 340,230.0064691072492 L 360,255.99999999999997 L 380,281.99353089275087 L 400,304.851858336177 L 420,321.8179306876174 L 440,330.84538922892784 L 460,330.84538922892784 L 480,321.8179306876174 L 500,304.8518583361771 L 512,256 L 512,512 L 0,512 Z" fill="#bd84e0" opacity="0.7784126477076957" transform="rotate(293 256 256)" /></svg>