<svg xmlns="http://www.w3.org/2000/svg" width="512" height="512" viewBox="0 0 512 512"><rect width="512" height="512" fill="#7751e0" /><path d="M 256,256 C 384.0,256.0 368.3305679219677,317.366468941338 342.4483689389024,390.6353575692634 C 332.813943588996,352.3216386400613 277.23152391948287,377.356756680691 206.5636083989963,401.84938527629186 C 148.8,256.0 161.92314936535203,204.60558226162945 183.59949101366925,143.24288803574188 C 143.5590852857781,310.14869064187127 131.36354882810474,249.61290055848755 123.10420308188691,174.30111897033328 C 344.8,255.99999999999997 333.9293314958651,298.5729878280532 315.97355595136355,349.40327931367653 C 143.4286004351016,143.42860043510163 211.178906642082,103.23969890642135 298.3787246166999,61.564808484004345 C 336.80427832089185,154.67463987214333 375.4903909341135,205.8182655300484 417.1513605919889,272.5601624192145 Z" fill="#e51961" opacity="0.741547895038235" /><path d="M 256,256 C 396.0,256.0 378.8615586646522,323.11957540458843 350.55290352692447,403.2574223413819 C 298.8,330.13177456394794 258.01986770090184,341.5761656915689 206.9315016790927,351.0856586059702 C 164.09566943900597,322.77240466042497 143.33396606924117,270.53701476621313 123.69604646378502,204.42807082639752 C 136.0,256.0 150.69009257315525,198.46893536749565 174.95465411977904,129.77935227881554 C 155.2,256.0 167.53967776145043,207.67390570869634 187.9219094606144,149.97465591420507 C 175.6726696572082,175.6726696572082 224.0171092621892,146.9951620337278 286.24009495262004,117.25730052627446 Z" fill="#e084de" opacity="0.769676769101511" /></svg>