<svg xmlns="http://www.w3.org/2000/svg" width="512" height="512" viewBox="0 0 512 512"><rect width="512" height="512" fill="#e74c3c" /><path d="M 0 100 L 0 93 L 20 107 L 40 103 L 60 115 L 80 112 L 100 106 L 120 113 L 140 116 L 160 101 L 180 94 L 200 83 L 220 117 L 240 82 L 260 117 L 280 101 L 300 99 L 320 82 L 340 87 L 360 81 L 380 100 L 400 115 L 420 108 L 440 93 L 460 116 L 480 95 L 500 111" stroke="#ffffff" stroke-width="3" fill="none" opacity="0.7" /><path d="M 0 180 L 0 179 L 20 197 L 40 199 L 60 172 L 80 189 L 100 164 L 120 180 L 140 172 L 160 172 L 180 181 L 200 187 L 220 198 L 240 163 L 260 170 L 280 195 L 300 164 L 320 194 L 340 176 L 360 162 L 380 198 L 400 163 L 420 162 L 440 185 L 460 174 L 480 164 L 500 177" stroke="#ffffff" stroke-width="3" fill="none" opacity="0.7" /><path d="M 0 260 L 0 276 L 20 272 L 40 249 L 60 259 L 80 254 L 100 261 L 120 261 L 140 246 L 160 241 L 180 246 L 200 259 L 220 278 L 240 274 L 260 276 L 280 275 L 300 248 L 320 268 L 340 256 L 360 263 L 380 251 L 400 243 L 420 253 L 440 243 L 460 257 L 480 264 L 500 244" stroke="#ffffff" stroke-width="3" fill="none" opacity="0.7" /><path d="M 0 340 L 0 320 L 20 356 L 40 338 L 60 335 L 80 325 L 100 343 L 120 360 L 140 335 L 160 337 L 180 360 L 200 324 L 220 330 L 240 332 L 260 347 L 280 335 L 300 331 L 320 347 L 340 340 L 360 334 L 380 331 L 400 358 L 420 353 L 440 356 L 460 342 L 480 356 L 500 346" stroke="#ffffff" stroke-width="3" fill="none" opacity="0.7" /><path d="M 0 420 L 0 425 L 20 438 L 40 417 L 60 439 L 80 435 L 100 435 L 120 419 L 140 401 L 160 440 L 180 414 L 200 426 L 220 407 L 240 422 L 260 403 L 280 406 L 300 413 L 320 429 L 340 423 L 360 440 L 380 436 L 400 405 L 420 429 L 440 404 L 460 427 L 480 410 L 500 437" stroke="#ffffff" stroke-width="3" fill="none" opacity="0.7" /></svg>