<svg xmlns="http://www.w3.org/2000/svg" width="512" height="512" viewBox="0 0 512 512"><rect width="512" height="512" fill="#9ce051" /><path d="M 256,256 C 372.8,256.0 358.50164322879556,311.9969029089709 334.8841366567484,378.8547637819529 C 296.5430296619931,380.77861493792415 231.75780116466854,384.9409003987031 152.13488552309366,382.9174455884578 C 145.97368876500718,335.93879431177635 121.1181283927535,273.40346838208615 97.6079429496018,194.25895803160267 C 255.99999999999997,175.2 294.7375835192196,185.09132899925788 340.98856946559755,201.42946710731786 C 128.0,256.0 143.6694320780323,194.63353105866202 169.55163106109762,121.36464243073658 C 414.4,255.99999999999997 395.00907780343505,331.94100531490574 362.97985656189167,422.6112549919635 C 304.94829190899173,406.6473521811523 226.73197945490475,411.672550481361 130.6018739851985,409.22959894216245 C 369.6,255.99999999999997 355.69337903074637,310.46274118543744 332.72292743327586,375.4888798427213 Z" fill="#1933e5" opacity="0.8847011549916173" /><path d="M 256,256 C 404.0,256.0 385.88221915977516,326.95497971342206 355.9559265856059,411.67213218946085 C 345.28373962617064,367.9582682894219 280.6781998804379,397.0575288691148 198.5382201520801,425.52623353543015 C 233.74790660436855,353.49279121818233 189.7314169306337,330.8897516218241 138.4247344873907,298.43886119630724 C 160.8,256.0 172.4541401080365,210.35868872487987 191.70402560169137,155.86495280786033 C 188.79999999999995,139.60618573137148 252.8286189369017,121.63742209174228 333.04212820478904,106.70662947847669 C 381.6,255.99999999999997 366.22436977343085,316.2158476486879 340.82746202129795,388.1109446148397 C 255.99999999999997,116.79999999999998 322.73603497370505,133.8405073848601 402.41595135657394,161.98739877894366 C 315.6000000000001,359.23022813110504 258.8127129666765,375.16681016863333 187.67096962789557,388.4090012363511 Z" fill="#84b8e0" opacity="0.7450844325975139" /></svg>