<svg xmlns="http://www.w3.org/2000/svg" width="512" height="512" viewBox="0 0 512 512"><rect width="512" height="512" fill="#c0e051" /><path d="M 0,256 L 0,256.0 L 20,306.13743355555005 L 40,332.81500473495225 L 60,323.5499814951862 L 80,282.67757117940215 L 100,229.32242882059785 L 120,188.4500185048138 L 140,179.18499526504775 L 160,205.8625664444499 L 180,255.99999999999997 L 200,306.13743355555005 L 220,332.81500473495225 L 240,323.5499814951863 L 260,282.67757117940215 L 280,229.3224288205979 L 300,188.45001850481378 L 320,179.18499526504775 L 340,205.86256644444995 L 360,255.99999999999997 L 380,306.1374335555501 L 400,332.81500473495225 L 420,323.5499814951862 L 440,282.67757117940215 L 460,229.3224288205979 L 480,188.45001850481384 L 500,179.18499526504775 L 512,256 L 512,512 L 0,512 Z" fill="#192fe5" opacity="0.680697189868226" transform="rotate(267 256 256)" /><path d="M 0,256 L 0,256.0 L 20,309.6935750346352 L 40,309.6935750346352 L 60,256.0 L 80,202.3064249653648 L 100,202.3064249653648 L 120,255.99999999999997 L 140,309.6935750346352 L 160,309.6935750346352 L 180,256.0 L 200,202.30642496536478 L 220,202.30642496536478 L 240,255.99999999999997 L 260,309.69357503463516 L 280,309.69357503463516 L 300,256.00000000000006 L 320,202.30642496536487 L 340,202.3064249653648 L 360,255.99999999999994 L 380,309.6935750346353 L 400,309.69357503463516 L 420,256.00000000000006 L 440,202.30642496536487 L 460,202.3064249653648 L 480,255.99999999999994 L 500,309.69357503463516 L 512,256 L 512,512 L 0,512 Z" fill="#95e084" opacity="0.6625014130382021" transform="rotate(245 256 256)" /></svg>