<svg xmlns="http://www.w3.org/2000/svg" width="512" height="512" viewBox="0 0 512 512"><rect width="512" height="512" fill="#8751e0" /><path d="M 0,256 L 0,256.0 L 20,276.8632287428658 L 40,295.2100441908789 L 60,308.82754963085074 L 80,316.0732729337447 L 100,316.0732729337447 L 120,308.82754963085074 L 140,295.21004419087893 L 160,276.8632287428658 L 180,256.0 L 200,235.1367712571342 L 220,216.7899558091211 L 240,203.17245036914926 L 260,195.9267270662553 L 280,195.9267270662553 L 300,203.17245036914926 L 320,216.78995580912107 L 340,235.13677125713423 L 360,255.99999999999997 L 380,276.86322874286583 L 400,295.2100441908789 L 420,308.82754963085074 L 440,316.0732729337447 L 460,316.0732729337447 L 480,308.8275496308508 L 500,295.210044190879 L 512,256 L 512,512 L 0,512 Z" fill="#e519c9" opacity="0.8950582850423205" transform="rotate(133 256 256)" /><path d="M 0,256 L 0,256.0 L 20,279.9414100327968 L 40,300.99513267805776 L 60,316.6217782649107 L 80,324.93654271085455 L 100,324.93654271085455 L 120,316.6217782649107 L 140,300.99513267805776 L 160,279.9414100327968 L 180,256.0 L 200,232.0585899672032 L 220,211.00486732194224 L 240,195.3782217350893 L 260,187.06345728914545 L 280,187.06345728914545 L 300,195.3782217350893 L 320,211.00486732194224 L 340,232.0585899672032 L 360,255.99999999999997 L 380,279.94141003279685 L 400,300.99513267805776 L 420,316.62177826491074 L 440,324.93654271085455 L 460,324.93654271085455 L 480,316.62177826491074 L 500,300.9951326780578 L 512,256 L 512,512 L 0,512 Z" fill="#d784e0" opacity="0.8295907956927853" transform="rotate(192 256 256)" /></svg>