<svg xmlns="http://www.w3.org/2000/svg" width="512" height="512" viewBox="0 0 512 512"><rect width="512" height="512" fill="#16a085" /><path d="M 0 100 L 0 115 L 20 93 L 40 88 L 60 88 L 80 117 L 100 80 L 120 92 L 140 107 L 160 89 L 180 96 L 200 89 L 220 87 L 240 97 L 260 103 L 280 82 L 300 89 L 320 83 L 340 105 L 360 81 L 380 109 L 400 120 L 420 104 L 440 102 L 460 95 L 480 86 L 500 108" stroke="#ffffff" stroke-width="3" fill="none" opacity="0.7" /><path d="M 0 180 L 0 186 L 20 183 L 40 161 L 60 186 L 80 191 L 100 198 L 120 196 L 140 168 L 160 165 L 180 191 L 200 191 L 220 200 L 240 168 L 260 196 L 280 171 L 300 176 L 320 195 L 340 171 L 360 179 L 380 185 L 400 192 L 420 196 L 440 160 L 460 198 L 480 198 L 500 189" stroke="#ffffff" stroke-width="3" fill="none" opacity="0.7" /><path d="M 0 260 L 0 267 L 20 276 L 40 278 L 60 273 L 80 245 L 100 241 L 120 245 L 140 263 L 160 276 L 180 258 L 200 257 L 220 258 L 240 260 L 260 250 L 280 265 L 300 270 L 320 263 L 340 268 L 360 255 L 380 255 L 400 271 L 420 279 L 440 273 L 460 262 L 480 253 L 500 242" stroke="#ffffff" stroke-width="3" fill="none" opacity="0.7" /><path d="M 0 340 L 0 328 L 20 320 L 40 338 L 60 333 L 80 323 L 100 329 L 120 348 L 140 350 L 160 330 L 180 342 L 200 354 L 220 342 L 240 321 L 260 331 L 280 325 L 300 352 L 320 350 L 340 342 L 360 336 L 380 342 L 400 328 L 420 357 L 440 357 L 460 320 L 480 335 L 500 357" stroke="#ffffff" stroke-width="3" fill="none" opacity="0.7" /><path d="M 0 420 L 0 418 L 20 403 L 40 426 L 60 409 L 80 414 L 100 406 L 120 408 L 140 421 L 160 439 L 180 413 L 200 413 L 220 413 L 240 426 L 260 404 L 280 437 L 300 420 L 320 402 L 340 421 L 360 403 L 380 434 L 400 405 L 420 426 L 440 421 L 460 413 L 480 428 L 500 423" stroke="#ffffff" stroke-width="3" fill="none" opacity="0.7" /></svg>