<svg xmlns="http://www.w3.org/2000/svg" width="512" height="512" viewBox="0 0 512 512"><rect width="512" height="512" fill="#e06251" /><path d="M 0,256 L 0,256.0 L 20,323.5499814951862 L 40,323.5499814951862 L 60,256.0 L 80,188.4500185048138 L 100,188.45001850481378 L 120,255.99999999999997 L 140,323.5499814951862 L 160,323.5499814951863 L 180,256.00000000000006 L 200,188.45001850481378 L 220,188.45001850481373 L 240,255.99999999999997 L 260,323.54998149518616 L 280,323.5499814951862 L 300,256.00000000000006 L 320,188.45001850481384 L 340,188.4500185048138 L 360,255.99999999999994 L 380,323.5499814951863 L 400,323.5499814951862 L 420,256.00000000000006 L 440,188.45001850481387 L 460,188.45001850481378 L 480,255.99999999999991 L 500,323.5499814951861 L 512,256 L 512,512 L 0,512 Z" fill="#e5a319" opacity="0.7672964735373294" transform="rotate(329 256 256)" /><path d="M 0,256 L 0,256.0 L 20,301.89934640057527 L 40,301.89934640057527 L 60,256.0 L 80,210.10065359942476 L 100,210.10065359942476 L 120,256.0 L 140,301.89934640057527 L 160,301.89934640057527 L 180,256.0 L 200,210.10065359942473 L 220,210.10065359942473 L 240,255.99999999999997 L 260,301.8993464005752 L 280,301.8993464005752 L 300,256.00000000000006 L 320,210.1006535994248 L 340,210.10065359942476 L 360,255.99999999999997 L 380,301.89934640057527 L 400,301.89934640057527 L 420,256.00000000000006 L 440,210.10065359942482 L 460,210.10065359942476 L 480,255.99999999999994 L 500,301.8993464005752 L 512,256 L 512,512 L 0,512 Z" fill="#e084c3" opacity="0.7218810703926464" transform="rotate(2 256 256)" /></svg>