<svg xmlns="http://www.w3.org/2000/svg" width="512" height="512" viewBox="0 0 512 512"><rect width="512" height="512" fill="#e08051" /><path d="M 256,256 C 366.4,256.0 352.8851148326971,308.928579461904 330.5617182098033,372.1229959034897 C 256.0,348.8 211.50931001752997,337.4396617434266 158.389365762284,318.67506748070423 C 206.4,341.9097200554163 171.28459112133328,307.61336550274854 132.13808611167303,261.8503237449452 C 189.98421325900426,208.03672341293418 221.06051645760485,182.2586107413842 261.8640297305905,154.16870247650405 C 345.6,255.99999999999997 334.6313975453774,298.9565282589366 316.5138582572317,350.2447502984844 C 390.4,255.99999999999997 373.9470963180661,320.43479238840484 346.7707873858475,397.3671254477266 C 280.72135954999584,332.0845213036123 241.21817144187108,334.62250024311163 192.6676131238376,333.3886863344255 Z" fill="#e5c719" opacity="0.8962866639157214" /><path d="M 256,256 C 394.4,256.0 377.4574265656276,322.3524945428217 349.47229891518816,401.5744803717661 C 337.80186200386584,358.5762904998055 278.6101943038649,385.2370655560605 203.35345310022984,411.3201245799471 C 256.0,366.4 203.071420538096,352.8851148326971 139.8770040965103,330.5617182098033 C 126.55728090000841,161.95435963320432 187.49120874040167,111.40904066938077 267.4980975109618,56.3307891696158 Z" fill="#e0cb84" opacity="0.7563083612534336" /></svg>