<svg xmlns="http://www.w3.org/2000/svg" width="512" height="512" viewBox="0 0 512 512"><rect width="512" height="512" fill="#1abc9c" /><g stroke="#ffffff" stroke-width="2" opacity="0.7"><line x1="335" y1="195" x2="125" y2="460" /><line x1="196" y1="15" x2="129" y2="96" /><line x1="318" y1="253" x2="263" y2="482" /><line x1="393" y1="192" x2="224" y2="253" /><line x1="285" y1="431" x2="226" y2="253" /><line x1="51" y1="471" x2="92" y2="445" /><line x1="421" y1="334" x2="76" y2="248" /><line x1="453" y1="223" x2="327" y2="43" /><line x1="39" y1="339" x2="8" y2="34" /><line x1="386" y1="255" x2="179" y2="329" /><line x1="457" y1="150" x2="102" y2="240" /><line x1="379" y1="351" x2="330" y2="467" /><line x1="260" y1="283" x2="362" y2="117" /><line x1="362" y1="162" x2="191" y2="44" /><line x1="284" y1="10" x2="402" y2="238" /><line x1="445" y1="381" x2="200" y2="129" /><line x1="71" y1="258" x2="116" y2="460" /><line x1="471" y1="152" x2="276" y2="109" /><line x1="187" y1="330" x2="61" y2="274" /><line x1="99" y1="319" x2="130" y2="70" /></g></svg>