<svg xmlns="http://www.w3.org/2000/svg" width="512" height="512" viewBox="0 0 512 512"><rect width="512" height="512" fill="#e051bc" /><path d="M 256,256 C 384.8,256.0 369.03263397148004,317.75000937222137 342.9886712447705,391.47682855407135 C 299.5095928079926,389.9087574943576 229.98398173769309,394.3756004278764 144.53499909795417,392.20408794858884 C 133.6,256.0 148.58389442461836,197.31831407484555 173.3337472021746,127.25493932439184 C 122.4,256.0 138.7549697314462,191.94874804247848 165.76951492002064,115.47434553708129 C 120.0,256.0 136.64877158290932,190.7981267498284 164.14860800241624,112.94993258265762 C 231.07765539689277,146.80807383563575 286.47798298747114,148.22666121430856 354.02029673237433,156.03990081788993 C 336.8,255.99999999999997 326.9086710007421,294.7375835192196 310.57053289268214,340.98856946559755 C 334.6302740679441,177.3697259320559 362.7019188543087,224.69280413693167 391.8115156820271,285.60121970714215 Z" fill="#ae19e5" opacity="0.8908435125639504" /><path d="M 256,256 C 396.8,256.0 379.56362471416446,323.5031158354718 351.0932058327926,404.0988933261898 C 300.7456607854924,393.7129835595382 229.24489030978663,398.306725440032 141.36837975414605,396.0735222653101 C 191.20000000000005,368.23689233046326 145.3234174327096,323.4303646084295 94.18040282331475,263.6431648925897 C 153.74025191100662,181.70394411023142 201.87805490491732,141.77314212881078 265.08349703365985,98.26132344399647 C 183.2017154734845,220.9421938793013 208.92110254569397,190.33252392175456 243.70880706083426,155.75067792681986 C 153.6109380841879,153.61093808418792 215.2330758905369,117.05721357820232 294.54547314383257,79.1519112341949 Z" fill="#9f84e0" opacity="0.8805488415288472" /></svg>