<svg xmlns="http://www.w3.org/2000/svg" width="512" height="512" viewBox="0 0 512 512"><rect width="512" height="512" fill="#16a085" /><g stroke="#ffffff" stroke-width="2" opacity="0.7"><line x1="22" y1="388" x2="289" y2="423" /><line x1="199" y1="183" x2="77" y2="312" /><line x1="159" y1="15" x2="197" y2="311" /><line x1="132" y1="248" x2="192" y2="285" /><line x1="100" y1="234" x2="328" y2="375" /><line x1="335" y1="441" x2="157" y2="289" /><line x1="405" y1="266" x2="355" y2="51" /><line x1="411" y1="449" x2="459" y2="243" /><line x1="405" y1="206" x2="168" y2="173" /><line x1="369" y1="483" x2="346" y2="62" /><line x1="375" y1="283" x2="91" y2="192" /><line x1="163" y1="293" x2="191" y2="495" /><line x1="446" y1="186" x2="100" y2="165" /><line x1="73" y1="388" x2="81" y2="18" /><line x1="110" y1="469" x2="318" y2="159" /><line x1="406" y1="190" x2="36" y2="285" /><line x1="84" y1="347" x2="90" y2="139" /><line x1="420" y1="292" x2="431" y2="31" /><line x1="150" y1="353" x2="330" y2="48" /><line x1="429" y1="77" x2="218" y2="358" /></g></svg>