<svg xmlns="http://www.w3.org/2000/svg" width="512" height="512" viewBox="0 0 512 512"><rect width="512" height="512" fill="#34495e" /><g fill="none" stroke="#ffffff" stroke-width="4"><line x1="185" y1="323" x2="321" y2="422" /><line x1="105" y1="336" x2="196" y2="266" /><line x1="240" y1="85" x2="312" y2="-48" /><line x1="67" y1="258" x2="162" y2="117" /><line x1="346" y1="139" x2="430" y2="40" /><line x1="295" y1="389" x2="388" y2="470" /><line x1="333" y1="165" x2="210" y2="311" /><line x1="381" y1="428" x2="520" y2="321" /><line x1="400" y1="426" x2="343" y2="346" /><line x1="126" y1="459" x2="216" y2="551" /></g><circle cx="400" cy="338" r="9" fill="#ffffff" /><circle cx="97" cy="171" r="13" fill="#ffffff" /><circle cx="210" cy="328" r="11" fill="#ffffff" /><circle cx="231" cy="367" r="6" fill="#ffffff" /><circle cx="260" cy="218" r="13" fill="#ffffff" /><circle cx="211" cy="168" r="6" fill="#ffffff" /><circle cx="247" cy="205" r="14" fill="#ffffff" /><circle cx="414" cy="169" r="14" fill="#ffffff" /></svg>