<svg xmlns="http://www.w3.org/2000/svg" width="512" height="512" viewBox="0 0 512 512"><rect width="512" height="512" fill="#34495e" /><g fill="none" stroke="#ffffff" stroke-width="4"><line x1="57" y1="85" x2="138" y2="-65" /><line x1="208" y1="311" x2="350" y2="407" /><line x1="55" y1="329" x2="201" y2="182" /><line x1="108" y1="316" x2="253" y2="383" /><line x1="178" y1="72" x2="119" y2="148" /><line x1="195" y1="114" x2="108" y2="223" /><line x1="330" y1="89" x2="411" y2="-35" /><line x1="441" y1="221" x2="377" y2="333" /><line x1="301" y1="147" x2="170" y2="279" /><line x1="51" y1="336" x2="-30" y2="209" /></g><circle cx="250" cy="250" r="11" fill="#ffffff" /><circle cx="320" cy="407" r="13" fill="#ffffff" /><circle cx="160" cy="406" r="14" fill="#ffffff" /><circle cx="194" cy="390" r="15" fill="#ffffff" /><circle cx="280" cy="191" r="6" fill="#ffffff" /><circle cx="329" cy="426" r="10" fill="#ffffff" /><circle cx="221" cy="80" r="10" fill="#ffffff" /><circle cx="163" cy="99" r="9" fill="#ffffff" /></svg>