<svg xmlns="http://www.w3.org/2000/svg" width="512" height="512" viewBox="0 0 512 512"><rect width="512" height="512" fill="#16a085" /><g fill="none" stroke="#ffffff" stroke-width="4"><line x1="122" y1="294" x2="239" y2="425" /><line x1="284" y1="453" x2="161" y2="532" /><line x1="264" y1="364" x2="167" y2="282" /><line x1="146" y1="310" x2="49" y2="454" /><line x1="282" y1="261" x2="188" y2="209" /><line x1="144" y1="169" x2="208" y2="64" /><line x1="404" y1="333" x2="341" y2="410" /><line x1="118" y1="445" x2="-21" y2="585" /><line x1="333" y1="68" x2="210" y2="2" /><line x1="187" y1="413" x2="308" y2="497" /></g><circle cx="288" cy="428" r="10" fill="#ffffff" /><circle cx="419" cy="209" r="15" fill="#ffffff" /><circle cx="322" cy="236" r="11" fill="#ffffff" /><circle cx="304" cy="133" r="9" fill="#ffffff" /><circle cx="159" cy="344" r="9" fill="#ffffff" /><circle cx="333" cy="286" r="6" fill="#ffffff" /><circle cx="273" cy="315" r="15" fill="#ffffff" /><circle cx="166" cy="137" r="8" fill="#ffffff" /></svg>