<svg xmlns="http://www.w3.org/2000/svg" width="512" height="512" viewBox="0 0 512 512"><rect width="512" height="512" fill="#1A202C" /><g fill="none" stroke="#8B5CF6" stroke-width="2"><line x1="103" y1="310" x2="422" y2="167" opacity="0.6" /><line x1="103" y1="310" x2="299" y2="313" opacity="0.6" /><line x1="299" y1="313" x2="103" y2="310" opacity="0.6" /><line x1="394" y1="84" x2="422" y2="167" opacity="0.6" /><line x1="394" y1="84" x2="103" y2="310" opacity="0.6" /><line x1="343" y1="421" x2="299" y2="313" opacity="0.6" /><line x1="343" y1="421" x2="379" y2="367" opacity="0.6" /><line x1="422" y1="167" x2="299" y2="313" opacity="0.6" /><line x1="422" y1="167" x2="103" y2="310" opacity="0.6" /><line x1="422" y1="167" x2="258" y2="288" opacity="0.6" /><line x1="379" y1="367" x2="103" y2="310" opacity="0.6" /><line x1="104" y1="338" x2="422" y2="167" opacity="0.6" /><line x1="84" y1="117" x2="379" y2="367" opacity="0.6" /><line x1="84" y1="117" x2="103" y2="310" opacity="0.6" /><line x1="84" y1="117" x2="394" y2="84" opacity="0.6" /><line x1="258" y1="288" x2="422" y2="167" opacity="0.6" /></g><circle cx="103" cy="310" r="8" fill="#8B5CF6" /><circle cx="299" cy="313" r="8" fill="#8B5CF6" /><circle cx="394" cy="84" r="8" fill="#8B5CF6" /><circle cx="343" cy="421" r="8" fill="#8B5CF6" /><circle cx="422" cy="167" r="8" fill="#8B5CF6" /><circle cx="379" cy="367" r="8" fill="#8B5CF6" /><circle cx="104" cy="338" r="8" fill="#8B5CF6" /><circle cx="84" cy="117" r="8" fill="#8B5CF6" /><circle cx="258" cy="288" r="8" fill="#8B5CF6" /></svg>