<svg xmlns="http://www.w3.org/2000/svg" width="512" height="512" viewBox="0 0 512 512"><rect width="512" height="512" fill="#0A1929" /><g fill="none" stroke="#4F46E5" stroke-width="3"><line x1="87" y1="114" x2="87" y2="212" /><line x1="87" y1="212" x2="274" y2="212" /><line x1="425" y1="375" x2="168" y2="375" /><line x1="168" y1="375" x2="168" y2="166" /><line x1="270" y1="276" x2="104" y2="276" /><line x1="104" y1="276" x2="104" y2="332" /><line x1="211" y1="322" x2="104" y2="322" /><line x1="104" y1="322" x2="104" y2="411" /><line x1="142" y1="459" x2="142" y2="58" /><line x1="142" y1="58" x2="458" y2="58" /><line x1="63" y1="382" x2="159" y2="382" /><line x1="159" y1="382" x2="159" y2="167" /><line x1="336" y1="342" x2="336" y2="282" /><line x1="336" y1="282" x2="457" y2="282" /><line x1="292" y1="278" x2="292" y2="177" /><line x1="292" y1="177" x2="164" y2="177" /><line x1="113" y1="284" x2="251" y2="284" /><line x1="251" y1="284" x2="251" y2="177" /><line x1="81" y1="166" x2="81" y2="230" /><line x1="81" y1="230" x2="313" y2="230" /><line x1="310" y1="224" x2="310" y2="459" /><line x1="310" y1="459" x2="243" y2="459" /><line x1="417" y1="221" x2="417" y2="134" /><line x1="417" y1="134" x2="224" y2="134" /><line x1="92" y1="418" x2="92" y2="347" /><line x1="92" y1="347" x2="345" y2="347" /><line x1="141" y1="128" x2="141" y2="117" /><line x1="141" y1="117" x2="146" y2="117" /><line x1="132" y1="206" x2="132" y2="283" /><line x1="132" y1="283" x2="246" y2="283" /></g><circle cx="87" cy="114" r="5" fill="#4F46E5" /><circle cx="274" cy="212" r="5" fill="#4F46E5" /><circle cx="425" cy="375" r="5" fill="#4F46E5" /><circle cx="168" cy="166" r="5" fill="#4F46E5" /><circle cx="270" cy="276" r="5" fill="#4F46E5" /><circle cx="104" cy="332" r="5" fill="#4F46E5" /><circle cx="211" cy="322" r="5" fill="#4F46E5" /><circle cx="104" cy="411" r="5" fill="#4F46E5" /><circle cx="142" cy="459" r="5" fill="#4F46E5" /><circle cx="458" cy="58" r="5" fill="#4F46E5" /><circle cx="63" cy="382" r="5" fill="#4F46E5" /><circle cx="159" cy="167" r="5" fill="#4F46E5" /><circle cx="336" cy="342" r="5" fill="#4F46E5" /><circle cx="457" cy="282" r="5" fill="#4F46E5" /><circle cx="292" cy="278" r="5" fill="#4F46E5" /><circle cx="164" cy="177" r="5" fill="#4F46E5" /><circle cx="113" cy="284" r="5" fill="#4F46E5" /><circle cx="251" cy="177" r="5" fill="#4F46E5" /><circle cx="81" cy="166" r="5" fill="#4F46E5" /><circle cx="313" cy="230" r="5" fill="#4F46E5" /><circle cx="310" cy="224" r="5" fill="#4F46E5" /><circle cx="243" cy="459" r="5" fill="#4F46E5" /><circle cx="417" cy="221" r="5" fill="#4F46E5" /><circle cx="224" cy="134" r="5" fill="#4F46E5" /><circle cx="92" cy="418" r="5" fill="#4F46E5" /><circle cx="345" cy="347" r="5" fill="#4F46E5" /><circle cx="141" cy="128" r="5" fill="#4F46E5" /><circle cx="146" cy="117" r="5" fill="#4F46E5" /><circle cx="132" cy="206" r="5" fill="#4F46E5" /><circle cx="246" cy="283" r="5" fill="#4F46E5" /></svg>