<svg xmlns="http://www.w3.org/2000/svg" width="512" height="512" viewBox="0 0 512 512"><rect width="512" height="512" fill="#16a085" /><g fill="none" stroke="#ffffff" stroke-width="4"><line x1="376" y1="404" x2="254" y2="337" /><line x1="169" y1="225" x2="21" y2="148" /><line x1="118" y1="134" x2="60" y2="228" /><line x1="261" y1="160" x2="121" y2="106" /><line x1="196" y1="297" x2="275" y2="372" /><line x1="341" y1="453" x2="463" y2="325" /><line x1="229" y1="227" x2="164" y2="312" /><line x1="53" y1="332" x2="-89" y2="456" /><line x1="383" y1="183" x2="517" y2="128" /><line x1="309" y1="275" x2="412" y2="407" /></g><circle cx="276" cy="113" r="12" fill="#ffffff" /><circle cx="160" cy="429" r="10" fill="#ffffff" /><circle cx="141" cy="312" r="8" fill="#ffffff" /><circle cx="293" cy="151" r="14" fill="#ffffff" /><circle cx="238" cy="233" r="12" fill="#ffffff" /><circle cx="381" cy="238" r="8" fill="#ffffff" /><circle cx="430" cy="182" r="14" fill="#ffffff" /><circle cx="343" cy="122" r="12" fill="#ffffff" /></svg>