<svg xmlns="http://www.w3.org/2000/svg" width="512" height="512" viewBox="0 0 512 512"><rect width="512" height="512" fill="#2c3e50" /><g fill="none" stroke="#ffffff" stroke-width="4"><line x1="446" y1="301" x2="351" y2="393" /><line x1="337" y1="128" x2="480" y2="212" /><line x1="416" y1="156" x2="328" y2="47" /><line x1="320" y1="441" x2="203" y2="344" /><line x1="382" y1="171" x2="461" y2="294" /><line x1="359" y1="429" x2="304" y2="344" /><line x1="178" y1="255" x2="276" y2="376" /><line x1="287" y1="231" x2="172" y2="107" /><line x1="293" y1="129" x2="233" y2="-11" /><line x1="64" y1="52" x2="5" y2="-27" /></g><circle cx="388" cy="363" r="9" fill="#ffffff" /><circle cx="92" cy="277" r="8" fill="#ffffff" /><circle cx="341" cy="381" r="14" fill="#ffffff" /><circle cx="237" cy="147" r="5" fill="#ffffff" /><circle cx="140" cy="260" r="13" fill="#ffffff" /><circle cx="151" cy="328" r="9" fill="#ffffff" /><circle cx="247" cy="399" r="10" fill="#ffffff" /><circle cx="296" cy="405" r="12" fill="#ffffff" /></svg>