<svg xmlns="http://www.w3.org/2000/svg" width="512" height="512" viewBox="0 0 512 512"><rect width="512" height="512" fill="#0A1929" /><g fill="none" stroke="#38BDF8" stroke-width="3"><line x1="187" y1="152" x2="187" y2="290" /><line x1="187" y1="290" x2="361" y2="290" /><line x1="459" y1="73" x2="376" y2="73" /><line x1="376" y1="73" x2="376" y2="381" /><line x1="246" y1="427" x2="246" y2="343" /><line x1="246" y1="343" x2="319" y2="343" /><line x1="274" y1="348" x2="66" y2="348" /><line x1="66" y1="348" x2="66" y2="336" /><line x1="290" y1="68" x2="290" y2="85" /><line x1="290" y1="85" x2="396" y2="85" /><line x1="217" y1="319" x2="304" y2="319" /><line x1="304" y1="319" x2="304" y2="67" /><line x1="110" y1="407" x2="290" y2="407" /><line x1="290" y1="407" x2="290" y2="105" /><line x1="230" y1="111" x2="379" y2="111" /><line x1="379" y1="111" x2="379" y2="131" /><line x1="239" y1="75" x2="462" y2="75" /><line x1="462" y1="75" x2="462" y2="311" /><line x1="234" y1="168" x2="234" y2="136" /><line x1="234" y1="136" x2="321" y2="136" /><line x1="444" y1="203" x2="444" y2="333" /><line x1="444" y1="333" x2="167" y2="333" /><line x1="280" y1="346" x2="249" y2="346" /><line x1="249" y1="346" x2="249" y2="130" /><line x1="416" y1="441" x2="416" y2="339" /><line x1="416" y1="339" x2="420" y2="339" /><line x1="277" y1="163" x2="185" y2="163" /><line x1="185" y1="163" x2="185" y2="430" /><line x1="323" y1="407" x2="323" y2="285" /><line x1="323" y1="285" x2="203" y2="285" /></g><circle cx="187" cy="152" r="5" fill="#38BDF8" /><circle cx="361" cy="290" r="5" fill="#38BDF8" /><circle cx="459" cy="73" r="5" fill="#38BDF8" /><circle cx="376" cy="381" r="5" fill="#38BDF8" /><circle cx="246" cy="427" r="5" fill="#38BDF8" /><circle cx="319" cy="343" r="5" fill="#38BDF8" /><circle cx="274" cy="348" r="5" fill="#38BDF8" /><circle cx="66" cy="336" r="5" fill="#38BDF8" /><circle cx="290" cy="68" r="5" fill="#38BDF8" /><circle cx="396" cy="85" r="5" fill="#38BDF8" /><circle cx="217" cy="319" r="5" fill="#38BDF8" /><circle cx="304" cy="67" r="5" fill="#38BDF8" /><circle cx="110" cy="407" r="5" fill="#38BDF8" /><circle cx="290" cy="105" r="5" fill="#38BDF8" /><circle cx="230" cy="111" r="5" fill="#38BDF8" /><circle cx="379" cy="131" r="5" fill="#38BDF8" /><circle cx="239" cy="75" r="5" fill="#38BDF8" /><circle cx="462" cy="311" r="5" fill="#38BDF8" /><circle cx="234" cy="168" r="5" fill="#38BDF8" /><circle cx="321" cy="136" r="5" fill="#38BDF8" /><circle cx="444" cy="203" r="5" fill="#38BDF8" /><circle cx="167" cy="333" r="5" fill="#38BDF8" /><circle cx="280" cy="346" r="5" fill="#38BDF8" /><circle cx="249" cy="130" r="5" fill="#38BDF8" /><circle cx="416" cy="441" r="5" fill="#38BDF8" /><circle cx="420" cy="339" r="5" fill="#38BDF8" /><circle cx="277" cy="163" r="5" fill="#38BDF8" /><circle cx="185" cy="430" r="5" fill="#38BDF8" /><circle cx="323" cy="407" r="5" fill="#38BDF8" /><circle cx="203" cy="285" r="5" fill="#38BDF8" /></svg>