<svg xmlns="http://www.w3.org/2000/svg" width="512" height="512" viewBox="0 0 512 512"><rect width="512" height="512" fill="#34495e" /><g fill="none" stroke="#ffffff" stroke-width="4"><line x1="297" y1="374" x2="166" y2="510" /><line x1="381" y1="94" x2="471" y2="146" /><line x1="118" y1="269" x2="170" y2="120" /><line x1="53" y1="426" x2="-1" y2="322" /><line x1="112" y1="58" x2="220" y2="167" /><line x1="314" y1="104" x2="248" y2="28" /><line x1="453" y1="93" x2="351" y2="155" /><line x1="315" y1="102" x2="229" y2="161" /><line x1="359" y1="104" x2="270" y2="193" /><line x1="412" y1="126" x2="315" y2="-13" /></g><circle cx="290" cy="142" r="13" fill="#ffffff" /><circle cx="305" cy="343" r="10" fill="#ffffff" /><circle cx="289" cy="294" r="10" fill="#ffffff" /><circle cx="277" cy="151" r="13" fill="#ffffff" /><circle cx="285" cy="195" r="12" fill="#ffffff" /><circle cx="251" cy="236" r="6" fill="#ffffff" /><circle cx="241" cy="292" r="5" fill="#ffffff" /><circle cx="430" cy="215" r="13" fill="#ffffff" /></svg>