<svg xmlns="http://www.w3.org/2000/svg" width="512" height="512" viewBox="0 0 512 512"><rect width="512" height="512" fill="#1A202C" /><g fill="#4F46E5" font-family="monospace" font-size="16"><text x="69" y="316" opacity="0.33271285802721223">0</text><text x="210" y="393" opacity="0.9470105682793664">1</text><text x="71" y="416" opacity="0.6254700016862746">0</text><text x="477" y="260" opacity="0.7012093530708132">1</text><text x="449" y="89" opacity="0.34318643185347764">0</text><text x="45" y="21" opacity="0.7419669181635342">1</text><text x="130" y="357" opacity="0.7144946902714155">1</text><text x="376" y="365" opacity="0.598113883692774">0</text><text x="20" y="286" opacity="0.8346340478354464">0</text><text x="206" y="273" opacity="0.4163616887844447">0</text><text x="310" y="267" opacity="0.8426366699110543">1</text><text x="408" y="430" opacity="0.9150439112430986">1</text><text x="135" y="481" opacity="0.5218965020243347">1</text><text x="423" y="23" opacity="0.7868623181575809">1</text><text x="42" y="274" opacity="0.6735476901781081">1</text><text x="217" y="308" opacity="0.32659001112868286">0</text><text x="462" y="324" opacity="0.8502742636379745">0</text><text x="128" y="171" opacity="0.5897092873733223">0</text><text x="82" y="278" opacity="0.37740066863466626">0</text><text x="269" y="333" opacity="0.8685524805552682">0</text><text x="80" y="484" opacity="0.6102674152083489">0</text><text x="395" y="343" opacity="0.43091151113862214">1</text><text x="60" y="391" opacity="0.8405086507904509">1</text><text x="36" y="236" opacity="0.8029329865388681">0</text><text x="465" y="341" opacity="0.9539230077749925">0</text><text x="460" y="420" opacity="0.5761283278904596">1</text><text x="362" y="488" opacity="0.7343469593141584">1</text><text x="40" y="171" opacity="0.6197640885233957">0</text><text x="98" y="448" opacity="0.4141567679900917">1</text><text x="278" y="174" opacity="0.5025347421018378">1</text><text x="324" y="456" opacity="0.5231074895801722">0</text><text x="405" y="423" opacity="0.9982679714778182">0</text><text x="470" y="339" opacity="0.8870842411409059">0</text><text x="303" y="88" opacity="0.5125444958728037">1</text><text x="94" y="209" opacity="0.522181732939627">0</text><text x="257" y="192" opacity="0.34217345442224945">0</text><text x="246" y="366" opacity="0.35490609346640833">0</text><text x="367" y="319" opacity="0.9662912747133825">0</text><text x="32" y="310" opacity="0.9079243850198115">1</text><text x="246" y="257" opacity="0.5266167555685459">1</text><text x="72" y="452" opacity="0.43498536446429836">1</text><text x="126" y="203" opacity="0.8625974355301975">1</text><text x="440" y="310" opacity="0.8545537700861798">1</text><text x="486" y="229" opacity="0.49656517112231446">0</text><text x="330" y="263" opacity="0.41930250451426127">1</text><text x="299" y="102" opacity="0.9801854154367395">1</text><text x="379" y="107" opacity="0.44630852321134173">1</text><text x="150" y="75" opacity="0.9563880742871227">0</text><text x="178" y="134" opacity="0.7636352937629032">0</text><text x="438" y="469" opacity="0.8947534560973973">0</text><text x="130" y="263" opacity="0.5481840323319834">1</text><text x="328" y="399" opacity="0.6473622272416536">0</text><text x="261" y="182" opacity="0.9760883469044239">1</text><text x="131" y="126" opacity="0.400648385547459">0</text><text x="169" y="116" opacity="0.4166154966464359">1</text><text x="226" y="387" opacity="0.9912022169296508">1</text><text x="384" y="310" opacity="0.36440562460912745">1</text><text x="455" y="142" opacity="0.5212833327735722">0</text><text x="256" y="137" opacity="0.5300053586466786">0</text><text x="207" y="284" opacity="0.7021696597505517">1</text><text x="376" y="69" opacity="0.4969280628562903">1</text><text x="305" y="322" opacity="0.6565988839836236">0</text><text x="153" y="272" opacity="0.3540579407611752">1</text><text x="172" y="483" opacity="0.627062569187468">1</text><text x="75" y="240" opacity="0.6641168311708077">1</text><text x="385" y="187" opacity="0.7553409262775069">0</text><text x="119" y="77" opacity="0.3747587750580396">1</text><text x="70" y="340" opacity="0.9553062192093593">0</text><text x="63" y="137" opacity="0.8009714448319276">1</text><text x="377" y="317" opacity="0.8169685945707617">1</text><text x="377" y="470" opacity="0.4346601737012904">1</text><text x="209" y="104" opacity="0.6781710464396741">1</text><text x="173" y="479" opacity="0.914061804514235">1</text><text x="337" y="156" opacity="0.3315906488169017">0</text><text x="282" y="343" opacity="0.49243294777622504">1</text><text x="171" y="193" opacity="0.7228148448441711">1</text><text x="172" y="230" opacity="0.5592683762499013">0</text><text x="259" y="366" opacity="0.35609271863887226">1</text><text x="412" y="168" opacity="0.4803911271925914">1</text><text x="112" y="123" opacity="0.4543634738476774">0</text><text x="310" y="135" opacity="0.9743720828885261">1</text><text x="255" y="55" opacity="0.8321107183841361">0</text><text x="184" y="165" opacity="0.3778420753864601">0</text><text x="243" y="208" opacity="0.45653510419593923">0</text><text x="325" y="425" opacity="0.3272589234670208">1</text><text x="452" y="267" opacity="0.7191075385046701">1</text><text x="122" y="106" opacity="0.393008791186149">0</text><text x="159" y="167" opacity="0.8165363776073737">1</text><text x="214" y="247" opacity="0.5684064991929512">1</text><text x="247" y="269" opacity="0.8827393419150589">1</text><text x="366" y="379" opacity="0.8747545289233052">1</text><text x="76" y="257" opacity="0.4036634583246833">0</text><text x="116" y="413" opacity="0.4857868226584998">1</text><text x="485" y="318" opacity="0.5171636632097163">0</text><text x="369" y="117" opacity="0.8438921865829252">1</text><text x="114" y="242" opacity="0.7705160730400542">1</text><text x="289" y="75" opacity="0.4593121726726848">1</text><text x="446" y="222" opacity="0.8569447152257981">0</text><text x="272" y="146" opacity="0.8291761905822528">0</text><text x="430" y="174" opacity="0.3258254320623853">1</text><text x="47" y="184" opacity="0.6400409285880073">1</text><text x="196" y="107" opacity="0.8691327610292205">1</text><text x="189" y="284" opacity="0.45897576553613983">0</text><text x="348" y="367" opacity="0.9574858493987868">1</text><text x="269" y="399" opacity="0.8988325280287315">1</text><text x="251" y="252" opacity="0.7365163992059092">0</text><text x="83" y="373" opacity="0.3753815763119458">1</text><text x="231" y="455" opacity="0.517295355658488">1</text><text x="192" y="420" opacity="0.6995097563814516">1</text><text x="124" y="411" opacity="0.4390820571218895">0</text><text x="121" y="475" opacity="0.6326299868387243">0</text><text x="460" y="333" opacity="0.7341119477937995">0</text><text x="205" y="136" opacity="0.47575029325444596">0</text><text x="191" y="181" opacity="0.936603343369258">1</text><text x="397" y="43" opacity="0.7108871946345756">0</text><text x="94" y="97" opacity="0.641334512969312">1</text><text x="404" y="234" opacity="0.3274407786075591">1</text><text x="278" y="82" opacity="0.6707659690376826">1</text><text x="397" y="25" opacity="0.3681397329338221">0</text><text x="441" y="326" opacity="0.6911391633784971">1</text><text x="477" y="26" opacity="0.6979710459658433">0</text><text x="170" y="154" opacity="0.7491934419633685">0</text><text x="457" y="248" opacity="0.3832512852118134">1</text><text x="353" y="134" opacity="0.8374089572136758">0</text><text x="235" y="434" opacity="0.8002945168362732">0</text><text x="402" y="429" opacity="0.7563152503122959">0</text><text x="373" y="80" opacity="0.6170204995250632">1</text><text x="259" y="225" opacity="0.47126363348000083">0</text><text x="103" y="434" opacity="0.9668444842000099">0</text><text x="430" y="50" opacity="0.33277268740162613">0</text><text x="28" y="121" opacity="0.891744137679094">1</text><text x="480" y="406" opacity="0.47827343650106413">0</text><text x="276" y="172" opacity="0.9533692648514389">0</text><text x="22" y="324" opacity="0.9652898291299745">0</text><text x="338" y="81" opacity="0.5436247733211558">0</text><text x="313" y="60" opacity="0.49033893442709264">0</text><text x="101" y="128" opacity="0.644340488446711">0</text><text x="129" y="374" opacity="0.7912621896416802">0</text><text x="271" y="466" opacity="0.7016932146603612">0</text><text x="464" y="390" opacity="0.8969236108787348">0</text><text x="231" y="338" opacity="0.7037036731289388">0</text><text x="122" y="146" opacity="0.38033650864145635">1</text><text x="78" y="407" opacity="0.3525335370607986">0</text><text x="218" y="80" opacity="0.6780011179294598">0</text><text x="139" y="392" opacity="0.8768389402498868">0</text><text x="92" y="150" opacity="0.5652724379694682">1</text><text x="199" y="489" opacity="0.5655660159744116">1</text><text x="217" y="447" opacity="0.5964922374266102">1</text><text x="168" y="175" opacity="0.5491324058698968">1</text><text x="459" y="110" opacity="0.6936822829252707">1</text><text x="454" y="231" opacity="0.8212889152205645">0</text><text x="326" y="346" opacity="0.4380405000571072">1</text><text x="478" y="244" opacity="0.6949422651542501">0</text><text x="116" y="54" opacity="0.3907865260456925">0</text><text x="264" y="382" opacity="0.871820073025694">1</text><text x="170" y="378" opacity="0.9269140572941832">0</text><text x="128" y="319" opacity="0.5527997685293625">0</text><text x="56" y="249" opacity="0.44715207610688823">0</text><text x="99" y="315" opacity="0.8916010974160491">0</text><text x="318" y="309" opacity="0.8861493725998064">0</text><text x="272" y="472" opacity="0.8502904647728247">1</text><text x="132" y="256" opacity="0.42166274585502533">1</text><text x="134" y="480" opacity="0.7197335563753191">1</text><text x="304" y="479" opacity="0.928987050183609">1</text><text x="481" y="362" opacity="0.31399713228643966">1</text><text x="487" y="104" opacity="0.4031203241015543">1</text><text x="339" y="77" opacity="0.6958455842452795">1</text><text x="306" y="119" opacity="0.8984090272051184">1</text><text x="40" y="279" opacity="0.47008514728960255">1</text><text x="120" y="28" opacity="0.5440121011791246">1</text><text x="483" y="158" opacity="0.6197037612346006">1</text><text x="257" y="243" opacity="0.7281139324833052">1</text><text x="287" y="174" opacity="0.7508242746016364">0</text><text x="364" y="223" opacity="0.8453549111616967">0</text><text x="309" y="198" opacity="0.6000011351525885">1</text><text x="461" y="75" opacity="0.9349471450576774">0</text><text x="324" y="69" opacity="0.3878220259687663">1</text><text x="122" y="297" opacity="0.6493119756266043">1</text><text x="408" y="479" opacity="0.5336493057992981">0</text><text x="62" y="118" opacity="0.928653468232651">0</text><text x="321" y="417" opacity="0.9177799911250046">1</text><text x="248" y="330" opacity="0.4354167306695298">1</text><text x="341" y="266" opacity="0.7583066938770164">1</text><text x="323" y="339" opacity="0.5721215691066819">0</text><text x="46" y="283" opacity="0.5443931131836595">1</text><text x="379" y="297" opacity="0.8535019977397607">0</text><text x="300" y="250" opacity="0.7157324660444441">0</text><text x="422" y="200" opacity="0.45906870344454825">0</text><text x="166" y="129" opacity="0.8650045756363873">0</text><text x="400" y="392" opacity="0.8132036086062269">0</text><text x="51" y="171" opacity="0.3249742867636471">1</text><text x="243" y="385" opacity="0.59157260706037">1</text><text x="315" y="340" opacity="0.6276726735510814">1</text><text x="266" y="97" opacity="0.9955486345003621">0</text><text x="324" y="357" opacity="0.8713636382965864">1</text><text x="232" y="225" opacity="0.6960878615337711">0</text><text x="160" y="341" opacity="0.397184179086012">0</text><text x="337" y="30" opacity="0.8893715255840711">0</text><text x="57" y="246" opacity="0.7019257268677015">0</text><text x="162" y="160" opacity="0.8421389205025311">1</text></g></svg>