<svg xmlns="http://www.w3.org/2000/svg" width="512" height="512" viewBox="0 0 512 512"><rect width="512" height="512" fill="#172A45" /><g fill="none" stroke="#14B8A6" stroke-width="2"><line x1="121" y1="87" x2="377" y2="80" opacity="0.6" /><line x1="121" y1="87" x2="306" y2="415" opacity="0.6" /><line x1="296" y1="141" x2="251" y2="355" opacity="0.6" /><line x1="296" y1="141" x2="91" y2="305" opacity="0.6" /><line x1="90" y1="87" x2="306" y2="415" opacity="0.6" /><line x1="91" y1="305" x2="296" y2="141" opacity="0.6" /><line x1="91" y1="305" x2="316" y2="245" opacity="0.6" /><line x1="91" y1="305" x2="251" y2="355" opacity="0.6" /><line x1="306" y1="415" x2="248" y2="203" opacity="0.6" /><line x1="251" y1="355" x2="90" y2="87" opacity="0.6" /><line x1="248" y1="203" x2="296" y2="141" opacity="0.6" /><line x1="377" y1="80" x2="251" y2="355" opacity="0.6" /><line x1="377" y1="80" x2="91" y2="305" opacity="0.6" /><line x1="316" y1="245" x2="251" y2="355" opacity="0.6" /><line x1="316" y1="245" x2="306" y2="415" opacity="0.6" /></g><circle cx="121" cy="87" r="8" fill="#14B8A6" /><circle cx="296" cy="141" r="8" fill="#14B8A6" /><circle cx="90" cy="87" r="8" fill="#14B8A6" /><circle cx="91" cy="305" r="8" fill="#14B8A6" /><circle cx="306" cy="415" r="8" fill="#14B8A6" /><circle cx="251" cy="355" r="8" fill="#14B8A6" /><circle cx="248" cy="203" r="8" fill="#14B8A6" /><circle cx="377" cy="80" r="8" fill="#14B8A6" /><circle cx="316" cy="245" r="8" fill="#14B8A6" /></svg>