<svg xmlns="http://www.w3.org/2000/svg" width="512" height="512" viewBox="0 0 512 512"><rect width="512" height="512" fill="#1E293B" /><g fill="#4F46E5" font-family="monospace" font-size="16"><text x="224" y="384" opacity="0.30241926711878825">1</text><text x="399" y="27" opacity="0.8229448893568749">1</text><text x="418" y="134" opacity="0.7635291479069934">0</text><text x="395" y="238" opacity="0.30788949339359156">0</text><text x="309" y="178" opacity="0.9486384258919156">0</text><text x="261" y="37" opacity="0.7105374355361076">1</text><text x="254" y="347" opacity="0.39261380916998684">1</text><text x="42" y="68" opacity="0.7556948808700379">1</text><text x="180" y="234" opacity="0.3716078620263523">0</text><text x="410" y="236" opacity="0.4095870719789759">1</text><text x="489" y="178" opacity="0.36415479007643675">0</text><text x="210" y="193" opacity="0.5574299382798908">0</text><text x="98" y="435" opacity="0.6746916132671168">1</text><text x="192" y="383" opacity="0.8383669140983363">0</text><text x="377" y="334" opacity="0.7303066160131011">0</text><text x="375" y="449" opacity="0.5024979104998367">0</text><text x="171" y="344" opacity="0.4455557053157895">1</text><text x="416" y="456" opacity="0.4238542907840369">1</text><text x="365" y="168" opacity="0.7968263734196389">1</text><text x="398" y="300" opacity="0.6063813505216422">0</text><text x="89" y="310" opacity="0.9167891273387556">1</text><text x="175" y="237" opacity="0.9760231620126936">0</text><text x="224" y="149" opacity="0.4349546000906287">0</text><text x="385" y="242" opacity="0.6903723891927589">0</text><text x="48" y="394" opacity="0.4132392447437962">1</text><text x="472" y="308" opacity="0.9090600599346537">0</text><text x="75" y="402" opacity="0.3603620367147738">0</text><text x="440" y="144" opacity="0.930577449110813">1</text><text x="112" y="73" opacity="0.9561882336126724">0</text><text x="288" y="414" opacity="0.8339909965514112">0</text><text x="330" y="240" opacity="0.92396590114317">1</text><text x="302" y="437" opacity="0.6828525578862431">1</text><text x="243" y="60" opacity="0.632066367742775">0</text><text x="201" y="326" opacity="0.5311798691774221">0</text><text x="338" y="61" opacity="0.4006235271153317">1</text><text x="385" y="105" opacity="0.9578682522338102">0</text><text x="125" y="438" opacity="0.5051989083881416">1</text><text x="419" y="237" opacity="0.3689765600842422">0</text><text x="486" y="389" opacity="0.9994561935191297">0</text><text x="465" y="345" opacity="0.7178901926735735">0</text><text x="136" y="66" opacity="0.5443568103413489">1</text><text x="225" y="199" opacity="0.7637402499805603">0</text><text x="283" y="86" opacity="0.6128113280754399">1</text><text x="339" y="165" opacity="0.5434333642126229">0</text><text x="60" y="444" opacity="0.46279771451462764">1</text><text x="268" y="378" opacity="0.6847437824600522">0</text><text x="349" y="148" opacity="0.49349656539240705">0</text><text x="329" y="35" opacity="0.895030027789151">0</text><text x="67" y="202" opacity="0.7547262058827806">0</text><text x="48" y="227" opacity="0.7204645022406067">0</text><text x="298" y="305" opacity="0.9343982168932461">0</text><text x="374" y="367" opacity="0.8204028995089856">0</text><text x="398" y="161" opacity="0.6261618515224474">1</text><text x="52" y="228" opacity="0.9551768905478915">1</text><text x="367" y="234" opacity="0.7046882807605612">1</text><text x="455" y="287" opacity="0.6015029663975808">0</text><text x="57" y="261" opacity="0.995006267453781">1</text><text x="57" y="370" opacity="0.8223608743089794">1</text><text x="387" y="269" opacity="0.4475302668733026">1</text><text x="364" y="46" opacity="0.4165559251396326">1</text><text x="329" y="317" opacity="0.3479443014860956">1</text><text x="482" y="171" opacity="0.3197290667199138">0</text><text x="226" y="426" opacity="0.4044318197388128">0</text><text x="334" y="215" opacity="0.6606307276158303">0</text><text x="379" y="425" opacity="0.8215439830630205">0</text><text x="445" y="268" opacity="0.32418271480634503">1</text><text x="24" y="441" opacity="0.7786534177509778">1</text><text x="62" y="149" opacity="0.9768591007883307">0</text><text x="128" y="152" opacity="0.8303448405162264">0</text><text x="348" y="249" opacity="0.4674113881266196">1</text><text x="138" y="163" opacity="0.4522739665768454">0</text><text x="245" y="303" opacity="0.3060122659016794">0</text><text x="429" y="38" opacity="0.9763131952444599">1</text><text x="293" y="284" opacity="0.4986455007369782">0</text><text x="218" y="290" opacity="0.8539933204778549">0</text><text x="265" y="223" opacity="0.3498129786561335">1</text><text x="304" y="154" opacity="0.6393829668592974">1</text><text x="212" y="235" opacity="0.6083019925750881">0</text><text x="334" y="146" opacity="0.37710812611565564">1</text><text x="80" y="356" opacity="0.9529359189398106">1</text><text x="59" y="258" opacity="0.622503274574179">0</text><text x="244" y="483" opacity="0.5378906065068051">1</text><text x="244" y="402" opacity="0.5535422387592416">0</text><text x="111" y="289" opacity="0.6490520314116837">1</text><text x="155" y="54" opacity="0.8082131627382794">1</text><text x="62" y="367" opacity="0.9041638088882804">0</text><text x="362" y="240" opacity="0.3324246123975027">0</text><text x="211" y="119" opacity="0.7165206527241088">0</text><text x="337" y="454" opacity="0.700353191882">0</text><text x="472" y="110" opacity="0.4076407634051331">1</text><text x="395" y="478" opacity="0.6011187062016895">1</text><text x="240" y="426" opacity="0.9120500473860225">1</text><text x="52" y="328" opacity="0.7079634000811632">1</text><text x="443" y="206" opacity="0.9645825537212973">0</text><text x="88" y="259" opacity="0.8760535113679531">1</text><text x="20" y="68" opacity="0.7919984984067596">0</text><text x="27" y="144" opacity="0.8365726384531489">1</text><text x="195" y="256" opacity="0.9074682666965264">1</text><text x="315" y="255" opacity="0.44430491876760764">1</text><text x="234" y="337" opacity="0.7377096260457386">1</text><text x="341" y="78" opacity="0.3186534515095043">1</text><text x="453" y="269" opacity="0.6893773054601755">0</text><text x="93" y="174" opacity="0.6782539584010543">1</text><text x="177" y="128" opacity="0.7602059774320176">1</text><text x="230" y="449" opacity="0.6314780327844602">0</text><text x="240" y="98" opacity="0.520100233492734">1</text><text x="401" y="279" opacity="0.3588940198417673">1</text><text x="280" y="428" opacity="0.6056767859986399">1</text><text x="411" y="299" opacity="0.7192547685757014">1</text><text x="24" y="341" opacity="0.6108330239529356">1</text><text x="209" y="218" opacity="0.9540312731420284">0</text><text x="228" y="101" opacity="0.9047054583303618">0</text><text x="98" y="79" opacity="0.7474891905375229">0</text><text x="381" y="116" opacity="0.7273074045126315">1</text><text x="395" y="293" opacity="0.6528917436085142">1</text><text x="129" y="66" opacity="0.8764226303995015">1</text><text x="354" y="191" opacity="0.7546025536157517">1</text><text x="95" y="417" opacity="0.4981499653121767">1</text><text x="441" y="335" opacity="0.38523287478569324">1</text><text x="426" y="147" opacity="0.6082742678796902">0</text><text x="285" y="489" opacity="0.8909395158741442">1</text><text x="480" y="128" opacity="0.32346713525502796">0</text><text x="141" y="216" opacity="0.5403908206651767">1</text><text x="96" y="298" opacity="0.981518549167707">0</text><text x="96" y="148" opacity="0.41401146417422857">1</text><text x="89" y="93" opacity="0.9797030349176763">0</text><text x="399" y="110" opacity="0.5876642744000431">1</text><text x="391" y="60" opacity="0.8996355769764444">0</text><text x="377" y="274" opacity="0.5793778964760958">0</text><text x="150" y="328" opacity="0.5609308423142798">0</text><text x="472" y="279" opacity="0.7433056389407535">0</text><text x="490" y="251" opacity="0.854358135751442">1</text><text x="358" y="22" opacity="0.41265428096072576">1</text><text x="460" y="308" opacity="0.6185345266384763">0</text><text x="295" y="23" opacity="0.6947980030180615">0</text><text x="229" y="260" opacity="0.6391384394302071">1</text><text x="457" y="348" opacity="0.5418169227551665">1</text><text x="454" y="169" opacity="0.9156521754109708">0</text><text x="405" y="64" opacity="0.7845745467882035">0</text><text x="67" y="158" opacity="0.9302295799445148">1</text><text x="454" y="410" opacity="0.6871340226861016">1</text><text x="40" y="86" opacity="0.3381066424660028">0</text><text x="186" y="388" opacity="0.9541874666633827">0</text><text x="298" y="42" opacity="0.9064027411281355">1</text><text x="190" y="169" opacity="0.8485889917007843">0</text><text x="451" y="233" opacity="0.6203906237272522">0</text><text x="66" y="98" opacity="0.3296000530802263">0</text><text x="298" y="331" opacity="0.4392691033232493">0</text><text x="122" y="448" opacity="0.6708120824316492">1</text><text x="107" y="60" opacity="0.6270130348008569">0</text><text x="235" y="461" opacity="0.9890788188253488">0</text><text x="104" y="95" opacity="0.832235932915941">1</text><text x="393" y="271" opacity="0.7305109533566092">1</text><text x="460" y="194" opacity="0.7874912326192807">0</text><text x="199" y="235" opacity="0.581528618412188">0</text><text x="64" y="274" opacity="0.5192426765099937">1</text><text x="472" y="485" opacity="0.7301837024218893">0</text><text x="483" y="483" opacity="0.49469772773726584">0</text><text x="245" y="410" opacity="0.667654357283972">1</text><text x="88" y="483" opacity="0.5830540031456136">0</text><text x="427" y="410" opacity="0.91507133736741">0</text><text x="96" y="437" opacity="0.6687650357255962">1</text><text x="329" y="302" opacity="0.3592125135415253">0</text><text x="204" y="334" opacity="0.7379044000655657">0</text><text x="58" y="408" opacity="0.41771376880809186">0</text><text x="300" y="475" opacity="0.7801808077875679">0</text><text x="458" y="327" opacity="0.594602023791273">0</text><text x="120" y="424" opacity="0.6522231147317721">1</text><text x="239" y="176" opacity="0.9886025452710057">1</text><text x="139" y="415" opacity="0.3014552641485535">1</text><text x="292" y="99" opacity="0.6840879302967078">0</text><text x="229" y="75" opacity="0.332297073780995">0</text><text x="215" y="379" opacity="0.9938733252616883">0</text><text x="64" y="184" opacity="0.9367029689514885">1</text><text x="32" y="396" opacity="0.5409748684567404">1</text><text x="264" y="224" opacity="0.7824373558185008">1</text><text x="437" y="140" opacity="0.6532460964553127">0</text><text x="201" y="462" opacity="0.701501199214287">0</text><text x="139" y="110" opacity="0.5026691563698957">1</text><text x="100" y="21" opacity="0.8962935175991003">1</text><text x="390" y="424" opacity="0.5967767435696743">0</text><text x="309" y="57" opacity="0.411723333033627">1</text><text x="316" y="381" opacity="0.912151522019981">0</text><text x="394" y="270" opacity="0.7018655071517625">1</text><text x="144" y="240" opacity="0.6498035114156707">0</text><text x="491" y="479" opacity="0.6817094145937794">0</text><text x="359" y="139" opacity="0.47058124475774943">0</text><text x="127" y="175" opacity="0.4393175769711397">0</text><text x="299" y="266" opacity="0.5239954750627467">0</text><text x="349" y="114" opacity="0.7248578820686604">0</text><text x="237" y="163" opacity="0.7531571327391613">0</text><text x="321" y="34" opacity="0.33396582093739846">0</text><text x="337" y="178" opacity="0.600052708946216">0</text><text x="348" y="60" opacity="0.5514329616885744">1</text><text x="20" y="275" opacity="0.6109378779001041">0</text><text x="124" y="33" opacity="0.789936232449225">0</text><text x="486" y="344" opacity="0.75599046077734">0</text><text x="389" y="55" opacity="0.7358385680552102">1</text><text x="466" y="80" opacity="0.6980352543607223">0</text><text x="459" y="101" opacity="0.6313693054947762">1</text></g></svg>