<svg xmlns="http://www.w3.org/2000/svg" width="512" height="512" viewBox="0 0 512 512"><rect width="512" height="512" fill="#34495e" /><g fill="none" stroke="#ffffff" stroke-width="4"><line x1="232" y1="120" x2="165" y2="220" /><line x1="56" y1="205" x2="-15" y2="341" /><line x1="377" y1="71" x2="233" y2="169" /><line x1="122" y1="349" x2="-13" y2="239" /><line x1="437" y1="280" x2="541" y2="415" /><line x1="255" y1="210" x2="172" y2="144" /><line x1="450" y1="330" x2="305" y2="414" /><line x1="125" y1="273" x2="48" y2="411" /><line x1="406" y1="102" x2="540" y2="167" /><line x1="315" y1="121" x2="367" y2="18" /></g><circle cx="213" cy="412" r="15" fill="#ffffff" /><circle cx="361" cy="325" r="13" fill="#ffffff" /><circle cx="399" cy="189" r="13" fill="#ffffff" /><circle cx="256" cy="394" r="12" fill="#ffffff" /><circle cx="384" cy="412" r="8" fill="#ffffff" /><circle cx="159" cy="286" r="13" fill="#ffffff" /><circle cx="407" cy="402" r="6" fill="#ffffff" /><circle cx="227" cy="228" r="9" fill="#ffffff" /></svg>