<svg xmlns="http://www.w3.org/2000/svg" width="512" height="512" viewBox="0 0 512 512"><rect width="512" height="512" fill="#172A45" /><g fill="none" stroke="#14B8A6" stroke-width="2"><line x1="254" y1="247" x2="389" y2="310" opacity="0.6" /><line x1="419" y1="235" x2="288" y2="389" opacity="0.6" /><line x1="288" y1="389" x2="353" y2="191" opacity="0.6" /><line x1="389" y1="310" x2="288" y2="389" opacity="0.6" /><line x1="389" y1="310" x2="353" y2="191" opacity="0.6" /><line x1="389" y1="310" x2="432" y2="211" opacity="0.6" /><line x1="432" y1="211" x2="419" y2="235" opacity="0.6" /><line x1="90" y1="369" x2="254" y2="247" opacity="0.6" /><line x1="90" y1="369" x2="419" y2="235" opacity="0.6" /><line x1="353" y1="191" x2="389" y2="310" opacity="0.6" /><line x1="353" y1="191" x2="432" y2="211" opacity="0.6" /><line x1="353" y1="191" x2="254" y2="247" opacity="0.6" /></g><circle cx="254" cy="247" r="8" fill="#14B8A6" /><circle cx="419" cy="235" r="8" fill="#14B8A6" /><circle cx="288" cy="389" r="8" fill="#14B8A6" /><circle cx="389" cy="310" r="8" fill="#14B8A6" /><circle cx="432" cy="211" r="8" fill="#14B8A6" /><circle cx="90" cy="369" r="8" fill="#14B8A6" /><circle cx="353" cy="191" r="8" fill="#14B8A6" /></svg>