<svg xmlns="http://www.w3.org/2000/svg" width="512" height="512" viewBox="0 0 512 512"><rect width="512" height="512" fill="#16a085" /><g fill="none" stroke="#ffffff" stroke-width="4"><line x1="263" y1="308" x2="333" y2="219" /><line x1="388" y1="243" x2="514" y2="297" /><line x1="222" y1="318" x2="84" y2="173" /><line x1="449" y1="194" x2="383" y2="277" /><line x1="216" y1="365" x2="145" y2="315" /><line x1="402" y1="111" x2="291" y2="185" /><line x1="133" y1="241" x2="219" y2="179" /><line x1="459" y1="213" x2="310" y2="135" /><line x1="270" y1="461" x2="173" y2="404" /><line x1="298" y1="256" x2="225" y2="152" /></g><circle cx="190" cy="115" r="8" fill="#ffffff" /><circle cx="146" cy="328" r="5" fill="#ffffff" /><circle cx="263" cy="416" r="14" fill="#ffffff" /><circle cx="171" cy="280" r="6" fill="#ffffff" /><circle cx="107" cy="131" r="11" fill="#ffffff" /><circle cx="268" cy="340" r="15" fill="#ffffff" /><circle cx="163" cy="171" r="7" fill="#ffffff" /><circle cx="270" cy="398" r="8" fill="#ffffff" /></svg>