<svg xmlns="http://www.w3.org/2000/svg" width="512" height="512" viewBox="0 0 512 512"><rect width="512" height="512" fill="#172A45" /><g fill="#38BDF8" font-family="monospace" font-size="16"><text x="45" y="181" opacity="0.4282339234538389">1</text><text x="454" y="155" opacity="0.9190984691651203">0</text><text x="293" y="217" opacity="0.4348154081347899">0</text><text x="217" y="92" opacity="0.5087109056401027">0</text><text x="356" y="309" opacity="0.5552842864314351">1</text><text x="295" y="62" opacity="0.4205509605982128">1</text><text x="310" y="27" opacity="0.5819307005949301">0</text><text x="97" y="169" opacity="0.34062870428831954">0</text><text x="403" y="130" opacity="0.3589073910727899">0</text><text x="331" y="24" opacity="0.9705719197081188">1</text><text x="159" y="185" opacity="0.6035239973790018">1</text><text x="414" y="387" opacity="0.5874530008245085">1</text><text x="406" y="266" opacity="0.5115473583765554">1</text><text x="134" y="224" opacity="0.858765632522182">1</text><text x="441" y="205" opacity="0.7726031445074758">0</text><text x="124" y="57" opacity="0.7543886162376681">1</text><text x="469" y="144" opacity="0.3067196323909201">1</text><text x="140" y="420" opacity="0.35652453026254605">1</text><text x="392" y="229" opacity="0.801338015377451">0</text><text x="41" y="387" opacity="0.7667706105392458">0</text><text x="441" y="295" opacity="0.4481593419643539">1</text><text x="239" y="397" opacity="0.6427469861713543">0</text><text x="257" y="33" opacity="0.956587286469351">0</text><text x="79" y="113" opacity="0.6820994676961939">1</text><text x="489" y="266" opacity="0.6642128397656065">1</text><text x="321" y="262" opacity="0.8967038409515431">1</text><text x="226" y="76" opacity="0.37850941066773436">0</text><text x="203" y="67" opacity="0.9774896549009646">1</text><text x="132" y="221" opacity="0.8031395576384226">1</text><text x="196" y="100" opacity="0.5034090804367908">1</text><text x="421" y="320" opacity="0.6317893116602">1</text><text x="472" y="429" opacity="0.963320786120208">1</text><text x="43" y="453" opacity="0.6317210230389887">1</text><text x="115" y="359" opacity="0.879201327768175">0</text><text x="125" y="34" opacity="0.8371778378996078">0</text><text x="124" y="80" opacity="0.6549397672440238">0</text><text x="43" y="207" opacity="0.5759945496406076">0</text><text x="105" y="281" opacity="0.6467685917055022">1</text><text x="214" y="257" opacity="0.5652381455856963">1</text><text x="127" y="28" opacity="0.4561092406681234">1</text><text x="396" y="201" opacity="0.7810615687277322">1</text><text x="252" y="138" opacity="0.6245118376700983">1</text><text x="421" y="291" opacity="0.4367908043751047">1</text><text x="349" y="361" opacity="0.6877980349248125">1</text><text x="301" y="460" opacity="0.8164717088947142">0</text><text x="247" y="423" opacity="0.8248525044150943">0</text><text x="33" y="95" opacity="0.4258605427112374">0</text><text x="329" y="207" opacity="0.7788145563532278">0</text><text x="306" y="71" opacity="0.5438396676669051">1</text><text x="379" y="168" opacity="0.552593086723393">0</text><text x="265" y="89" opacity="0.32522930214529505">0</text><text x="227" y="482" opacity="0.37966289030224365">1</text><text x="151" y="383" opacity="0.8712278835421832">1</text><text x="98" y="56" opacity="0.5493351294321901">0</text><text x="86" y="443" opacity="0.932218985412965">0</text><text x="72" y="244" opacity="0.8370974509585265">1</text><text x="458" y="349" opacity="0.4205177732646496">1</text><text x="304" y="28" opacity="0.5284752762828168">1</text><text x="249" y="458" opacity="0.543615299525279">0</text><text x="188" y="221" opacity="0.8705559151740858">1</text><text x="321" y="440" opacity="0.4873678816063997">1</text><text x="163" y="63" opacity="0.5550056024466156">0</text><text x="206" y="45" opacity="0.881957217878715">1</text><text x="324" y="290" opacity="0.4341845356208135">1</text><text x="194" y="98" opacity="0.6734336350771941">0</text><text x="226" y="285" opacity="0.3906967706342296">1</text><text x="105" y="46" opacity="0.8484387772162383">1</text><text x="225" y="233" opacity="0.9490500139083065">0</text><text x="309" y="272" opacity="0.9355708870037909">1</text><text x="105" y="212" opacity="0.9882793489771302">0</text><text x="216" y="223" opacity="0.3423353478401745">1</text><text x="379" y="110" opacity="0.5089567402644259">1</text><text x="59" y="140" opacity="0.30052005487875516">1</text><text x="270" y="53" opacity="0.38697995056332085">1</text><text x="482" y="105" opacity="0.5378423624319841">1</text><text x="373" y="201" opacity="0.8073620371791654">0</text><text x="141" y="279" opacity="0.6613908618093289">0</text><text x="418" y="329" opacity="0.5375275948728285">1</text><text x="304" y="196" opacity="0.6218810834906434">1</text><text x="258" y="457" opacity="0.6907937638764667">1</text><text x="80" y="159" opacity="0.9791321911691022">0</text><text x="184" y="35" opacity="0.6248471820931152">0</text><text x="322" y="315" opacity="0.6873059086477874">1</text><text x="377" y="198" opacity="0.8357960408778438">1</text><text x="330" y="146" opacity="0.5089016619243023">1</text><text x="400" y="268" opacity="0.8591321137602264">0</text><text x="358" y="445" opacity="0.6834297112192038">1</text><text x="104" y="412" opacity="0.8429826228643986">1</text><text x="180" y="424" opacity="0.6887932744005404">0</text><text x="271" y="145" opacity="0.7298026868779324">1</text><text x="110" y="102" opacity="0.6812608816432232">1</text><text x="337" y="166" opacity="0.6331352818896945">0</text><text x="385" y="259" opacity="0.5257908541903734">0</text><text x="406" y="64" opacity="0.8933566377831261">0</text><text x="480" y="206" opacity="0.49463273368571237">1</text><text x="69" y="127" opacity="0.7759519879621861">0</text><text x="457" y="265" opacity="0.39422475051941375">1</text><text x="79" y="39" opacity="0.5431570524675813">1</text><text x="132" y="414" opacity="0.7830727391067966">0</text><text x="100" y="147" opacity="0.6482908952115886">1</text><text x="148" y="379" opacity="0.5237006631593748">1</text><text x="181" y="397" opacity="0.6772493657742176">1</text><text x="131" y="394" opacity="0.4513467908009532">1</text><text x="406" y="52" opacity="0.8801792316036072">1</text><text x="99" y="297" opacity="0.3310988736620855">0</text><text x="413" y="470" opacity="0.42692734698330237">1</text><text x="23" y="379" opacity="0.6783981067011101">1</text><text x="278" y="288" opacity="0.8502250974568963">1</text><text x="293" y="360" opacity="0.8233101115346624">1</text><text x="143" y="210" opacity="0.3081807002227752">0</text><text x="387" y="112" opacity="0.6993627948840175">1</text><text x="197" y="149" opacity="0.8670030284310661">1</text><text x="330" y="317" opacity="0.33462623575825123">1</text><text x="205" y="296" opacity="0.3318429921109956">0</text><text x="341" y="130" opacity="0.43757619029773265">0</text><text x="400" y="267" opacity="0.7463122977154724">0</text><text x="157" y="202" opacity="0.5172838099762952">1</text><text x="139" y="417" opacity="0.3888448211882984">1</text><text x="262" y="354" opacity="0.47121468437079167">1</text><text x="26" y="303" opacity="0.6427414722968947">0</text><text x="249" y="391" opacity="0.7905814939203706">0</text><text x="429" y="335" opacity="0.7415650677267227">1</text><text x="307" y="108" opacity="0.9803096980435837">1</text><text x="477" y="44" opacity="0.9424562066221862">1</text><text x="464" y="146" opacity="0.7767084904694195">0</text><text x="253" y="103" opacity="0.34518000878256005">0</text><text x="364" y="114" opacity="0.6972326736533431">0</text><text x="211" y="180" opacity="0.8999928853602528">1</text><text x="133" y="81" opacity="0.9437536605204719">1</text><text x="164" y="167" opacity="0.3588502476313622">1</text><text x="128" y="239" opacity="0.7753420610902018">1</text><text x="125" y="345" opacity="0.9122575699178135">1</text><text x="383" y="472" opacity="0.7474551705116744">0</text><text x="327" y="333" opacity="0.7704983877400027">0</text><text x="193" y="396" opacity="0.4610013779809791">1</text><text x="443" y="424" opacity="0.5031498189028063">1</text><text x="485" y="418" opacity="0.6987180605686983">0</text><text x="38" y="418" opacity="0.7490940162406532">0</text><text x="248" y="434" opacity="0.598277569272228">1</text><text x="270" y="164" opacity="0.7683923648080686">0</text><text x="261" y="246" opacity="0.5822732580315684">0</text><text x="104" y="28" opacity="0.35379138064890203">0</text><text x="436" y="142" opacity="0.8034036400102487">1</text><text x="207" y="199" opacity="0.8456393344050306">0</text><text x="413" y="218" opacity="0.7825111745339669">1</text><text x="49" y="486" opacity="0.739772449645804">0</text><text x="247" y="226" opacity="0.7808278249848649">1</text><text x="260" y="390" opacity="0.927882213722012">1</text><text x="27" y="60" opacity="0.5033212177944407">1</text><text x="278" y="200" opacity="0.7367774505418545">0</text><text x="258" y="262" opacity="0.7898453736474831">0</text><text x="444" y="492" opacity="0.6025688852325164">1</text><text x="200" y="342" opacity="0.6655438968885966">0</text><text x="251" y="125" opacity="0.8030001279649484">0</text><text x="392" y="250" opacity="0.9414864775170444">1</text><text x="40" y="469" opacity="0.9153032370499654">1</text><text x="285" y="455" opacity="0.9160341524217346">0</text><text x="302" y="218" opacity="0.470928962144904">1</text><text x="474" y="46" opacity="0.7347315306071966">1</text><text x="58" y="51" opacity="0.7516307312984359">0</text><text x="464" y="227" opacity="0.49088280549148156">0</text><text x="149" y="146" opacity="0.7888557872166294">1</text><text x="85" y="353" opacity="0.6824014454650339">0</text><text x="244" y="106" opacity="0.5500013610595045">0</text><text x="90" y="457" opacity="0.8151735508730555">0</text><text x="221" y="437" opacity="0.5612124017287318">0</text><text x="340" y="221" opacity="0.7605166272871151">1</text><text x="134" y="38" opacity="0.5711333990133625">1</text><text x="162" y="410" opacity="0.47832507401886837">0</text><text x="297" y="91" opacity="0.3791204022960968">0</text><text x="444" y="430" opacity="0.9450874737401136">1</text><text x="453" y="70" opacity="0.622443263480584">0</text><text x="281" y="239" opacity="0.907459469366305">0</text><text x="126" y="145" opacity="0.7370800262172048">0</text><text x="190" y="259" opacity="0.3190326849864052">0</text><text x="241" y="219" opacity="0.6234020615575264">1</text><text x="276" y="108" opacity="0.8989812138980793">1</text><text x="56" y="418" opacity="0.6260262621664523">1</text><text x="272" y="417" opacity="0.4287387912472177">1</text><text x="485" y="282" opacity="0.42560107061524793">1</text><text x="346" y="45" opacity="0.6020492284200858">1</text><text x="461" y="316" opacity="0.7382628128854153">0</text><text x="489" y="61" opacity="0.43139251846932336">0</text><text x="76" y="383" opacity="0.5315468418908479">0</text><text x="307" y="77" opacity="0.7149798375991356">0</text><text x="145" y="150" opacity="0.39812574198616135">1</text><text x="444" y="491" opacity="0.8518423054191988">0</text><text x="433" y="492" opacity="0.3522502861308841">0</text><text x="136" y="85" opacity="0.4960918367449939">1</text><text x="328" y="270" opacity="0.3958652952705535">0</text><text x="117" y="28" opacity="0.501810733172263">1</text><text x="424" y="248" opacity="0.9124226196080751">1</text><text x="320" y="396" opacity="0.7851360002066583">1</text><text x="226" y="63" opacity="0.8397376542986541">1</text><text x="80" y="397" opacity="0.7236027028848846">0</text><text x="225" y="265" opacity="0.8764216359653767">1</text><text x="146" y="51" opacity="0.9233670857488214">0</text><text x="159" y="427" opacity="0.33338219176153516">0</text><text x="339" y="240" opacity="0.6086214233140653">1</text><text x="477" y="449" opacity="0.46700685730454417">1</text></g></svg>