<svg xmlns="http://www.w3.org/2000/svg" width="512" height="512" viewBox="0 0 512 512"><rect width="512" height="512" fill="#0A1929" /><g fill="none" stroke="#38BDF8" stroke-width="3"><line x1="82" y1="118" x2="153" y2="118" /><line x1="153" y1="118" x2="153" y2="127" /><line x1="413" y1="243" x2="413" y2="370" /><line x1="413" y1="370" x2="221" y2="370" /><line x1="420" y1="308" x2="216" y2="308" /><line x1="216" y1="308" x2="216" y2="81" /><line x1="64" y1="355" x2="460" y2="355" /><line x1="460" y1="355" x2="460" y2="341" /><line x1="62" y1="249" x2="312" y2="249" /><line x1="312" y1="249" x2="312" y2="200" /><line x1="424" y1="354" x2="318" y2="354" /><line x1="318" y1="354" x2="318" y2="343" /><line x1="267" y1="205" x2="267" y2="415" /><line x1="267" y1="415" x2="370" y2="415" /><line x1="401" y1="97" x2="401" y2="59" /><line x1="401" y1="59" x2="312" y2="59" /><line x1="346" y1="316" x2="346" y2="252" /><line x1="346" y1="252" x2="263" y2="252" /><line x1="94" y1="423" x2="94" y2="227" /><line x1="94" y1="227" x2="253" y2="227" /><line x1="141" y1="95" x2="141" y2="113" /><line x1="141" y1="113" x2="308" y2="113" /><line x1="193" y1="156" x2="193" y2="95" /><line x1="193" y1="95" x2="418" y2="95" /><line x1="415" y1="364" x2="316" y2="364" /><line x1="316" y1="364" x2="316" y2="434" /><line x1="424" y1="435" x2="424" y2="259" /><line x1="424" y1="259" x2="372" y2="259" /><line x1="225" y1="223" x2="225" y2="389" /><line x1="225" y1="389" x2="342" y2="389" /></g><circle cx="82" cy="118" r="5" fill="#38BDF8" /><circle cx="153" cy="127" r="5" fill="#38BDF8" /><circle cx="413" cy="243" r="5" fill="#38BDF8" /><circle cx="221" cy="370" r="5" fill="#38BDF8" /><circle cx="420" cy="308" r="5" fill="#38BDF8" /><circle cx="216" cy="81" r="5" fill="#38BDF8" /><circle cx="64" cy="355" r="5" fill="#38BDF8" /><circle cx="460" cy="341" r="5" fill="#38BDF8" /><circle cx="62" cy="249" r="5" fill="#38BDF8" /><circle cx="312" cy="200" r="5" fill="#38BDF8" /><circle cx="424" cy="354" r="5" fill="#38BDF8" /><circle cx="318" cy="343" r="5" fill="#38BDF8" /><circle cx="267" cy="205" r="5" fill="#38BDF8" /><circle cx="370" cy="415" r="5" fill="#38BDF8" /><circle cx="401" cy="97" r="5" fill="#38BDF8" /><circle cx="312" cy="59" r="5" fill="#38BDF8" /><circle cx="346" cy="316" r="5" fill="#38BDF8" /><circle cx="263" cy="252" r="5" fill="#38BDF8" /><circle cx="94" cy="423" r="5" fill="#38BDF8" /><circle cx="253" cy="227" r="5" fill="#38BDF8" /><circle cx="141" cy="95" r="5" fill="#38BDF8" /><circle cx="308" cy="113" r="5" fill="#38BDF8" /><circle cx="193" cy="156" r="5" fill="#38BDF8" /><circle cx="418" cy="95" r="5" fill="#38BDF8" /><circle cx="415" cy="364" r="5" fill="#38BDF8" /><circle cx="316" cy="434" r="5" fill="#38BDF8" /><circle cx="424" cy="435" r="5" fill="#38BDF8" /><circle cx="372" cy="259" r="5" fill="#38BDF8" /><circle cx="225" cy="223" r="5" fill="#38BDF8" /><circle cx="342" cy="389" r="5" fill="#38BDF8" /></svg>