<svg xmlns="http://www.w3.org/2000/svg" width="512" height="512" viewBox="0 0 512 512"><rect width="512" height="512" fill="#34495e" /><g fill="none" stroke="#ffffff" stroke-width="4"><line x1="204" y1="203" x2="274" y2="107" /><line x1="167" y1="279" x2="104" y2="419" /><line x1="166" y1="121" x2="314" y2="-21" /><line x1="386" y1="450" x2="451" y2="536" /><line x1="378" y1="108" x2="234" y2="-30" /><line x1="382" y1="312" x2="320" y2="229" /><line x1="247" y1="285" x2="326" y2="143" /><line x1="423" y1="294" x2="501" y2="191" /><line x1="133" y1="251" x2="205" y2="378" /><line x1="301" y1="230" x2="203" y2="117" /></g><circle cx="183" cy="202" r="14" fill="#ffffff" /><circle cx="396" cy="386" r="12" fill="#ffffff" /><circle cx="134" cy="189" r="8" fill="#ffffff" /><circle cx="204" cy="414" r="12" fill="#ffffff" /><circle cx="325" cy="369" r="11" fill="#ffffff" /><circle cx="242" cy="421" r="9" fill="#ffffff" /><circle cx="131" cy="185" r="11" fill="#ffffff" /><circle cx="182" cy="373" r="8" fill="#ffffff" /></svg>