<svg xmlns="http://www.w3.org/2000/svg" width="512" height="512" viewBox="0 0 512 512"><rect width="512" height="512" fill="#0A1929" /><g fill="none" stroke="#38BDF8" stroke-width="3"><line x1="142" y1="403" x2="142" y2="374" /><line x1="142" y1="374" x2="163" y2="374" /><line x1="189" y1="182" x2="189" y2="247" /><line x1="189" y1="247" x2="74" y2="247" /><line x1="295" y1="297" x2="295" y2="195" /><line x1="295" y1="195" x2="375" y2="195" /><line x1="344" y1="189" x2="322" y2="189" /><line x1="322" y1="189" x2="322" y2="330" /><line x1="238" y1="325" x2="238" y2="64" /><line x1="238" y1="64" x2="403" y2="64" /><line x1="108" y1="396" x2="108" y2="118" /><line x1="108" y1="118" x2="241" y2="118" /><line x1="247" y1="58" x2="373" y2="58" /><line x1="373" y1="58" x2="373" y2="382" /><line x1="425" y1="72" x2="287" y2="72" /><line x1="287" y1="72" x2="287" y2="306" /><line x1="101" y1="448" x2="101" y2="343" /><line x1="101" y1="343" x2="287" y2="343" /><line x1="71" y1="256" x2="71" y2="371" /><line x1="71" y1="371" x2="389" y2="371" /><line x1="118" y1="131" x2="118" y2="132" /><line x1="118" y1="132" x2="142" y2="132" /><line x1="150" y1="433" x2="150" y2="440" /><line x1="150" y1="440" x2="185" y2="440" /><line x1="138" y1="84" x2="138" y2="207" /><line x1="138" y1="207" x2="345" y2="207" /><line x1="196" y1="286" x2="421" y2="286" /><line x1="421" y1="286" x2="421" y2="461" /><line x1="314" y1="304" x2="390" y2="304" /><line x1="390" y1="304" x2="390" y2="381" /></g><circle cx="142" cy="403" r="5" fill="#38BDF8" /><circle cx="163" cy="374" r="5" fill="#38BDF8" /><circle cx="189" cy="182" r="5" fill="#38BDF8" /><circle cx="74" cy="247" r="5" fill="#38BDF8" /><circle cx="295" cy="297" r="5" fill="#38BDF8" /><circle cx="375" cy="195" r="5" fill="#38BDF8" /><circle cx="344" cy="189" r="5" fill="#38BDF8" /><circle cx="322" cy="330" r="5" fill="#38BDF8" /><circle cx="238" cy="325" r="5" fill="#38BDF8" /><circle cx="403" cy="64" r="5" fill="#38BDF8" /><circle cx="108" cy="396" r="5" fill="#38BDF8" /><circle cx="241" cy="118" r="5" fill="#38BDF8" /><circle cx="247" cy="58" r="5" fill="#38BDF8" /><circle cx="373" cy="382" r="5" fill="#38BDF8" /><circle cx="425" cy="72" r="5" fill="#38BDF8" /><circle cx="287" cy="306" r="5" fill="#38BDF8" /><circle cx="101" cy="448" r="5" fill="#38BDF8" /><circle cx="287" cy="343" r="5" fill="#38BDF8" /><circle cx="71" cy="256" r="5" fill="#38BDF8" /><circle cx="389" cy="371" r="5" fill="#38BDF8" /><circle cx="118" cy="131" r="5" fill="#38BDF8" /><circle cx="142" cy="132" r="5" fill="#38BDF8" /><circle cx="150" cy="433" r="5" fill="#38BDF8" /><circle cx="185" cy="440" r="5" fill="#38BDF8" /><circle cx="138" cy="84" r="5" fill="#38BDF8" /><circle cx="345" cy="207" r="5" fill="#38BDF8" /><circle cx="196" cy="286" r="5" fill="#38BDF8" /><circle cx="421" cy="461" r="5" fill="#38BDF8" /><circle cx="314" cy="304" r="5" fill="#38BDF8" /><circle cx="390" cy="381" r="5" fill="#38BDF8" /></svg>