<svg xmlns="http://www.w3.org/2000/svg" width="512" height="512" viewBox="0 0 512 512"><rect width="512" height="512" fill="#1A202C" /><g fill="none" stroke="#38BDF8" stroke-width="3"><line x1="186" y1="384" x2="186" y2="451" /><line x1="186" y1="451" x2="338" y2="451" /><line x1="96" y1="145" x2="211" y2="145" /><line x1="211" y1="145" x2="211" y2="102" /><line x1="99" y1="110" x2="99" y2="314" /><line x1="99" y1="314" x2="248" y2="314" /><line x1="333" y1="340" x2="140" y2="340" /><line x1="140" y1="340" x2="140" y2="150" /><line x1="249" y1="146" x2="249" y2="75" /><line x1="249" y1="75" x2="105" y2="75" /><line x1="123" y1="242" x2="266" y2="242" /><line x1="266" y1="242" x2="266" y2="273" /><line x1="324" y1="109" x2="324" y2="459" /><line x1="324" y1="459" x2="76" y2="459" /><line x1="196" y1="120" x2="384" y2="120" /><line x1="384" y1="120" x2="384" y2="395" /><line x1="224" y1="163" x2="224" y2="317" /><line x1="224" y1="317" x2="173" y2="317" /><line x1="142" y1="183" x2="142" y2="177" /><line x1="142" y1="177" x2="100" y2="177" /><line x1="229" y1="229" x2="229" y2="132" /><line x1="229" y1="132" x2="122" y2="132" /><line x1="183" y1="260" x2="183" y2="243" /><line x1="183" y1="243" x2="285" y2="243" /><line x1="355" y1="82" x2="355" y2="260" /><line x1="355" y1="260" x2="147" y2="260" /><line x1="394" y1="170" x2="402" y2="170" /><line x1="402" y1="170" x2="402" y2="415" /><line x1="122" y1="453" x2="122" y2="424" /><line x1="122" y1="424" x2="247" y2="424" /></g><circle cx="186" cy="384" r="5" fill="#38BDF8" /><circle cx="338" cy="451" r="5" fill="#38BDF8" /><circle cx="96" cy="145" r="5" fill="#38BDF8" /><circle cx="211" cy="102" r="5" fill="#38BDF8" /><circle cx="99" cy="110" r="5" fill="#38BDF8" /><circle cx="248" cy="314" r="5" fill="#38BDF8" /><circle cx="333" cy="340" r="5" fill="#38BDF8" /><circle cx="140" cy="150" r="5" fill="#38BDF8" /><circle cx="249" cy="146" r="5" fill="#38BDF8" /><circle cx="105" cy="75" r="5" fill="#38BDF8" /><circle cx="123" cy="242" r="5" fill="#38BDF8" /><circle cx="266" cy="273" r="5" fill="#38BDF8" /><circle cx="324" cy="109" r="5" fill="#38BDF8" /><circle cx="76" cy="459" r="5" fill="#38BDF8" /><circle cx="196" cy="120" r="5" fill="#38BDF8" /><circle cx="384" cy="395" r="5" fill="#38BDF8" /><circle cx="224" cy="163" r="5" fill="#38BDF8" /><circle cx="173" cy="317" r="5" fill="#38BDF8" /><circle cx="142" cy="183" r="5" fill="#38BDF8" /><circle cx="100" cy="177" r="5" fill="#38BDF8" /><circle cx="229" cy="229" r="5" fill="#38BDF8" /><circle cx="122" cy="132" r="5" fill="#38BDF8" /><circle cx="183" cy="260" r="5" fill="#38BDF8" /><circle cx="285" cy="243" r="5" fill="#38BDF8" /><circle cx="355" cy="82" r="5" fill="#38BDF8" /><circle cx="147" cy="260" r="5" fill="#38BDF8" /><circle cx="394" cy="170" r="5" fill="#38BDF8" /><circle cx="402" cy="415" r="5" fill="#38BDF8" /><circle cx="122" cy="453" r="5" fill="#38BDF8" /><circle cx="247" cy="424" r="5" fill="#38BDF8" /></svg>