<svg xmlns="http://www.w3.org/2000/svg" width="512" height="512" viewBox="0 0 512 512"><rect width="512" height="512" fill="#1E293B" /><g fill="none" stroke="#38BDF8" stroke-width="2"><line x1="264" y1="269" x2="218" y2="297" opacity="0.6" /><line x1="264" y1="269" x2="306" y2="431" opacity="0.6" /><line x1="264" y1="269" x2="154" y2="159" opacity="0.6" /><line x1="306" y1="431" x2="379" y2="384" opacity="0.6" /><line x1="211" y1="207" x2="127" y2="95" opacity="0.6" /><line x1="211" y1="207" x2="264" y2="269" opacity="0.6" /><line x1="155" y1="103" x2="275" y2="93" opacity="0.6" /><line x1="291" y1="125" x2="211" y2="207" opacity="0.6" /><line x1="291" y1="125" x2="218" y2="297" opacity="0.6" /><line x1="291" y1="125" x2="306" y2="431" opacity="0.6" /><line x1="203" y1="427" x2="379" y2="384" opacity="0.6" /><line x1="275" y1="93" x2="379" y2="384" opacity="0.6" /><line x1="275" y1="93" x2="306" y2="431" opacity="0.6" /><line x1="218" y1="297" x2="379" y2="384" opacity="0.6" /><line x1="379" y1="384" x2="264" y2="269" opacity="0.6" /><line x1="127" y1="95" x2="203" y2="427" opacity="0.6" /><line x1="155" y1="390" x2="218" y2="297" opacity="0.6" /><line x1="154" y1="159" x2="127" y2="95" opacity="0.6" /></g><circle cx="264" cy="269" r="8" fill="#38BDF8" /><circle cx="306" cy="431" r="8" fill="#38BDF8" /><circle cx="211" cy="207" r="8" fill="#38BDF8" /><circle cx="155" cy="103" r="8" fill="#38BDF8" /><circle cx="291" cy="125" r="8" fill="#38BDF8" /><circle cx="203" cy="427" r="8" fill="#38BDF8" /><circle cx="275" cy="93" r="8" fill="#38BDF8" /><circle cx="218" cy="297" r="8" fill="#38BDF8" /><circle cx="379" cy="384" r="8" fill="#38BDF8" /><circle cx="127" cy="95" r="8" fill="#38BDF8" /><circle cx="155" cy="390" r="8" fill="#38BDF8" /><circle cx="154" cy="159" r="8" fill="#38BDF8" /></svg>