<svg xmlns="http://www.w3.org/2000/svg" width="512" height="512" viewBox="0 0 512 512"><rect width="512" height="512" fill="#1A202C" /><g fill="none" stroke="#14B8A6" stroke-width="3"><line x1="350" y1="93" x2="215" y2="93" /><line x1="215" y1="93" x2="215" y2="142" /><line x1="400" y1="363" x2="234" y2="363" /><line x1="234" y1="363" x2="234" y2="234" /><line x1="148" y1="258" x2="148" y2="392" /><line x1="148" y1="392" x2="204" y2="392" /><line x1="279" y1="158" x2="149" y2="158" /><line x1="149" y1="158" x2="149" y2="289" /><line x1="421" y1="221" x2="421" y2="70" /><line x1="421" y1="70" x2="386" y2="70" /><line x1="323" y1="142" x2="323" y2="141" /><line x1="323" y1="141" x2="314" y2="141" /><line x1="183" y1="109" x2="140" y2="109" /><line x1="140" y1="109" x2="140" y2="134" /><line x1="188" y1="132" x2="188" y2="207" /><line x1="188" y1="207" x2="239" y2="207" /><line x1="327" y1="52" x2="384" y2="52" /><line x1="384" y1="52" x2="384" y2="295" /><line x1="88" y1="326" x2="335" y2="326" /><line x1="335" y1="326" x2="335" y2="292" /><line x1="409" y1="259" x2="409" y2="101" /><line x1="409" y1="101" x2="360" y2="101" /><line x1="376" y1="374" x2="293" y2="374" /><line x1="293" y1="374" x2="293" y2="355" /><line x1="373" y1="117" x2="436" y2="117" /><line x1="436" y1="117" x2="436" y2="288" /><line x1="340" y1="289" x2="340" y2="130" /><line x1="340" y1="130" x2="353" y2="130" /><line x1="204" y1="233" x2="434" y2="233" /><line x1="434" y1="233" x2="434" y2="357" /></g><circle cx="350" cy="93" r="5" fill="#14B8A6" /><circle cx="215" cy="142" r="5" fill="#14B8A6" /><circle cx="400" cy="363" r="5" fill="#14B8A6" /><circle cx="234" cy="234" r="5" fill="#14B8A6" /><circle cx="148" cy="258" r="5" fill="#14B8A6" /><circle cx="204" cy="392" r="5" fill="#14B8A6" /><circle cx="279" cy="158" r="5" fill="#14B8A6" /><circle cx="149" cy="289" r="5" fill="#14B8A6" /><circle cx="421" cy="221" r="5" fill="#14B8A6" /><circle cx="386" cy="70" r="5" fill="#14B8A6" /><circle cx="323" cy="142" r="5" fill="#14B8A6" /><circle cx="314" cy="141" r="5" fill="#14B8A6" /><circle cx="183" cy="109" r="5" fill="#14B8A6" /><circle cx="140" cy="134" r="5" fill="#14B8A6" /><circle cx="188" cy="132" r="5" fill="#14B8A6" /><circle cx="239" cy="207" r="5" fill="#14B8A6" /><circle cx="327" cy="52" r="5" fill="#14B8A6" /><circle cx="384" cy="295" r="5" fill="#14B8A6" /><circle cx="88" cy="326" r="5" fill="#14B8A6" /><circle cx="335" cy="292" r="5" fill="#14B8A6" /><circle cx="409" cy="259" r="5" fill="#14B8A6" /><circle cx="360" cy="101" r="5" fill="#14B8A6" /><circle cx="376" cy="374" r="5" fill="#14B8A6" /><circle cx="293" cy="355" r="5" fill="#14B8A6" /><circle cx="373" cy="117" r="5" fill="#14B8A6" /><circle cx="436" cy="288" r="5" fill="#14B8A6" /><circle cx="340" cy="289" r="5" fill="#14B8A6" /><circle cx="353" cy="130" r="5" fill="#14B8A6" /><circle cx="204" cy="233" r="5" fill="#14B8A6" /><circle cx="434" cy="357" r="5" fill="#14B8A6" /></svg>