<svg xmlns="http://www.w3.org/2000/svg" width="512" height="512" viewBox="0 0 512 512"><rect width="512" height="512" fill="#1A202C" /><g fill="none" stroke="#4F46E5" stroke-width="2"><line x1="206" y1="248" x2="218" y2="216" opacity="0.6" /><line x1="216" y1="217" x2="275" y2="370" opacity="0.6" /><line x1="216" y1="217" x2="206" y2="248" opacity="0.6" /><line x1="336" y1="143" x2="206" y2="248" opacity="0.6" /><line x1="275" y1="370" x2="336" y2="143" opacity="0.6" /><line x1="275" y1="370" x2="216" y2="217" opacity="0.6" /><line x1="275" y1="370" x2="336" y2="326" opacity="0.6" /><line x1="218" y1="216" x2="336" y2="143" opacity="0.6" /><line x1="218" y1="216" x2="206" y2="248" opacity="0.6" /><line x1="336" y1="326" x2="218" y2="216" opacity="0.6" /></g><circle cx="206" cy="248" r="8" fill="#4F46E5" /><circle cx="216" cy="217" r="8" fill="#4F46E5" /><circle cx="336" cy="143" r="8" fill="#4F46E5" /><circle cx="275" cy="370" r="8" fill="#4F46E5" /><circle cx="218" cy="216" r="8" fill="#4F46E5" /><circle cx="336" cy="326" r="8" fill="#4F46E5" /></svg>