<svg xmlns="http://www.w3.org/2000/svg" width="512" height="512" viewBox="0 0 512 512"><rect width="512" height="512" fill="#1abc9c" /><g fill="none" stroke="#ffffff" stroke-width="4"><line x1="391" y1="318" x2="517" y2="228" /><line x1="358" y1="391" x2="418" y2="307" /><line x1="310" y1="330" x2="249" y2="420" /><line x1="436" y1="92" x2="288" y2="218" /><line x1="53" y1="193" x2="103" y2="276" /><line x1="305" y1="365" x2="393" y2="302" /><line x1="230" y1="432" x2="110" y2="482" /><line x1="175" y1="364" x2="272" y2="314" /><line x1="361" y1="210" x2="305" y2="109" /><line x1="132" y1="295" x2="25" y2="218" /></g><circle cx="336" cy="359" r="6" fill="#ffffff" /><circle cx="174" cy="227" r="6" fill="#ffffff" /><circle cx="96" cy="361" r="7" fill="#ffffff" /><circle cx="166" cy="347" r="11" fill="#ffffff" /><circle cx="383" cy="205" r="9" fill="#ffffff" /><circle cx="230" cy="186" r="13" fill="#ffffff" /><circle cx="418" cy="190" r="6" fill="#ffffff" /><circle cx="233" cy="300" r="5" fill="#ffffff" /></svg>